<svg viewBox="0 0 2000 2000" xmlns="http://www.w3.org/2000/svg" fill-rule="evenodd" clip-rule="evenodd" stroke-linejoin="round" stroke-miterlimit="2">
    <path d="M1506.544 1037.046c-9.682-5.943-37.356-22.03-46.85-27.534 2.188 6.413-873.466-.854-870.177-9.515-55.82 27.215-116.741 74.193-139.522 100.53-77.11 89.153-123.116 161.445-119.868 301.555 3.531 152.113 62.108 219.093 118.924 282.62 48.046 53.717 277.419 164.442 535.64 174.642 312.018 12.314 525.2-99.987 599.477-166.264 57.815-51.597 125.5-146.139 125.5-298.288 0-140.146-55.843-267.37-203.124-357.746" fill="#cdcdcd" fill-rule="nonzero"/>
    <path d="M1501.73 1039.708c-9.585-5.872-36.978-21.77-46.376-27.21 2.166 6.338-864.614-.843-861.359-9.401-55.255 26.893-115.558 73.317-138.107 99.344-76.33 88.1-121.869 159.54-118.654 297.997 3.495 150.318 61.479 216.509 117.719 279.287 47.56 53.082 274.607 162.501 530.211 172.58 308.857 12.17 519.88-98.807 593.402-164.302 57.23-50.988 124.23-144.414 124.23-294.77 0-138.492-55.278-264.215-201.067-353.525" fill="#fff" fill-rule="nonzero"/>
    <path d="M1065.142 1254.41s200.457 100.94 250.822 148.723c9.292 8.814 17.635 20.204 24.361 34.823 36.734 79.853 187.187-273.61 116.01-425.458l-391.193 241.912z" fill="#cdcdcd" fill-rule="nonzero"/>
    <path d="M1171.798 1357.057s-106.882-109.576-106.66-109.665c6.772-2.733 238.18 78.089 279.576 166.001 36.373 77.238 171.071-259.762 107.05-400.903 0 0-326.25 133.745-386.625 234.902" fill="#fff" fill-rule="nonzero"/>
    <path d="M982.797 1242.01s-200.458 100.941-250.822 148.725c-9.292 8.813-17.635 20.203-24.361 34.823-36.735 79.852-187.187-273.61-116.011-425.46l391.194 241.913z" fill="#cdcdcd" fill-rule="nonzero"/>
    <path d="M876.139 1344.669s106.882-109.576 106.659-109.666c-6.771-2.733-238.178 78.089-279.575 166.001-36.373 77.238-171.072-259.762-107.05-400.903 0 0 326.25 133.745 386.625 234.902" fill="#fff" fill-rule="nonzero"/>
    <g fill="#cdcdcd" fill-rule="nonzero">
        <path d="M1319.503 1483.84c-42.243 0-76.542 33.557-76.542 74.889 0 41.33 34.299 74.889 76.542 74.889s76.542-33.558 76.542-74.89c0-41.33-34.299-74.889-76.542-74.889zm45.925 98.588c-.097.284-.097.663-.29.758-.679.38-1.357.664-2.132.948-1.647.758-3.197 1.327-5.135.569-.872-.38-1.841-.19-3.004-.285.29 1.991.678 3.792.872 5.688a204.43 204.43 0 011.163 10.807c.097 1.138-.097 2.37-.485 3.413-1.162 3.602-4.36 5.119-8.138 3.792-1.357-.474-2.616-1.233-3.779-2.086-2.422-1.706-4.844-3.602-7.17-5.403-.29-.19-.484-.57-.775-.759l-.29-.284c-.582-.38-1.26-.664-1.841-1.043-8.333-5.403-16.471-10.996-25.288-15.641-5.62-2.939-11.336-5.404-17.343-7.3-.775-.284-1.647-.474-2.52-.474-1.162-.094-1.84.474-1.937 1.612a44.137 44.137 0 00.581 11.28c.872 4.835 3.1 9.196 5.62 13.367.29.474.775.758.969 1.138.29.568.581 1.422.387 1.896-.193.474-1.065.853-1.55.853-6.104-.19-10.464-2.844-11.53-9.48-1.065-6.54-1.84-13.082-1.162-19.718.097-1.232.29-2.37.484-3.602.581-3.033 2.422-4.93 5.426-5.972a708.841 708.841 0 0019.959-7.11c12.305-4.55 24.513-9.195 36.818-13.745.29-.095.678-.285.968-.38v-.284c-2.228-.284-4.553-.664-6.782-.758-11.433-.38-22.865-.19-34.298.474-4.36.284-8.623.663-12.983 1.137-2.035.19-4.07.759-6.104 1.138-1.066.19-2.035.379-2.713-.569-.678-.948-.29-1.896.194-2.75 1.647-2.559 3.972-3.886 7.072-3.886h17.247c4.553 0 9.01-.095 13.564 0 1.55 0 3.197.19 4.747.285l.097-.285c-3.681-2.275-7.46-4.55-11.142-6.92.097-.19.194-.284.29-.474.97.474 1.939.853 3.004 1.327-3.003-3.033-23.543-12.608-29.744-13.84.581.38.969.569 1.356.853v.19c-.484 0-.872 0-1.26-.095-2.906-.758-5.813-1.517-8.72-2.37-.58-.19-1.356-.853-1.356-1.327 0-.569.678-1.422 1.163-1.612 4.844-1.611 9.689-2.56 14.727-.568 6.879 2.654 13.177 6.446 19.378 10.332a345.763 345.763 0 006.2 3.982c.291.19.97.284 1.26.19 8.623-4.456 17.343-8.532 25.482-13.746a68.063 68.063 0 005.425-3.697 7.008 7.008 0 001.55-1.801c.582-.853 1.454-1.327 2.423-1.043 2.616.664 4.457 2.37 5.62 4.645.58 1.043-.291 2.844-1.55 3.602-3.973 2.275-7.946 4.55-11.918 6.73-6.685 3.698-13.37 7.395-20.153 11.187a788.465 788.465 0 016.007 4.17c.29.19.678.096.969.19 5.91.285 11.82.759 17.44 2.37.775.19 1.453.57 2.131.854 2.132 1.137 2.326 3.128.291 4.55-1.26.853-2.616 1.706-4.07 2.275a576.053 576.053 0 01-13.564 5.593c-11.432 4.55-22.865 9.006-34.298 13.461-.581.19-1.066.474-1.55.664 15.89 2.085 31.78 4.17 47.766 6.256 0-.853.097-1.801 0-2.749-.097-1.706-.388-3.413-.485-5.119-.097-.853.194-1.517 1.066-1.706.872-.285 1.84-.285 2.228.568.776 1.612 1.26 3.318 1.841 5.025-.097 0-.193.095-.29.095-.485-1.328-.872-2.655-1.357-4.077-.097 0-.097 0-.194.095.582 2.37 1.26 4.74 1.841 7.11l.291 1.137c.29 1.043.969 1.517 2.035 1.422.872-.094 1.744-.094 2.616.095 1.84.38 3.585.853 5.425 1.517 1.066.379 1.938.948 2.907 1.611.969.38.678 1.043 0 1.707z"/>
        <path d="M1348.182 1583.565c-.097-.758.29-1.8-.969-2.085-1.84-.474-3.585-1.138-5.426-1.517-2.906-.664-5.813-1.138-8.623-1.801-.775-.19-1.55-.474-2.325-.664-.678-.19-1.357-.474-2.035-.568-1.066-.19-2.228-.095-3.294-.19-5.038-.664-10.076-1.422-15.115-2.18-1.162-.19-2.228-.285-3.39-.38 0 .095 0 .095-.098.19 2.423 1.422 4.845 2.75 7.364 4.266-.581.284-.775.379-1.066.569 1.454.948 2.81 1.706 4.36 2.749.097-1.233.775-.853 1.26-.474 5.62 3.602 11.336 7.11 16.955 10.807 1.454.948 2.81 2.18 4.166 3.223 1.841 1.516 3.78 3.128 5.62 4.645.581.474 1.066.568 1.163-.285.484-2.654 1.065-5.308 1.356-8.057.194-1.612-.194-3.318-.194-4.93.097-1.137.388-2.275.29-3.318z"/>
    </g>
    <path d="M1047.839 1342.387s-26.664-17.509-52.638-17.897c-47.024-.702-38.952 8.422-38.952 8.422-24.42 0-43.865-12.983-36.145-55.095l24.564-42.811c11.931-32.987 26.815-32.285 51.235-32.285h46.321c16.919 2.307 31.168 2.955 40.005 15.44 7.02 32.285 18.249 61 18.249 76.5 0 0-11.23 49.13-52.639 47.726" fill="#b22625" fill-rule="nonzero"/>
    <path d="M955.2 1328.707s-55.797 107.382-76.852 172.654c-6.909 21.418-43.163 228.448-43.163 228.448l105.467 98.762 18.759 9.322 129.49-102.82-41.058-392.68s-18.95-31.583-45.269-31.583c-26.32 0-47.374 17.897-47.374 17.897" fill="#a91f23" fill-rule="nonzero"/>
    <path d="M955.647 1332.403s-52.152 100.368-71.832 161.376c-6.458 20.019-45.12 220.588-45.12 220.588l106.679 103.873 122.121-96.855-25.256-376.19s-17.711-29.52-42.311-29.52-44.28 16.728-44.28 16.728" fill="#c62127" fill-rule="nonzero"/>
    <path d="M980.346 1603.144c23.421-9.56 47.053-18.568 70.76-27.378-.266-6.364-.575-12.724-.869-19.088-.89-9.346-2.27-18.652-4.413-27.895a19.627 19.627 0 01-.457-3.216c-25.748 6.997-51.436 14.195-76.65 22.968-27.302 9.5-54.217 20.872-80.3 33.354-10.063 4.815-20.03 9.913-29.472 15.749a13429.17 13429.17 0 00-13.109 72.136c9.709-6.311 19.54-12.435 29.67-18.044 33.664-18.639 69.244-34.058 104.84-48.586m72.36 112.18c-13.343 4.956-26.607 10.121-39.753 15.588-33.783 14.049-66.959 29.793-99.002 47.464-1.295.714-6.375 2.304-7.704 3.012 13.842 12.098 25.335 26.3 40.532 36.847l107.374-85.952c-.751-5.618-1.186-11.286-1.447-16.958M952.041 1517.63c31.105-11.037 62.948-19.663 94.78-28.314a9855.1 9855.1 0 01-2.331-47.204c-57.987 17.57-114.741 38.322-168.225 67.305-2.212 9.55-5.398 25.323-9.035 44.208.256-.124.512-.252.768-.374 27.325-13.076 55.495-25.49 84.043-35.621m100.178 161.061c-.196-11.415-.531-22.81-.75-34.252-.204-10.635-.055-21.302.083-31.971-20.766 7.78-41.452 15.76-61.965 24.193-35.129 14.439-70.61 29.694-103.385 48.995-14.93 8.792-29.374 18.326-43.71 28.04 13.206 14.273 26.638 28.323 40.535 41.86 4.547-2.393 9.052-4.778 13.381-7.195 33.44-18.67 68.402-34.788 103.747-49.487 17.2-7.153 34.571-13.843 52.064-20.183m-10.825-317.845c-26.66 6.874-53.149 14.337-79.18 23.346-14.835 5.133-28.826 11.012-42.736 17.415-8.994 19.3-18.396 40.335-26.536 60.36 48.266-22.89 98.717-40.357 150.002-55.62a3738.519 3738.519 0 01-1.55-45.5m-6.196-34.133c-8.034-7.936-19.396-15.912-32.623-15.912-26.32 0-47.374 17.897-47.374 17.897s-5.04 9.7-12.648 25.014c13.449-4.641 27.123-8.695 40.39-12.659 17.315-5.173 34.76-9.853 52.255-14.34" fill-rule="nonzero" opacity=".1"/>
    <path d="M1052.055 1720.333l-109.487 77.905-87.38-65.272 90.187 85.274 122.12-96.854-25.255-376.19 9.815 375.137z" fill="#fff" fill-rule="nonzero" opacity=".2"/>
    <path d="M1051.82 1301.368c4.67.647 9.405-1.402 12.947-4.515 8.073-7.093 10.387-19.21 7.806-29.64-2.583-10.43-9.335-19.368-16.989-26.911-4.648-4.58-9.744-8.808-15.602-11.681-8.15-3.998-17.348-5.193-26.367-6.214-7.282-.824-14.719-1.564-21.882-.02-11.124 2.397-20.467 10.116-27.45 19.099-5.401 6.949-9.735 14.99-10.872 23.717-1.139 8.728 1.294 18.2 7.697 24.237 9.708 9.156 24.966 8.19 38.067 5.654 13.1-2.535 27.292-5.926 39.265-.034 4.452 2.19 8.465 5.627 13.38 6.308" fill="#c62127" fill-rule="nonzero"/>
</svg>
