<svg viewBox="0 0 596 89" xmlns="http://www.w3.org/2000/svg" fill-rule="evenodd" clip-rule="evenodd" stroke-linejoin="round" stroke-miterlimit="2">
    <g fill="#1d1d1b" fill-rule="nonzero">
        <path d="M351.086 28.757c21.91 5.946 149.29 72.457 230.315-27.89 0 0-62.9 145.396-230.315 27.89z"/>
        <path d="M561.041 26.168s9.548 14.964 34.38 10.669c0 0-12.081 13.778-38.571-2.708l4.191-7.961zM514.657 60.353s6.58 16.485 31.779 16.91c0 0-14.447 11.274-37.387-9.876l5.608-7.034zM533.407 50.918s7.701 15.993 32.87 14.677c0 0-13.634 12.244-37.98-7.272l5.11-7.405zM547.263 41.515s9.548 14.965 34.38 10.67c0 0-12.082 13.777-38.572-2.708l4.192-7.962zM490.53 64.677s5.053 19.315 30.185 21.338c0 0-15.468 12.053-36.435-13.61l6.25-7.728z"/>
        <g>
            <path d="M245.049 28.757C223.14 34.703 95.76 101.214 14.734.867c0 0 62.903 145.396 230.315 27.89z"/>
            <path d="M35.094 26.168S25.548 41.132.714 36.837c0 0 12.083 13.778 38.573-2.708l-4.193-7.961zM81.479 60.353S74.9 76.838 49.7 77.263c0 0 14.445 11.274 37.386-9.876l-5.608-7.034zM62.73 50.918s-7.703 15.993-32.871 14.677c0 0 13.635 12.244 37.978-7.272l-5.107-7.405zM48.872 41.515s-9.546 14.965-34.38 10.67c0 0 12.084 13.777 38.574-2.708l-4.194-7.962zM105.607 64.677s-5.055 19.315-30.187 21.338c0 0 15.47 12.053 36.437-13.61l-6.25-7.728z"/>
        </g>
    </g>
</svg>
