<svg viewBox="0 0 857 517" xmlns="http://www.w3.org/2000/svg" fill-rule="evenodd" clip-rule="evenodd" stroke-linejoin="round" stroke-miterlimit="2">
    <path d="M170.61 359.037l431.041.317c49.666.036 100.128.727 149.472-2.865 15.82-1.152 30.895-2.964 46.513-5.04 9.228-1.229 18.459-2.452 27.69-3.68 7.35-.973 15.672 15.26 18.056 19.265 12.955 21.796 15.068 45.73 11.933 68.835-2.593 19.08-4.097 47.785-29.889 60.516-27.423 13.543-69.116 9.633-101.028 6.573L605 491.513c-55.704-5.34-114.474-11.06-170.894-9.942-60.455 1.197-119.762 4.373-179.671 9.762-43.954 3.953-87.908 7.908-131.862 11.866-33.375 2.997-82.664 6.792-101.317-14.842C3.2 467.407.1 438.272.527 414.358c.262-14.79 3.371-29.663 10.86-43.66 3.157-5.902 11.005-24.086 22.252-22.728 23.375 2.819 46.92 6.6 70.507 8.505 21.885 1.767 44.443 1.715 66.465 2.562" fill="#141a16"/>
    <path d="M21.258 488.87c7.375 16.398 51.365 16.239 71.149 16.52 10.73.153 21.575-1.421 32.178-2.375 44.08-3.965 88.157-7.932 132.238-11.896 59.446-5.349 118.316-8.38 178.29-9.57 56.774-1.123 115.88 4.785 171.929 10.162 39.462 3.779 78.922 7.562 118.384 11.346 32.472 3.112 75.909 7.028 102.714-8.105 7.991-4.51 13.438-10.548 16.251-17.186-10.504 18.386-29.67 37.514-62.614 38.406-14.32.39-30.291.422-44.462-.842-32.552-2.896-65.094-5.797-97.646-8.693-65.55-5.839-130.217-12.098-196.378-13.506-60.038-1.276-120.42 3.454-179.783 9.059-37.89 3.577-75.782 7.154-113.667 10.734-33.29 3.143-73.328 7.946-103.842-3.802-11.863-4.566-20.776-11.573-24.741-20.252" fill="#333"/>
    <path d="M826.144 347.42c0-20.925-2.75-41.1-8.055-61.728-5.197-20.216-2.642-40.447-4.306-60.887-3.599-44.063-25.106-90.26-71.963-122.954-46.814-32.672-106.897-55.78-170.367-71.724-17.417-4.376-35.133-8.234-53.039-11.657a1144.988 1144.988 0 00-28.283-5.02c-4.851-.796-9.712-1.567-14.58-2.308-7.794-1.183-9.193-1.958-14.825-5.227-12.854-7.464-48.96-5.936-63.282-1.125-1.932.653-5.843 4.874-6.576 4.925-4.602.299-9.193.6-13.795.9-6.288.414-12.493.807-18.637 1.816-16.674 2.728-32.902 5.435-49.111 9.151-31.137 7.143-60.581 16.713-90.056 26.323-47.645 15.53-92.393 37.93-116.344 69.986-13.574 18.16-27.421 36.33-35.479 55.957-4.388 10.684-11.745 22.232-13.623 33.225-1.97 11.547-3.946 23.09-5.92 34.632-3.703 21.634-8.686 43.061-13.695 64.59-1.466 6.305-1.584 12.52-1.899 18.91-.322 6.428 3.394 20.211-3.232 25.631 29.205 3.523 58.57 8.418 88.244 9.562 22.52.868 44.977 2.05 67.534 2.066 78.184.056 156.373.116 234.562.173 69.957.049 139.903.103 209.855.154 56.48.043 112.939-.563 168.363-7.925 10.112-1.345 20.221-2.687 30.33-4.03-.559-1.052-.839-2.523-1.821-3.417" fill-rule="nonzero"/>
    <g fill="#fff" fill-rule="nonzero">
        <path d="M428.522 120.976c-52.6 0-95.308 42.707-95.308 95.308 0 52.6 42.707 95.308 95.308 95.308 52.6 0 95.308-42.708 95.308-95.308 0-52.6-42.708-95.308-95.308-95.308zm57.184 125.468c-.12.362-.12.845-.361.966-.845.482-1.69.844-2.655 1.206-2.05.965-3.98 1.689-6.394.724-1.085-.483-2.292-.241-3.74-.362.362 2.533.845 4.826 1.086 7.238a265.712 265.712 0 011.448 13.754c.12 1.448-.12 3.016-.603 4.343-1.448 4.584-5.43 6.515-10.134 4.826-1.69-.604-3.258-1.569-4.705-2.654-3.017-2.172-6.033-4.585-8.928-6.877-.362-.241-.603-.724-.965-.965l-.362-.362c-.724-.483-1.568-.845-2.292-1.327-10.376-6.877-20.51-13.995-31.488-19.906-6.997-3.74-14.115-6.877-21.595-9.29-.965-.362-2.051-.603-3.137-.603-1.448-.12-2.292.603-2.413 2.05-.362 4.827-.12 9.532.724 14.357 1.086 6.153 3.86 11.703 6.997 17.011.362.603.965.965 1.207 1.448.362.724.724 1.81.482 2.413-.241.603-1.327 1.085-1.93 1.085-7.6-.24-13.03-3.619-14.357-12.064-1.327-8.324-2.292-16.649-1.447-25.094.12-1.568.362-3.016.603-4.584.724-3.86 3.016-6.274 6.756-7.6a870.095 870.095 0 0024.852-9.049c15.322-5.79 30.523-11.702 45.845-17.493.362-.12.844-.362 1.206-.483v-.362c-2.775-.361-5.67-.844-8.445-.965-14.236-.482-28.472-.241-42.707.604-5.43.361-10.738.844-16.167 1.447-2.533.242-5.067.965-7.6 1.448-1.327.241-2.534.483-3.378-.724-.845-1.206-.362-2.413.241-3.499 2.051-3.257 4.947-4.946 8.807-4.946h21.475c5.67 0 11.22-.12 16.89 0 1.93 0 3.98.241 5.911.362l.12-.362c-4.584-2.895-9.289-5.79-13.873-8.807.12-.241.241-.362.362-.603 1.206.603 2.413 1.086 3.74 1.689-3.74-3.86-29.317-16.046-37.038-17.614.724.483 1.207.724 1.69 1.086v.241c-.604 0-1.087 0-1.57-.12-3.618-.966-7.238-1.93-10.857-3.017-.724-.24-1.689-1.085-1.689-1.689 0-.723.845-1.81 1.448-2.05 6.032-2.051 12.064-3.258 18.338-.724 8.565 3.378 16.407 8.203 24.128 13.15 2.534 1.689 5.067 3.378 7.721 5.067.362.241 1.207.362 1.569.241 10.737-5.67 21.595-10.858 31.729-17.493 2.292-1.448 4.584-3.016 6.756-4.705a8.868 8.868 0 001.93-2.293c.724-1.085 1.81-1.689 3.016-1.327 3.258.845 5.55 3.016 6.997 5.912.724 1.327-.361 3.62-1.93 4.584-4.946 2.896-9.893 5.791-14.839 8.566-8.324 4.705-16.649 9.41-25.094 14.236a981.569 981.569 0 017.48 5.308c.362.241.845.12 1.207.241 7.359.362 14.718.966 21.715 3.017.966.24 1.81.723 2.655 1.085 2.654 1.448 2.895 3.982.361 5.791-1.568 1.086-3.257 2.172-5.067 2.896-5.55 2.412-11.22 4.825-16.89 7.118-14.235 5.79-28.471 11.46-42.707 17.13-.724.242-1.327.604-1.93.845 19.785 2.654 39.57 5.309 59.476 7.963 0-1.086.121-2.292 0-3.499-.12-2.171-.482-4.343-.603-6.515-.12-1.085.242-1.93 1.327-2.171 1.086-.362 2.293-.362 2.775.724.965 2.05 1.569 4.222 2.292 6.394-.12 0-.24.12-.362.12-.603-1.689-1.085-3.378-1.689-5.187-.12 0-.12 0-.24.12.723 3.016 1.568 6.033 2.291 9.049l.362 1.447c.362 1.327 1.207 1.93 2.534 1.81 1.086-.12 2.171-.12 3.257.12a47.348 47.348 0 016.756 1.93c1.327.483 2.413 1.207 3.62 2.052 1.206.482.844 1.327 0 2.171z"/>
        <path d="M464.232 247.892c-.12-.965.362-2.292-1.206-2.654-2.293-.603-4.464-1.448-6.756-1.93-3.62-.845-7.239-1.448-10.738-2.293-.965-.24-1.93-.603-2.895-.844-.845-.241-1.69-.603-2.534-.724-1.327-.241-2.774-.12-4.101-.241-6.274-.845-12.547-1.81-18.82-2.775-1.449-.241-2.776-.362-4.223-.483 0 .121 0 .121-.121.242 3.016 1.81 6.032 3.498 9.169 5.429-.724.362-.965.482-1.327.724 1.81 1.206 3.498 2.171 5.429 3.498.12-1.568.965-1.086 1.568-.603 6.997 4.584 14.115 9.048 21.113 13.753 1.81 1.207 3.498 2.775 5.187 4.102 2.293 1.93 4.705 3.981 6.998 5.912.723.603 1.327.724 1.447-.362.604-3.378 1.327-6.756 1.69-10.255.24-2.05-.242-4.222-.242-6.273.12-1.448.483-2.896.362-4.223z"/>
    </g>
</svg>
