<svg viewBox="0 0 1371 844" xmlns="http://www.w3.org/2000/svg" fill-rule="evenodd" clip-rule="evenodd" stroke-linejoin="round" stroke-miterlimit="2">
    <path d="M1163.924 30.324c-9.583-5.74-17.24-15.924-26.64-21.239 2.17 6.193 3.06 8.819 4.602 15.152 3.588 14.744 5.448 29.849 5.448 45.23 0 162.547-207.9 294.321-464.362 294.321-256.458 0-464.359-131.774-464.359-294.322 0-15.38 1.86-30.485 5.449-45.23 2.1-8.627 7.286-15.613 10.539-23.974C181.464 28.89 145.608 64.89 123.058 90.32 46.726 176.413-2.979 239.209.238 374.503c3.493 146.887 61.48 211.57 117.72 272.913 47.562 51.872 274.603 158.798 530.213 168.643 308.857 11.894 519.88-96.55 593.4-160.558 57.231-49.82 124.23-141.11 124.23-288.04 0-135.332-56.084-249.864-201.877-337.137" fill="#e5dfe2" fill-rule="nonzero"/>
    <path d="M1168.901 27.574c-9.617-5.888-22.31-13.026-31.743-18.483 2.177 6.358 6.037 14.78 7.584 21.278 3.602 15.128 6.7 30.125 6.7 45.906 0 119.658-107.403 223.06-263.147 271.94-61.331 19.25-130.16 290.98-202.879 290.98-78.16 0-151.83-273.41-216.527-295.45-148.335-50.524-249.494-151.341-249.494-267.47 0-15.78 1.867-31.279 5.468-46.407 2.108-8.852 6.437-21.034 9.701-29.612-55.057 28.724-96.9 63.924-119.53 90.016C38.427 178.602-2.99 250.43.238 389.252c3.505 150.71 61.7 217.076 118.142 280.017 47.731 53.227 275.585 162.936 532.11 173.033 309.963 12.203 521.74-99.064 595.524-164.734 57.437-51.12 124.675-144.787 124.675-295.541 0-138.856-55.474-264.907-201.789-354.453" fill="#55b2ce" fill-rule="nonzero"/>
    <path d="M853.606 371.716s75.777-26.876 126.513 21.26c9.36 8.877 17.764 20.351 24.54 35.079 37.005 80.44 204.452-265.979 132.752-418.94 0 0-222.374 257.249-283.805 362.6" fill="#336972" fill-rule="nonzero"/>
    <path d="M853.606 371.699s.117-.051.345-.144c6.884-2.842 115.847-46.12 157.968 45.437 37.01 80.44 190.525-260.884 125.387-407.877 0 0-222.269 257.232-283.7 362.584" fill="#3c8899" fill-rule="nonzero"/>
    <path d="M506.321 373.005s-78.842-28.165-129.578 19.97c-9.36 8.878-17.764 20.352-24.54 35.08-37.005 80.44-189.35-274.831-117.65-427.797 0 0 210.337 267.395 271.768 372.747" fill="#336972" fill-rule="nonzero"/>
    <path d="M506.321 373.005s-117.873-50.578-161.378 43.987C307.933 497.432 169.463 147.252 234.6.258c0 0 210.289 267.395 271.72 372.747" fill="#3c8899" fill-rule="nonzero"/>
    <path d="M519.913 579.66c-4.673 39.869-49.013 63.674-93.636 54.3-39.592-8.318-65.509-40.417-61.747-72.513 3.762-32.092 36.4-57.334 76.846-56.268 45.574 1.2 83.21 34.61 78.537 74.482" fill="#fff" fill-rule="nonzero"/>
    <g fill="#b31835" fill-rule="nonzero">
        <path d="M435.853 486.116c-46.61 0-84.455 37.844-84.455 84.455 0 46.61 37.845 84.455 84.455 84.455 46.611 0 84.455-37.845 84.455-84.455s-37.844-84.455-84.455-84.455zm50.673 111.18c-.106.322-.106.75-.32.856-.749.428-1.497.749-2.352 1.07-1.818.854-3.528 1.496-5.666.64-.962-.427-2.031-.213-3.314-.32.32 2.245.748 4.276.962 6.414.534 4.063.962 8.125 1.283 12.187.107 1.283-.107 2.673-.535 3.849-1.283 4.062-4.81 5.773-8.98 4.276-1.496-.534-2.886-1.39-4.17-2.352-2.672-1.924-5.344-4.062-7.91-6.093-.32-.214-.535-.642-.855-.856l-.321-.32c-.641-.428-1.39-.749-2.031-1.176-9.194-6.094-18.174-12.401-27.902-17.64-6.201-3.314-12.508-6.093-19.137-8.231-.855-.32-1.817-.535-2.779-.535-1.283-.107-2.031.535-2.138 1.818a50.855 50.855 0 00.641 12.721c.962 5.452 3.421 10.37 6.2 15.074.322.534.856.855 1.07 1.283.32.641.641 1.603.427 2.138-.213.534-1.175.962-1.71.962-6.735-.214-11.546-3.207-12.722-10.69-1.176-7.377-2.03-14.753-1.283-22.237.107-1.39.321-2.672.535-4.062.641-3.421 2.673-5.56 5.987-6.735a771.016 771.016 0 0022.022-8.018c13.577-5.131 27.047-10.37 40.624-15.501.32-.107.748-.32 1.07-.428v-.32c-2.46-.321-5.025-.749-7.484-.856-12.615-.427-25.23-.214-37.845.535-4.81.32-9.514.748-14.325 1.283-2.245.213-4.49.855-6.735 1.282-1.176.214-2.245.428-2.993-.641-.749-1.069-.321-2.138.213-3.1 1.818-2.887 4.384-4.383 7.805-4.383h19.029c5.024 0 9.942-.107 14.966 0 1.71 0 3.528.214 5.239.32l.107-.32c-4.063-2.566-8.232-5.132-12.294-7.804.106-.214.213-.321.32-.535 1.07.535 2.138.962 3.314 1.497-3.314-3.421-25.978-14.219-32.82-15.608.642.427 1.07.641 1.497.962v.214c-.534 0-.962 0-1.39-.107-3.207-.856-6.414-1.71-9.621-2.673-.642-.214-1.497-.962-1.497-1.497 0-.641.749-1.603 1.283-1.817 5.345-1.817 10.69-2.886 16.25-.641 7.59 2.993 14.539 7.27 21.38 11.652 2.246 1.497 4.49 2.994 6.843 4.49.32.214 1.069.321 1.39.214 9.514-5.024 19.135-9.621 28.115-15.501 2.032-1.283 4.063-2.673 5.987-4.17a7.858 7.858 0 001.71-2.03c.642-.963 1.604-1.497 2.673-1.177 2.887.749 4.918 2.673 6.2 5.239.642 1.176-.32 3.207-1.71 4.062-4.383 2.566-8.766 5.132-13.15 7.59-7.376 4.17-14.752 8.339-22.235 12.615 2.138 1.497 4.383 3.1 6.628 4.704.32.214.748.107 1.069.214 6.521.32 13.042.855 19.243 2.672.855.214 1.603.642 2.352.963 2.352 1.282 2.565 3.527.32 5.131-1.39.962-2.886 1.924-4.49 2.566-4.917 2.138-9.942 4.276-14.966 6.307-12.615 5.132-25.23 10.156-37.845 15.18-.641.214-1.176.535-1.71.749 17.532 2.352 35.065 4.704 52.704 7.056 0-.962.107-2.032 0-3.1-.107-1.925-.428-3.85-.535-5.773-.106-.963.214-1.71 1.176-1.925.963-.32 2.032-.32 2.46.642.854 1.817 1.389 3.741 2.03 5.666-.106 0-.213.107-.32.107-.535-1.497-.962-2.994-1.497-4.597-.107 0-.107 0-.214.107.642 2.672 1.39 5.345 2.031 8.017l.321 1.283c.32 1.176 1.07 1.71 2.245 1.604.962-.107 1.924-.107 2.887.107 2.03.427 3.955.962 5.986 1.71 1.176.428 2.138 1.07 3.207 1.818 1.07.427.749 1.176 0 1.924z"/>
        <path d="M467.497 598.58c-.107-.855.321-2.031-1.069-2.352-2.03-.535-3.955-1.283-5.986-1.71-3.208-.749-6.415-1.283-9.515-2.032-.855-.214-1.71-.534-2.566-.748-.748-.214-1.496-.535-2.245-.642-1.176-.213-2.459-.106-3.634-.213-5.56-.749-11.119-1.604-16.678-2.46-1.283-.213-2.459-.32-3.741-.427 0 .107 0 .107-.107.214 2.672 1.604 5.345 3.1 8.125 4.81-.642.321-.856.428-1.176.642 1.603 1.07 3.1 1.924 4.81 3.1.107-1.39.856-.962 1.39-.534 6.2 4.062 12.508 8.018 18.708 12.187 1.604 1.07 3.1 2.459 4.597 3.635 2.032 1.71 4.17 3.528 6.2 5.238.642.535 1.177.642 1.284-.32.534-2.994 1.176-5.987 1.496-9.087.214-1.818-.213-3.742-.213-5.56.107-1.282.427-2.565.32-3.741z"/>
    </g>
</svg>
