<svg viewBox="0 0 1376 838" xmlns="http://www.w3.org/2000/svg" fill-rule="evenodd" clip-rule="evenodd" stroke-linejoin="round" stroke-miterlimit="2">
    <g transform="matrix(1,0,0,1,-331,-1012) matrix(4.57328,0,0,4.51051,1504.25,1836.97)">
        <path d="M0-177.448a289.966 289.966 0 00-6.262-3.753c.477 1.404.89 2.824 1.229 4.26a44.429 44.429 0 011.2 10.254c0 36.852-45.794 66.727-102.284 66.727-56.491 0-102.285-29.875-102.285-66.727 0-3.487.41-6.911 1.2-10.254a46.667 46.667 0 011.774-5.78c-11.705 6.491-19.973 13.405-24.94 19.171-16.813 19.518-26.844 35.345-26.136 66.019.77 33.302 13.542 47.966 25.93 61.874 10.476 11.76 60.488 36.001 116.79 38.234C-45.752 5.273.73-19.313 16.925-33.823c12.606-11.296 27.364-31.994 27.364-65.304 0-30.682-12.176-58.535-44.289-78.321" fill-rule="nonzero"/>
        <clipPath id="wear-2_svg__a">
            <path d="M0-177.448a289.966 289.966 0 00-6.262-3.753c.477 1.404.89 2.824 1.229 4.26a44.429 44.429 0 011.2 10.254c0 36.852-45.794 66.727-102.284 66.727-56.491 0-102.285-29.875-102.285-66.727 0-3.487.41-6.911 1.2-10.254a46.667 46.667 0 011.774-5.78c-11.705 6.491-19.973 13.405-24.94 19.171-16.813 19.518-26.844 35.345-26.136 66.019.77 33.302 13.542 47.966 25.93 61.874 10.476 11.76 60.488 36.001 116.79 38.234C-45.752 5.273.73-19.313 16.925-33.823c12.606-11.296 27.364-31.994 27.364-65.304 0-30.682-12.176-58.535-44.289-78.321" clip-rule="nonzero"/>
        </clipPath>
        <g clip-path="url(#wear-2_svg__a)">
            <g fill="#fff" fill-rule="nonzero">
                <path d="M-157.806-80.645c-8.844 0-16.026 6.957-16.026 15.525 0 8.568 7.182 15.525 16.026 15.525 8.845 0 16.026-6.957 16.026-15.525 0-8.568-7.181-15.525-16.026-15.525zm9.615 20.438c-.02.059-.02.137-.06.157a3.034 3.034 0 01-.447.197c-.345.157-.67.275-1.075.118-.182-.079-.385-.04-.629-.06.061.413.142.787.183 1.18.101.746.182 1.493.243 2.24.02.236-.02.491-.101.707-.244.747-.913 1.062-1.704.787a3.08 3.08 0 01-.791-.433c-.507-.354-1.015-.747-1.501-1.12-.061-.04-.102-.118-.163-.157l-.06-.06c-.122-.078-.264-.137-.386-.215-1.744-1.12-3.448-2.28-5.294-3.243a22.398 22.398 0 00-3.632-1.513 1.567 1.567 0 00-.527-.098c-.243-.02-.385.098-.406.334a9.06 9.06 0 00.122 2.338c.183 1.003.65 1.907 1.177 2.771.06.099.162.157.202.236.061.118.122.295.082.393-.041.098-.224.177-.325.177-1.278-.04-2.19-.59-2.414-1.965-.223-1.356-.385-2.712-.243-4.088.02-.255.06-.491.101-.746.122-.63.507-1.022 1.136-1.239 1.4-.471 2.8-.962 4.179-1.473 2.576-.944 5.132-1.907 7.708-2.85.061-.02.142-.059.203-.078v-.06c-.466-.058-.953-.137-1.42-.157a79.582 79.582 0 00-7.18.099c-.914.059-1.806.137-2.72.235-.425.04-.851.158-1.277.236-.223.04-.426.079-.568-.118-.142-.196-.061-.393.04-.57.345-.53.832-.805 1.481-.805h3.611c.954 0 1.887-.02 2.84 0 .325 0 .67.039.994.059l.02-.06c-.77-.47-1.562-.943-2.332-1.434.02-.04.04-.059.06-.098.203.098.406.177.63.275-.63-.629-4.93-2.614-6.228-2.87.121.08.202.119.284.178v.039c-.102 0-.183 0-.264-.02-.609-.157-1.217-.314-1.826-.49-.122-.04-.284-.178-.284-.276 0-.118.142-.295.244-.334 1.014-.334 2.028-.53 3.083-.118 1.44.55 2.759 1.336 4.057 2.142.426.275.852.55 1.298.825.061.04.203.06.264.04 1.806-.924 3.631-1.769 5.335-2.85.386-.236.771-.491 1.136-.766.122-.098.244-.236.325-.374.121-.176.304-.275.507-.216.548.138.933.492 1.176.963.122.216-.06.59-.324.747-.832.472-1.664.943-2.495 1.395-1.4.767-2.8 1.533-4.22 2.32.406.274.832.569 1.258.864.06.04.142.02.203.04 1.237.058 2.475.156 3.651.49.163.04.305.118.447.177.446.236.486.649.06.943a4.451 4.451 0 01-.852.472c-.933.393-1.886.786-2.84 1.16a1080.14 1080.14 0 01-7.18 2.79c-.122.04-.224.098-.325.138l10 1.297c0-.177.02-.374 0-.57-.02-.354-.08-.708-.1-1.061-.021-.177.04-.315.222-.354.183-.06.386-.06.467.118.162.334.264.688.385 1.041-.02 0-.04.02-.06.02-.102-.275-.183-.55-.285-.845-.02 0-.02 0-.04.02.122.49.264.982.385 1.473l.061.236c.061.216.203.315.426.295.183-.02.365-.02.548.02.385.078.75.177 1.136.314.223.079.406.197.608.334.203.079.142.216 0 .354z"/>
                <path d="M-151.801-59.971c-.02-.157.06-.374-.203-.433-.386-.098-.75-.235-1.136-.314-.609-.138-1.217-.236-1.806-.373-.162-.04-.324-.099-.486-.138-.142-.04-.284-.098-.426-.118-.224-.04-.467-.02-.69-.04-1.055-.137-2.11-.294-3.165-.451a8.712 8.712 0 00-.71-.079c0 .02 0 .02-.02.04.507.294 1.014.57 1.542.884a1.855 1.855 0 00-.223.118c.304.196.588.354.912.57.02-.256.163-.177.264-.099 1.177.747 2.374 1.474 3.55 2.24.304.197.588.453.872.669.386.314.791.648 1.177.963.122.098.223.118.243-.06.102-.55.223-1.1.284-1.67.04-.334-.04-.687-.04-1.021.02-.236.08-.472.06-.688z"/>
            </g>
            <path d="M-72.46-103.938s20.447-2.951 31.54 7.72c2.048 1.969 3.885 4.513 5.367 7.778 8.091 17.834 44.706-58.969 29.028-92.88l-65.935 77.382z" fill="#fff" fill-opacity=".11" fill-rule="nonzero"/>
            <path d="M-72.438-103.901s-.048.02 0 0c1.507-.631 29.262-7.291 38.472 13.008 8.093 17.834 41.66-57.84 27.418-90.429 0 0-52.457 54.064-65.89 77.42M-141.78-104.11s-19.98-2.779-31.075 7.893c-2.046 1.968-3.884 4.512-5.366 7.777-8.091 17.834-41.403-60.931-25.725-94.844 0 0 48.733 55.818 62.166 79.175" fill="#fff" fill-opacity=".11" fill-rule="nonzero"/>
            <path d="M-141.78-104.11s-28.515-7.749-38.028 13.217c-8.093 17.834-38.371-59.803-24.128-92.392 0 0 48.723 55.818 62.156 79.175" fill="#fff" fill-opacity=".11" fill-rule="nonzero"/>
        </g>
    </g>
</svg>
