<svg xmlns="http://www.w3.org/2000/svg" viewBox="0 0 228.5 40.7"><switch><g><path d="M1.6 27.1l11.1-5.7V23l-9.3 4.7 9.3 4.7V34L1.6 28.4v-1.3zM17.8 34.1c0-.8.1-2 .1-3v-14H20v7.3c.7-1.3 2.1-2.1 3.9-2.1 2.9 0 4.9 2.4 4.9 5.9 0 4.1-2.6 6.2-5.2 6.2-1.7 0-3-.6-3.9-2.2h-.1l-.1 1.9h-1.7zm2.1-4.6c0 .3 0 .5.1.8.4 1.5 1.6 2.5 3.2 2.5 2.2 0 3.5-1.8 3.5-4.4 0-2.3-1.2-4.3-3.4-4.3-1.4 0-2.8 1-3.2 2.6 0 .2-.1.5-.1.9v1.9zM33.9 22.5l2.5 6.8c.3.8.5 1.7.7 2.4.2-.7.5-1.6.7-2.4l2.3-6.8h2.2l-3.2 8.2c-1.5 4-2.5 6-4 7.2-1 .9-2.1 1.3-2.6 1.4l-.5-1.8c.5-.2 1.2-.5 1.8-1 .6-.5 1.3-1.3 1.8-2.3.1-.2.2-.4.2-.5 0-.1 0-.3-.1-.5l-4.3-10.6h2.5zM57.2 28.4l-11.1 5.7v-1.6l9.4-4.7-9.3-4.8v-1.6l11.1 5.7v1.3z"/><g><path d="M77.3 30c-1.3 1.8-2.5 3.1-2.5 3.6 0 .8 1.7.8 2.7.8 5.6 0 10.5-.5 14.6-4.6.3-.4.6-.6.7-.6.1 0 .1.1.1.2 0 .3-.2.9-.3 1.3l-1.8 5H66.6l16.8-21.6c.6-.8 1.2-1.5 1.2-1.9 0-.9-1.5-.9-3.1-.9-5.9 0-9.2.4-13 5-.1.1-.2.3-.4.3-.1 0-.1-.1-.1-.2 0-.3.1-.5.2-.8l2-5.5h21.9L77.3 30zM116.9 18.5c0-4.8-2.3-8.2-7.4-8.2-4.5 0-6.9 4-7.4 8.2h14.8zm-15.1.9c-.1 1.1-.1 2.2-.1 3.2 0 9.2 4.7 12.5 9.5 12.5 5.7 0 9.8-3.9 11.5-9.6h1c-1.6 6.8-6.5 10.9-13.2 10.9-8.4 0-14.6-5.7-14.6-13.5 0-7.9 6.2-13.5 14.6-13.5 5.4 0 11.9 3.2 12.5 10.1h-21.2zM133.5 17c1.2-4.2 3.6-7.6 10.1-7.6 5.4 0 10.5 2.8 10.5 10.6v9.5c-.1 4.7.5 5.4 2 5.9.3.1.6.2.6.3 0 .1-.2.1-.7.1-.4 0-1.7-.1-4.4-.1s-4.4.1-5.1.1c-.3 0-.5 0-.5-.1s.1-.2.4-.3c1.8-.2 2.7-1.5 2.7-5.9V20c0-4.5-2-9.3-7.2-9.3-5.9 0-7.8 6-7.8 12.9v6c0 3.1.1 5.4 2.4 5.8.3.1.5.1.5.3 0 .2-.1.2-.4.2-.3 0-2.4-.1-5-.1s-4.9.1-5.3.1c-.3 0-.4-.1-.4-.2s.2-.2.5-.3c2.5-.4 2.7-2.7 2.7-5.8V17.3c0-3-.3-4.6-1.7-5.2-.5-.2-.9-.4-.9-.5 0-.1.3-.1.9-.2 2.4-.4 4.4-.8 6.2-1.4v7zM160.8 3.8c0-1.6 1.3-3 2.9-3 1.7 0 3 1.4 3 3s-1.3 2.9-3 2.9c-1.6 0-2.9-1.3-2.9-2.9m.8 11.4c0-2.5-.9-2.8-1.7-3.2-.3-.1-.8-.1-.8-.3 0-.1.5-.1.9-.2 2.3-.4 4.4-.9 6.7-1.6v19.6c0 3.1.3 5.3 2.6 5.8.3 0 .5.1.5.4 0 .1-.2.1-.7.1-.5 0-2.3-.1-4.9-.1-2.7 0-4.4.1-4.9.1-.4 0-.7 0-.7-.1 0-.3.2-.4.5-.4 2.3-.4 2.6-2.7 2.6-5.8V15.2zM187.5 27.9c-1-1.7-3.2-6.1-5.9-6.1-1.7 0-1.7 2-1.7 4.1v3.5c0 3.1.2 5 2.7 5.8.2.1.4.1.4.3 0 .1-.2.2-.5.2-.2 0-2.4-.1-5.1-.1-2.7 0-4.6.1-4.9.1-.2 0-.5-.1-.5-.2s.1-.2.3-.3c2.4-.7 2.6-3.6 2.6-7.8V8c0-2.9-.2-5.2-1.8-5.4-.5-.1-.8-.2-.8-.4 0-.1.4-.2.9-.4L180 .1v21.3l8.3-6.9c1.1-.9 1.8-1.7 1.8-2.6 0-.7-.6-1.1-.8-1.3-.2-.1-.5-.1-.5-.4 0-.2.3-.2.7-.2.4 0 2.2.2 4.7.2 2.4 0 3-.2 4.6-.2.4 0 .7 0 .7.3 0 .2-.8.3-1.6.5-2.8.7-5.7 2.4-8 4.2l-7.3 5.5v.1c6.7.1 8.2 2.7 11.6 8.1 1.7 2.7 3.7 5.4 6.4 6.6.2.1.5.2.5.3 0 .1-.2.2-.5.2-.2 0-2.5-.1-4.9-.1-1.1 0-2.3.1-3.2.1l-5-7.9zM221.2 20.9h-2.9c-5.3 0-10.8 1.6-10.8 8.1 0 3.6 2.6 6.2 6.1 6.2 5.8 0 7.6-6.1 7.6-10.8v-3.5zm5 10.5c0 1.6.2 3.1 1.8 3.8.3.1.5.1.5.3 0 .1-.3.2-.6.2h-5.3c-.7-1.6-1.1-3.3-1.2-5h-.1c-1.9 4-4.8 5.8-9.1 5.8-5.1 0-10.4-2.4-10.4-8.2 0-7.5 11.4-8.2 16.6-8.2h2.8v-1.6c0-4.7-2.2-8.1-7.2-8.1-4.5 0-7.2 1.3-9 5.7-.2.4-.3.8-.4.8-.1 0-.1-.2-.2-.5l-1.3-4.4c4-2.1 7.2-2.5 11.6-2.5 5.6 0 11.5 2 11.5 8.2v13.7z"/></g></g></switch></svg>