<?xml version="1.0" encoding="UTF-8" standalone="no"?>
<!DOCTYPE svg PUBLIC "-//W3C//DTD SVG 20010904//EN"
              "http://www.w3.org/TR/2001/REC-SVG-20010904/DTD/svg10.dtd">

<svg xmlns="http://www.w3.org/2000/svg"
     width="22.2222in" height="22.2222in"
     viewBox="0 0 2000 2000">
  <path id="hand"
        fill="#c62828" stroke="black" stroke-width="0"
        d="M 421.59,1124.62
           C 244.26,1178.29 156.00,1073.33 149.36,1139.45
             142.73,1205.58 161.82,1285.21 162.00,1290.67
             162.12,1294.29 252.67,1348.67 272.00,1441.33
             291.33,1534.00 343.04,1598.67 432.88,1649.75
             271.33,1509.33 274.00,1251.33 421.59,1124.62 Z" />
  <path id="red blade"
        fill="#fb1624" stroke="black" stroke-width="0"
        d="M 172.98,1017.26
           C 171.20,1015.16 70.00,41.00 70.00,41.00
             70.01,36.26 69.85,31.07 73.42,27.39
             78.10,22.56 89.26,21.59 94.91,25.09
             97.53,26.71 99.23,29.19 100.39,32.00
             100.56,32.40 101.68,35.48 102.39,40.65
             115.73,137.46 218.61,1024.65 218.61,1024.65
             218.61,1024.65 174.66,1019.25 172.98,1017.26 Z" />
  <path id="white blade"
        fill="#f3cecc" stroke="black" stroke-width="0"
        d="M 80.83,77.00
           C 80.83,77.00 78.04,50.00 78.04,50.00
             77.90,46.47 78.27,41.28 80.28,38.28
             84.04,32.65 89.75,36.05 92.03,41.00
             95.93,49.45 97.04,66.41 97.91,76.00
             97.91,76.00 176.84,754.00 176.84,754.00
             176.84,754.00 205.64,994.91 206.73,1015.45
             206.73,1015.45 182.73,1010.00 182.73,1010.00
             181.64,1001.00 80.83,77.00 80.83,77.00 Z" />
  <path id="white manche"
        fill="#f0f2f6" stroke="black" stroke-width="0"
        d="M 259.00,1349.18
           C 255.55,1352.00 249.15,1355.64 243.64,1356.73
             234.22,1358.59 219.19,1359.11 209.50,1358.12
             204.72,1357.64 192.94,1354.90 190.82,1353.27
             188.69,1351.65 185.83,1348.96 186.00,1346.64
             186.17,1344.31 189.45,1341.36 193.00,1340.09
             192.79,1337.25 192.47,1331.77 192.18,1327.69
             189.48,1288.92 183.66,1198.12 177.50,1126.25
             176.34,1125.28 170.74,1125.65 168.91,1125.61
             168.90,1125.19 165.94,1107.00 165.81,1101.22
             166.60,1100.82 167.22,1100.88 167.81,1100.88
             166.56,1086.88 164.34,1060.47 163.75,1053.50
             163.69,1052.76 154.97,1055.02 154.87,1053.61
             154.77,1052.19 152.17,1023.32 152.17,1023.30
             154.00,1023.17 162.43,1022.78 165.13,1022.65
             164.98,1020.94 164.80,1008.87 164.78,1008.59
             176.82,1003.78 210.65,1010.19 233.12,1030.94
             235.57,1066.43 256.10,1332.56 256.18,1333.73
             259.45,1334.27 264.91,1338.64 264.73,1341.82
             264.55,1345.00 262.45,1346.36 259.00,1349.18 Z
           M 202.67,1043.00" />
  <path id="dark grey"
        fill="#484848" stroke="black" stroke-width="0"
        d="M 186.88,1200.97
           C 183.61,1200.48 179.57,1200.74 178.09,1201.00
             176.62,1201.26 176.18,1204.64 176.18,1204.64
             176.18,1204.64 168.09,1204.52 167.00,1206.09
             165.91,1207.66 165.69,1230.62 166.94,1246.94
             168.19,1263.25 174.75,1325.06 175.75,1329.62
             178.62,1331.06 185.50,1330.94 185.50,1330.94
             185.50,1330.94 185.50,1331.50 186.27,1333.09
             194.62,1333.25 197.09,1333.27 197.18,1329.55
             194.00,1300.91 191.74,1258.13 186.88,1200.97 Z
           M 224.25,1333.00
           C 227.88,1332.12 231.25,1331.00 235.62,1328.50
             240.00,1326.00 228.62,1206.62 226.04,1204.70
             223.46,1202.77 215.43,1201.35 211.94,1201.12
             208.66,1201.68 201.25,1204.86 199.22,1207.22
             197.19,1209.58 205.25,1330.81 209.19,1331.69
             213.12,1332.56 220.62,1332.88 224.25,1333.00 Z
           M 249.25,1327.38
           C 249.38,1316.00 240.25,1205.50 239.00,1199.62
             242.12,1198.12 247.50,1196.88 249.12,1198.00
             250.75,1199.12 251.13,1200.39 251.13,1200.39
             251.13,1200.39 256.04,1200.04 259.30,1201.09
             262.57,1202.13 273.00,1317.09 269.82,1319.64
             266.64,1322.18 260.00,1324.73 257.27,1327.45
             254.09,1328.00 253.25,1328.12 249.25,1327.38 Z
           M 246.75,1185.75
           C 248.50,1183.88 245.12,1137.12 242.88,1134.25
             236.00,1137.00 164.50,1140.88 162.00,1141.12
             162.19,1143.50 164.94,1189.19 165.12,1191.62
             177.25,1192.12 238.88,1187.25 246.75,1185.75 Z
           M 164.67,1008.33
           C 187.33,1001.00 225.67,1021.00 233.33,1031.00
             235.33,1040.67 235.55,1045.36 235.55,1045.36
             235.55,1045.36 240.36,1045.00 243.27,1045.18
             244.45,1047.36 245.55,1058.91 245.18,1062.73
             232.45,1063.27 204.73,1060.73 202.73,1074.73
             196.36,1077.18 184.55,1077.09 184.55,1077.09
             184.55,1077.09 148.00,1084.00 148.00,1084.00
             148.00,1084.00 144.50,1061.56 147.88,1056.44
             151.25,1051.31 157.86,1047.47 179.56,1046.69
             179.20,1036.69 178.48,1022.61 178.48,1022.61
             178.48,1022.61 165.17,1022.57 165.17,1022.57
             165.17,1022.57 164.36,1011.09 164.67,1008.33 Z" />
  <path id="darker grey"
        fill="#242424" stroke="black" stroke-width="0"
        d="M 177.47,1213.50
           C 178.01,1222.05 184.10,1322.30 186.28,1323.94
             188.46,1325.57 190.45,1325.61 191.00,1327.06
             191.55,1328.52 191.16,1331.00 192.44,1332.09
             193.71,1333.18 195.94,1332.38 196.12,1330.50
             196.31,1328.62 187.51,1204.49 185.88,1202.31
             184.24,1200.13 182.91,1201.82 181.82,1204.36
             180.73,1206.91 180.74,1213.68 177.47,1213.50 Z
           M 224.00,1330.75
           C 225.45,1331.39 230.73,1330.55 234.91,1327.27
             239.09,1324.00 228.45,1207.27 224.91,1204.91
             223.18,1203.27 216.55,1202.91 212.82,1203.09
             216.25,1221.50 224.50,1316.00 224.00,1330.75 Z
           M 257.38,1324.62
           C 260.25,1321.12 265.50,1319.62 268.56,1318.25
             270.62,1306.25 264.62,1223.75 258.48,1202.26
             257.43,1200.91 253.91,1201.35 250.57,1201.30
             248.87,1199.83 247.13,1198.00 245.75,1200.00
             251.75,1223.38 256.12,1292.38 257.38,1324.62 Z" />
  <path id="light grey"
        fill="#585858" stroke="black" stroke-width="0"
        d="M 212.00,1045.45
           C 208.18,1045.45 192.36,1046.00 181.82,1046.55
             136.73,1046.36 146.82,1066.64 148.55,1083.00
             157.82,1080.45 181.64,1077.27 187.09,1077.09
             191.09,1073.27 206.91,1052.55 212.00,1045.45 Z
           M 164.97,1008.72
           C 165.03,1011.16 165.41,1021.00 165.50,1022.41
             170.81,1022.31 176.09,1021.91 178.82,1022.00
             179.55,1020.55 181.09,1020.00 176.91,1008.82
             173.45,1008.09 169.55,1007.64 164.97,1008.72 Z" />
  <path id="contours"
        fill="none" stroke="black" stroke-width="2"
        d="M 186.88,1200.97
           C 183.61,1200.48 179.57,1200.74 178.09,1201.00
             176.62,1201.26 176.18,1204.64 176.18,1204.64
             176.18,1204.64 168.09,1204.52 167.00,1206.09
             165.91,1207.66 165.69,1230.62 166.94,1246.94
             168.19,1263.25 174.75,1325.06 175.75,1329.62
             178.62,1331.06 185.50,1330.94 185.50,1330.94
             185.50,1330.94 185.50,1331.50 186.27,1333.09
             194.62,1333.25 197.09,1333.27 197.18,1329.55
             194.00,1300.91 191.74,1258.13 186.88,1200.97 Z
           M 224.25,1333.00
           C 227.88,1332.12 231.25,1331.00 235.62,1328.50
             240.00,1326.00 228.62,1206.62 226.04,1204.70
             223.46,1202.77 215.43,1201.35 211.94,1201.12
             208.66,1201.68 201.25,1204.86 199.22,1207.22
             197.19,1209.58 205.25,1330.81 209.19,1331.69
             213.12,1332.56 220.62,1332.88 224.25,1333.00 Z
           M 249.25,1327.38
           C 249.38,1316.00 240.25,1205.50 239.00,1199.62
             242.12,1198.12 247.50,1196.88 249.12,1198.00
             250.75,1199.12 251.13,1200.39 251.13,1200.39
             251.13,1200.39 256.04,1200.04 259.30,1201.09
             262.57,1202.13 273.00,1317.09 269.82,1319.64
             266.64,1322.18 260.00,1324.73 257.27,1327.45
             254.09,1328.00 253.25,1328.12 249.25,1327.38 Z
           M 246.75,1185.75
           C 248.50,1183.88 245.12,1137.12 242.88,1134.25
             236.00,1137.00 164.50,1140.88 162.00,1141.12
             162.19,1143.50 164.94,1189.19 165.12,1191.62
             177.25,1192.12 238.88,1187.25 246.75,1185.75 Z
           M 179.73,1046.55
           C 154.18,1048.09 150.00,1052.00 147.73,1056.45
             145.45,1060.91 146.00,1071.00 147.91,1084.36
             160.09,1080.55 181.27,1077.55 185.18,1077.09
             189.09,1076.64 198.69,1075.84 202.88,1075.75
             202.38,1059.62 238.64,1063.27 245.73,1062.91
             245.82,1060.91 245.09,1051.36 243.73,1045.00
             241.45,1045.00 240.55,1045.00 236.27,1045.27
             236.00,1042.73 234.64,1034.73 233.45,1030.36
             215.82,1013.00 183.45,1003.45 164.27,1007.64
             164.36,1011.18 164.55,1018.18 164.91,1022.00
             171.91,1021.91 176.45,1022.09 178.64,1022.27
             179.36,1029.91 179.27,1039.55 179.73,1046.55 Z
           M 179.73,1046.55
           C 188.45,1046.00 228.45,1044.73 236.27,1045.27M 154.00,1050.91
           C 153.45,1046.55 152.36,1027.18 152.00,1023.18
             157.09,1022.00 161.91,1022.45 164.91,1022.09M 181.73,1046.55
           C 183.18,1050.73 184.82,1073.73 184.91,1076.91M 203.00,1074.62
           C 203.00,1074.62 207.88,1138.00 207.88,1138.00M 184.25,1077.25
           C 184.25,1077.25 188.00,1124.91 188.00,1124.91
             188.00,1124.91 177.65,1125.57 177.65,1125.57
             177.65,1125.57 168.88,1125.50 168.88,1125.50
             168.88,1125.50 165.00,1102.25 165.00,1102.25
             165.00,1102.25 167.43,1101.00 167.43,1101.00
             167.43,1101.00 165.57,1080.22 165.57,1080.22M 168.13,1101.04
           C 168.13,1101.04 179.52,1100.61 179.52,1100.61
             179.52,1100.61 178.04,1078.39 178.04,1078.39
             178.04,1078.39 181.13,1122.43 181.13,1122.43M 172.70,1106.70
           C 172.70,1106.70 173.48,1120.52 173.48,1120.52M 235.50,1062.88
           C 235.50,1062.88 240.38,1135.38 240.38,1135.38M 153.12,1145.25
           C 153.12,1145.25 157.12,1191.38 157.12,1191.38
             157.12,1191.38 165.00,1191.25 165.00,1191.25M 182.62,1191.25
           C 182.62,1191.25 182.62,1200.38 182.62,1200.38M 212.25,1189.12
           C 212.25,1189.12 213.00,1200.75 213.00,1200.75M 244.75,1185.62
           C 244.75,1185.62 245.75,1197.50 245.75,1197.50M 178.50,1139.88
           C 178.50,1139.88 177.75,1125.62 177.75,1125.62M 224.25,1333.12
           C 224.25,1333.12 225.12,1344.62 225.12,1344.62
             225.12,1344.62 226.75,1350.38 226.75,1350.38
             226.75,1350.38 224.88,1358.25 224.88,1358.25M 256.12,1327.75
           C 256.12,1327.75 256.25,1333.62 256.25,1333.62
             261.62,1334.75 264.00,1337.88 265.25,1341.62
             263.50,1344.62 256.62,1359.12 224.88,1358.50
             193.12,1357.88 188.38,1353.38 185.75,1346.88
             187.00,1342.12 189.62,1341.38 193.25,1340.12
             193.12,1336.62 193.00,1333.25 193.00,1333.25M 187.50,1345.25
           C 187.50,1345.25 207.88,1351.38 227.88,1350.25
             247.88,1349.12 263.50,1340.25 263.50,1340.25" />
  <path id="button"
        fill="#99504d" stroke="black" stroke-width="1"
        d="M 194.75,1099.38
           C 197.50,1096.62 200.25,1093.62 204.00,1093.38
             205.10,1097.22 207.78,1098.47 215.00,1096.25
             215.25,1099.12 214.94,1102.75 214.25,1104.50
             208.70,1103.47 204.87,1107.22 204.50,1109.81
             200.75,1109.31 195.50,1108.81 194.00,1107.81
             197.75,1105.31 198.75,1102.38 194.75,1099.38 Z" />
  <path id="fingers"
        fill="#c62828" stroke="black" stroke-width="0"
        d="M 421.56,1124.56
           C 349.06,1131.06 283.83,1124.00 250.33,1111.00
             216.83,1098.00 206.17,1071.83 201.67,1080.33
             197.17,1088.83 226.00,1137.67 246.88,1152.56
             267.75,1167.46 359.73,1144.73 421.56,1124.56 Z
           M 165.67,1117.33
           C 189.33,1116.42 215.67,1142.67 219.33,1174.33
             223.00,1206.00 243.33,1255.67 198.00,1271.33
             179.96,1277.57 168.91,1277.64 162.91,1290.55
             159.31,1276.80 154.76,1241.97 152.25,1221.25
             148.08,1186.83 142.00,1118.25 165.67,1117.33 Z" />
</svg>
