<?xml version="1.0" encoding="UTF-8" standalone="no"?>
<!DOCTYPE svg PUBLIC "-//W3C//DTD SVG 1.1//EN" "http://www.w3.org/Graphics/SVG/1.1/DTD/svg11.dtd">
<svg width="100%" height="100%" viewBox="0 0 2000 2000" version="1.1" xmlns="http://www.w3.org/2000/svg" xmlns:xlink="http://www.w3.org/1999/xlink" xml:space="preserve" xmlns:serif="http://www.serif.com/" style="fill-rule:evenodd;clip-rule:evenodd;stroke-linejoin:round;stroke-miterlimit:2;">
    <g transform="matrix(0.581332,0,0,0.581332,1025.96,1482.58)">
        <g transform="matrix(1,0,0,1,-490,-431)">
            <path d="M416.05,558.1L699.05,506.53C667.79,595 583.43,658.41 484.26,658.41C358.5,658.41 256.56,556.46 256.56,430.7C256.56,425.1 256.77,419.54 257.16,414.03C257.16,413.7 257.16,413.36 257.24,413.03L257.54,413.03L513.67,366.6L375.67,504.6C374.57,506.224 373.601,507.933 372.77,509.71C366.552,523.146 369.451,539.133 379.99,549.53C385.019,554.505 391.42,557.869 398.37,559.19L398.44,559.19C400.276,559.537 402.141,559.711 404.01,559.71C406.06,559.706 408.105,559.515 410.12,559.14L416.05,558.1Z" style="fill:white;fill-rule:nonzero;"/>
            <path d="M712,430.7C712,436.473 711.79,442.183 711.37,447.83L465.88,492.57L598.88,360.85L600.23,359.5C608.192,351.26 611.71,339.666 609.67,328.39C606.937,313.777 595.391,302.311 580.76,299.68C577.449,299.112 574.065,299.129 570.76,299.73L562.12,301.29L269.57,354.67C300.86,266.3 385.18,203 484.26,203C610,203 712,305 712,430.7Z" style="fill:white;fill-rule:nonzero;"/>
        </g>
    </g>
</svg>
