<svg id="Calque_1" data-name="Calque 1" xmlns="http://www.w3.org/2000/svg" viewBox="0 0 980 862"><defs><style>.cls-1{fill:#fff;}</style></defs><path class="cls-1" d="M416.05,558.1l283-51.57C667.79,595,583.43,658.41,484.26,658.41c-125.76,0-227.7-101.95-227.7-227.71,0-5.6.21-11.16.6-16.67,0-.33,0-.67.08-1l.3,0,256.13-46.43-138,138,0,0,0,0a37.24,37.24,0,0,0-2.9,5.11,35.18,35.18,0,0,0,7.22,39.82,35.58,35.58,0,0,0,18.38,9.66h.07a29.89,29.89,0,0,0,5.57.52,33.82,33.82,0,0,0,6.11-.57Z"/><path class="cls-1" d="M712,430.7q0,8.66-.63,17.13L465.88,492.57l133-131.72,1.35-1.35,0,0a35.64,35.64,0,0,0,9.44-31.11,35.87,35.87,0,0,0-28.91-28.71,28.75,28.75,0,0,0-10,.05l-8.64,1.56L269.57,354.67C300.86,266.3,385.18,203,484.26,203,610,203,712,305,712,430.7Z"/></svg>