<?xml version="1.0" encoding="UTF-8" standalone="no"?>
<!DOCTYPE svg PUBLIC "-//W3C//DTD SVG 20010904//EN"
              "http://www.w3.org/TR/2001/REC-SVG-20010904/DTD/svg10.dtd">

<svg xmlns="http://www.w3.org/2000/svg"
     width="22.2222in" height="22.2222in"
     viewBox="0 0 2000 2000">
  <path id="contour"
        fill="#6ce8e7" stroke="black" stroke-width="0"
        d="M 1309.97,881.91
           C 1362.00,844.50 1424.00,698.00 1466.00,748.00
             1467.56,754.38 1467.62,751.88 1470.75,766.19
             1430.25,698.69 1374.00,847.50 1313.50,893.00
             1320.50,926.00 1347.00,1019.50 1318.00,1092.00
             1461.50,996.50 1470.50,946.50 1490.00,880.00
             1490.09,883.62 1490.94,898.97 1490.91,903.62
             1477.91,951.62 1462.50,1012.50 1309.50,1111.50
             1156.50,1210.50 1061.00,1218.00 1020.00,1217.00
             979.00,1216.00 878.50,1201.50 748.00,1113.00
             617.50,1024.50 569.25,943.25 553.88,899.75
             553.00,883.88 553.12,870.00 555.33,858.00
             570.67,957.33 668.67,1038.67 741.00,1095.00
             722.67,1055.33 719.67,977.33 748.75,891.25
             691.67,836.33 620.33,670.00 586.02,745.01
             587.07,742.02 590.99,728.04 592.00,725.01
             635.25,673.50 704.18,832.03 754.50,880.00
             764.50,889.00 786.00,926.50 859.50,909.00
             933.00,891.50 922.50,834.00 1019.00,834.50
             1115.50,835.00 1125.50,901.50 1186.00,917.00
             1246.50,932.50 1290.00,897.50 1309.97,881.91 Z" />
  <path id="milieu"
        fill="#6dd7dd" stroke="black" stroke-width="0"
        d="M 756.00,899.33
           C 756.00,899.33 714.00,1033.33 758.00,1105.33
             843.00,1155.33 915.67,1200.33 1018.67,1205.33
             1121.67,1210.33 1212.67,1157.33 1299.33,1108.67
             1343.33,1036.67 1304.00,898.67 1304.00,898.67
             1304.00,898.67 1250.00,947.67 1182.00,926.67
             1114.00,905.67 1116.33,847.00 1021.33,846.00
             926.33,845.00 933.00,902.33 858.00,921.33
             783.00,940.33 756.00,899.33 756.00,899.33 Z" />
  <path id="pli #1"
        fill="#4cc8d7" stroke="black" stroke-width="0"
        d="M 910.67,992.67
           C 828.00,981.67 767.33,978.00 738.75,995.62
             739.25,981.75 740.67,968.00 745.00,945.00
             822.50,987.50 934.50,999.00 1020.00,999.00
             1105.50,999.00 1223.75,999.75 1313.25,942.50
             1319.64,975.55 1319.82,988.73 1319.91,1003.36
             1256.00,977.00 1170.91,995.73 1104.91,997.73
             1038.54,998.26 992.98,1002.27 910.67,992.67 Z" />
  <path id="pli #2"
        fill="#4cc8d7" stroke="black" stroke-width="0"
        d="M 922.00,1078.50
           C 834.50,1062.00 768.58,1031.01 740.00,1048.64
             738.27,1038.00 737.64,1023.64 738.18,1010.73
             815.68,1053.23 933.75,1089.75 1019.25,1089.75
             1104.75,1089.75 1230.00,1073.25 1319.50,1016.00
             1319.00,1026.00 1318.50,1037.50 1316.75,1048.50
             1306.50,1036.50 1194.00,1075.00 1127.00,1082.50
             1060.00,1090.00 1009.50,1095.00 922.00,1078.50 Z" />
  <path id="pli #3"
        fill="#4cc8d7" stroke="black" stroke-width="0"
        d="M 940.36,1159.64
           C 866.91,1137.82 770.91,1084.00 753.44,1097.31
             750.25,1089.94 745.50,1079.38 743.00,1067.00
             820.50,1109.50 938.50,1174.00 1024.00,1174.00
             1109.50,1174.00 1224.50,1129.25 1314.00,1072.00
             1311.55,1082.64 1307.73,1092.91 1302.73,1102.64
             1292.48,1090.64 1185.64,1144.73 1120.91,1160.18
             1056.18,1175.64 1013.82,1181.45 940.36,1159.64 Z" />
  <path id="reflet #1"
        fill="#6ce8e7" stroke="black" stroke-width="0"
        d="M 1021.00,854.00
           C 980.67,852.67 956.00,869.00 937.00,883.00
             972.55,911.27 975.45,977.64 975.67,994.00
             1010.00,997.67 1027.00,996.67 1063.33,995.33
             1063.45,974.39 1067.33,904.67 1102.00,882.00
             1081.00,865.00 1061.33,855.33 1021.00,854.00 Z" />
  <path id="reflet #2"
        fill="#6ce8e7" stroke="black" stroke-width="0"
        d="M 1021.00,1002.25
           C 980.67,1000.92 979.50,1002.00 950.25,999.75
             978.25,1021.25 984.54,1067.14 984.75,1083.50
             1019.08,1087.17 1020.92,1086.33 1057.25,1085.00
             1057.37,1064.06 1062.00,1021.50 1088.50,1002.00
             1065.50,1001.50 1061.33,1003.58 1021.00,1002.25 Z" />
  <path id="reflet #3"
        fill="#6ce8e7" stroke="black" stroke-width="0"
        d="M 969.00,1088.50
           C 993.25,1092.50 1047.25,1094.00 1074.25,1090.50
             1050.00,1108.50 1050.50,1141.75 1050.75,1169.75
             1031.00,1174.00 1012.50,1172.50 995.00,1169.00
             994.50,1149.50 992.50,1106.75 969.00,1088.50 Z" />
  <path id="reflet #4"
        fill="#6ce8e7" stroke="black" stroke-width="0"
        d="M 983.45,1172.00
           C 1009.45,1178.00 1033.64,1177.82 1061.09,1174.18
             1044.91,1180.55 1043.82,1198.00 1044.00,1204.55
             1035.27,1205.45 1013.27,1206.18 1001.82,1203.45
             1001.64,1196.18 999.18,1180.77 983.45,1172.00 Z" />
</svg>
