<svg viewBox="0 0 2000 2000" xmlns="http://www.w3.org/2000/svg" fill-rule="evenodd" clip-rule="evenodd"><path d="M399.395 1139.68c-162.043 50.694-242.694-48.445-248.761 14.008-6.059 62.463 11.385 137.68 11.55 142.84.11 3.412 82.853 54.772 100.517 142.295 17.664 87.536 64.916 148.613 147.01 196.867-147.622-132.638-145.182-376.33-10.316-496.01z" fill="#c62828" fill-rule="nonzero"/><path d="M172.217 1038.274c-1.626-1.983-94.102-922.12-94.102-922.12.01-4.476-.137-9.379 3.125-12.855 4.277-4.562 14.475-5.478 19.638-2.172 2.394 1.53 3.947 3.873 5.007 6.527.155.378 1.179 3.287 1.828 8.17 12.19 91.441 106.2 929.43 106.2 929.43s-40.16-5.1-41.696-6.98z" fill="#fb1624" fill-rule="nonzero"/><path d="M88.011 150.158l-2.55-25.502c-.127-3.335.211-8.237 2.048-11.07 3.436-5.318 8.653-2.107 10.737 2.569 3.564 7.981 4.578 24 5.373 33.059l72.126 640.4s26.317 227.55 27.313 246.95l-21.931-5.147c-.996-8.501-93.116-881.259-93.116-881.259z" fill="#f3cecc" fill-rule="nonzero"/><path d="M250.822 1351.784c-3.153 2.668-9.001 6.104-14.036 7.13-8.608 1.76-22.342 2.256-31.197 1.323-4.368-.46-15.132-3.046-17.07-4.58-1.946-1.536-4.56-4.074-4.404-6.27.155-2.196 3.152-4.983 6.396-6.187-.191-2.68-.484-7.863-.749-11.712-2.467-36.625-7.785-122.384-13.414-190.268-1.06-.916-6.178-.567-7.85-.605-.009-.396-2.714-17.578-2.833-23.037.722-.378 1.289-.321 1.828-.321-1.142-13.224-3.17-38.17-3.71-44.753-.055-.699-8.023 1.436-8.114.104-.092-1.341-2.468-28.61-2.468-28.629 1.673-.123 9.376-.491 11.843-.614-.137-1.615-.302-13.016-.32-13.28 11.002-4.543 41.916 1.511 62.449 21.11 2.239 33.522 20.999 284.897 21.072 285.995 2.988.508 7.977 4.64 7.813 7.64-.165 3.01-2.084 4.297-5.236 6.954z" fill="#f0f2f6" fill-rule="nonzero"/><path d="M184.919 1211.796c-2.988-.463-6.68-.217-8.032.029-1.344.245-1.746 3.438-1.746 3.438s-7.392-.114-8.388 1.37c-.996 1.482-1.197 23.169-.055 38.584 1.142 15.407 7.137 73.791 8.05 78.089 2.623 1.37 8.91 1.251 8.91 1.251s0 .532.704 2.031c7.63.154 9.887.177 9.97-3.341-2.907-27.05-4.972-67.464-9.413-121.45zm34.148 124.71c3.317-.839 6.397-1.89 10.39-4.25 4.003-2.362-6.396-115.123-8.754-116.937-2.357-1.823-9.695-3.164-12.884-3.381-2.998.529-9.769 3.533-11.624 5.762-1.855 2.229 5.51 116.74 9.11 117.566 3.592.826 10.445 1.122 13.762 1.24zm22.845-5.313c.119-10.745-8.224-115.118-9.366-120.672 2.85-1.417 7.767-2.588 9.247-1.53 1.49 1.058 1.837 2.257 1.837 2.257s4.487-.33 7.466.662c2.988.982 12.519 109.566 9.613 111.974-2.906 2.397-8.974 4.805-11.468 7.38-2.906.519-3.674.637-7.329-.071zm-2.284-133.773c1.599-1.766-1.49-45.933-3.537-48.644-6.287 2.598-71.623 6.263-73.907 6.49.173 2.247 2.686 45.404 2.85 47.699 11.085.472 67.402-4.128 74.594-5.545zm-75.004-167.58c20.706-6.924 55.741 11.967 62.74 21.412 1.828 9.134 2.03 13.564 2.03 13.564s4.395-.34 7.054-.17c1.078 2.059 2.083 12.968 1.745 16.576-11.632.51-36.963-1.889-38.79 11.335-5.821 2.314-16.613 2.23-16.613 2.23l-33.4 6.526s-3.198-21.196-.109-26.032c3.08-4.845 9.12-8.472 28.949-9.209-.329-9.445-.987-22.745-.987-22.745l-12.162-.037s-.74-10.844-.457-13.45z" fill="#484848" fill-rule="nonzero"/><path d="M176.32 1223.631c.494 8.076 6.059 102.768 8.05 104.315 1.993 1.535 3.811 1.582 4.314 2.951.502 1.382.146 3.72 1.316 4.747 1.16 1.027 3.198.271 3.362-1.5.174-1.783-7.867-119.023-9.357-121.082-1.498-2.06-2.714-.463-3.71 1.936-.996 2.409-.987 8.803-3.975 8.633zm42.519 110.75c1.325.602 6.15-.19 9.97-3.283 3.82-3.093-5.904-113.351-9.138-115.58-1.581-1.55-7.64-1.89-11.048-1.72 3.134 17.39 10.673 106.65 10.216 120.582zm30.502-5.798c2.623-3.306 7.42-4.722 10.217-6.01 1.882-11.334-3.6-89.26-9.211-109.558-.96-1.275-4.177-.86-7.229-.907-1.553-1.389-3.143-3.117-4.404-1.228 5.483 22.083 9.476 87.253 10.627 117.703z" fill="#242424" fill-rule="nonzero"/><path d="M207.873 1064.9c-3.49 0-17.946.52-27.578 1.04-41.203-.18-31.983 18.976-30.402 34.428 8.471-2.408 30.238-5.412 35.218-5.582 3.655-3.608 18.111-23.179 22.762-29.885zm-42.975-34.692c.055 2.304.402 11.599.484 12.93 4.852-.094 9.677-.472 12.172-.387.667-1.37 2.074-1.889-1.746-12.449-3.161-.69-6.725-1.114-10.91-.094z" fill="#585858" fill-rule="nonzero"/><path d="M149.504 960.775c-2.616-.392-5.848-.184-7.032.024-1.176.208-1.528 2.912-1.528 2.912s-6.472-.096-7.344 1.16c-.872 1.256-1.048 19.624-.048 32.68 1 13.049 6.248 62.499 7.048 66.139 2.296 1.16 7.8 1.06 7.8 1.06s0 .45.616 1.72c6.68.13 8.656.15 8.728-2.83-2.544-22.91-4.352-57.14-8.24-102.865zM179.4 1066.4c2.904-.71 5.6-1.6 9.096-3.6 3.504-2-5.6-97.505-7.664-99.041-2.064-1.544-8.488-2.68-11.28-2.864-2.624.448-8.552 2.992-10.176 4.88-1.624 1.888 4.824 98.875 7.976 99.575 3.144.7 9.144.95 12.048 1.05zm20-4.5c.104-9.1-7.2-97.501-8.2-102.205 2.496-1.2 6.8-2.192 8.096-1.296 1.304.896 1.608 1.912 1.608 1.912s3.928-.28 6.536.56c2.616.832 10.96 92.799 8.416 94.839-2.544 2.03-7.856 4.07-10.04 6.25-2.544.44-3.216.54-6.416-.06zm-2-113.301c1.4-1.496-1.304-38.904-3.096-41.2-5.504 2.2-62.704 5.304-64.704 5.496.152 1.904 2.352 38.456 2.496 40.4 9.704.4 59.008-3.496 65.304-4.696zm-53.616-111.36c-20.44 1.232-23.784 4.36-25.6 7.92-1.824 3.568-1.384 11.64.144 22.328 9.744-3.048 26.688-5.448 29.816-5.816 3.128-.36 10.808-1 14.16-1.072-.4-12.904 28.608-9.984 34.28-10.272.072-1.6-.512-9.24-1.6-14.328-1.824 0-2.544 0-5.968.216-.216-2.032-1.304-8.432-2.256-11.928-14.104-13.888-40-21.528-55.344-18.176.072 2.832.224 8.432.512 11.488 5.6-.072 9.232.072 10.984.216.576 6.112.504 13.824.872 19.424zm0 0c6.976-.44 38.976-1.456 45.232-1.024m-65.816 4.512c-.44-3.488-1.312-18.984-1.6-22.184 4.072-.944 7.928-.584 10.328-.872m13.456 19.568c1.16 3.344 2.472 21.744 2.544 24.288m14.472-1.832l3.904 50.704m-18.904-48.6l3 38.128-8.28.528-7.016-.056-3.104-18.6 1.944-1-1.488-16.624m2.048 16.656l9.112-.344-1.184-17.776 2.472 35.232m-6.744-12.584l.624 11.056m49.616-46.112l3.904 58m-69.808 7.896l3.2 36.904 6.304-.104m14.096 0v7.304m23.704-9.008l.6 9.304m25.4-12.104l.8 9.504m-53.8-46.096l-.6-11.408m37.2 166.005l.696 9.19 1.304 4.61-1.496 6.3m24.992-24.4l.104 4.69c4.296.91 6.2 3.41 7.2 6.41-1.4 2.39-6.904 14-32.296 13.5-25.408-.5-29.2-4.1-31.304-9.3 1-3.81 3.096-4.4 6-5.4-.104-2.8-.2-5.5-.2-5.5m-4.4 9.6s16.304 4.9 32.304 4c16-.9 28.496-8 28.496-8" fill="none" stroke="#000" stroke-width="1.6" transform="matrix(1.14224,0,0,1.18068,-16.8224,-255.861) matrix(1,0,0,1,27.1151,282.286)"/><path d="M155.8 879.503c2.2-2.208 4.4-4.608 7.4-4.8.88 3.072 3.024 4.072 8.8 2.296.2 2.296-.048 5.2-.6 6.6-4.44-.824-7.504 2.176-7.8 4.248-3-.4-7.2-.8-8.4-1.6 3-2 3.8-4.344.6-6.744z" fill="#99504d" fill-rule="nonzero" stroke="#000" stroke-width=".8" transform="matrix(1.14224,0,0,1.18068,-16.8224,-255.861) matrix(1,0,0,1,27.1151,282.286)"/><path d="M399.368 1139.624c-66.25 6.14-125.857-.53-156.469-12.808-30.612-12.28-40.353-36.998-44.465-28.97-4.112 8.03 22.233 54.16 41.313 68.225 19.07 14.074 103.12-7.396 159.62-26.447zm-233.83-6.83c21.62-.859 45.69 23.935 49.034 53.84 3.353 29.913 21.93 76.823-19.492 91.617-16.484 5.903-26.582 5.962-32.065 18.159-3.29-12.988-7.447-45.887-9.74-65.458-3.811-32.512-9.367-97.288 12.262-98.157z" fill="#c62828" fill-rule="nonzero"/></svg>