<svg viewBox="0 0 2000 2000" xmlns="http://www.w3.org/2000/svg" fill-rule="evenodd" clip-rule="evenodd" stroke-linejoin="round" stroke-miterlimit="2"><path d="M984.247 1557.264l166.21-30.287c-18.36 51.96-67.906 89.2-126.15 89.2-73.86 0-133.73-59.876-133.73-133.736 0-3.29.122-6.555.352-9.79 0-.195 0-.394.046-.588h.177l150.428-27.269-81.05 81.05a21.873 21.873 0 00-1.702 3c-3.652 7.891-1.95 17.28 4.24 23.387a20.9 20.9 0 0010.795 5.673h.041c1.078.204 2.174.306 3.271.306a19.824 19.824 0 003.589-.335l3.483-.61z" fill="#fff" fill-rule="nonzero"/><path d="M1158.062 1482.44c0 3.391-.124 6.745-.37 10.061l-144.18 26.277 78.113-77.361.793-.793a20.947 20.947 0 005.544-18.271c-1.605-8.582-8.386-15.317-16.98-16.862a16.876 16.876 0 00-5.872.03l-5.075.916-171.818 31.35c18.377-51.9 67.9-89.077 126.09-89.077 73.849 0 133.755 59.906 133.755 133.73z" fill="#fff" fill-rule="nonzero"/></svg>