<svg viewBox="0 0 2000 2000" xmlns="http://www.w3.org/2000/svg" fill-rule="evenodd" clip-rule="evenodd" stroke-linejoin="round" stroke-miterlimit="2"><path d="M272.054 1385.603c0-103.812 42.56-198.048 154.828-264.992 102.92-61.374 187.004-91.285 382.578-91.285 237.958 0 374.552 84.163 422.743 138.305 58.78 66.043 93.845 119.59 91.367 223.371-2.688 112.676-47.34 162.286-90.646 209.345-36.625 39.788-211.455 121.804-408.277 129.36-237.827 9.12-400.321-74.062-456.935-123.157-44.066-38.215-95.658-108.246-95.658-220.947" fill="#c62828" fill-rule="nonzero"/><path d="M1772.08 1379.52c0-103.807-42.56-198.043-154.824-264.987-102.925-61.379-187.008-91.29-382.578-91.29-237.963 0-374.556 84.164-422.748 138.31-58.774 66.039-93.844 119.585-91.366 223.371 2.693 112.672 47.34 162.282 90.646 209.34 36.625 39.788 211.455 121.809 408.277 129.36 237.83 9.12 400.321-74.057 456.939-123.157 44.066-38.214 95.654-108.241 95.654-220.947" fill="#c62828" fill-rule="nonzero"/><path d="M1731.62 1382.216c0-130.282-57.437-248.555-208.918-332.571-138.886-77.026-252.342-114.57-516.246-114.57-321.099 0-505.413 105.633-570.445 173.588-79.308 82.877-126.628 150.085-123.288 280.333 3.635 141.406 63.88 203.677 122.322 262.734 49.416 49.94 285.328 152.873 550.917 162.352 320.916 11.45 540.183-92.95 616.576-154.571 59.466-47.963 129.081-135.846 129.081-277.295" fill="#900e0e" fill-rule="nonzero"/><path d="M1679.668 1399.577c0-136.58-53.65-260.57-195.143-348.646-129.729-80.75-235.705-120.108-482.21-120.108-299.928 0-472.09 110.739-532.835 181.979-74.08 86.883-118.279 157.34-115.16 293.883 3.396 148.241 59.668 213.522 114.258 275.434 46.158 52.353 266.516 160.263 514.595 170.2 299.757 12.003 504.568-97.442 575.924-162.043 55.546-50.282 120.571-142.413 120.571-290.699" fill="#900e0e" fill-rule="nonzero"/><path d="M1702.799 1381.28c0-135.652-55.276-258.796-201.069-346.276-133.66-80.201-242.853-119.292-496.835-119.292-309.031 0-486.42 109.985-548.999 180.739-76.332 86.298-121.877 156.273-118.659 291.888 3.497 147.238 61.48 212.07 117.72 273.558 47.562 51.995 274.607 159.178 530.213 169.042 308.856 11.926 519.878-96.779 593.399-160.938 57.232-49.937 124.23-141.443 124.23-288.72" fill="#c62828" fill-rule="nonzero"/></svg>