<svg viewBox="0 0 2000 2000" xmlns="http://www.w3.org/2000/svg" fill-rule="evenodd" clip-rule="evenodd" stroke-linejoin="round" stroke-miterlimit="2"><g fill="#1d1d1b" fill-rule="nonzero"><path d="M1075.086 799.757c21.91 5.946 149.29 72.457 230.315-27.89 0 0-62.9 145.396-230.315 27.89z"/><path d="M1285.041 797.168s9.548 14.964 34.38 10.669c0 0-12.081 13.778-38.571-2.708l4.191-7.961zm-46.384 34.185s6.58 16.485 31.779 16.91c0 0-14.447 11.274-37.387-9.876l5.608-7.034zm18.75-9.435s7.701 15.993 32.87 14.677c0 0-13.634 12.244-37.98-7.272l5.11-7.405zm13.856-9.403s9.548 14.965 34.38 10.67c0 0-12.082 13.777-38.572-2.708l4.192-7.962zm-56.733 23.162s5.053 19.315 30.185 21.338c0 0-15.468 12.053-36.435-13.61l6.25-7.728zm-245.481-35.92c-21.908 5.946-149.288 72.457-230.315-27.89 0 0 62.903 145.396 230.315 27.89z"/><path d="M759.094 797.168s-9.546 14.964-34.38 10.669c0 0 12.083 13.778 38.573-2.708l-4.193-7.961zm46.385 34.185s-6.578 16.485-31.778 16.91c0 0 14.445 11.274 37.386-9.876l-5.608-7.034zm-18.749-9.435s-7.703 15.993-32.871 14.677c0 0 13.635 12.244 37.978-7.272l-5.107-7.405zm-13.858-9.403s-9.546 14.965-34.38 10.67c0 0 12.084 13.777 38.574-2.708l-4.194-7.962zm56.735 23.162s-5.055 19.315-30.187 21.338c0 0 15.47 12.053 36.437-13.61l-6.25-7.728z"/></g></svg>