<svg viewBox="0 0 2000 2000" xmlns="http://www.w3.org/2000/svg" fill-rule="evenodd" clip-rule="evenodd" stroke-miterlimit="10"><path d="M923.63 748.752c0 90.628-55.838 164.098-124.717 164.098-68.879 0-124.717-73.47-124.717-164.098 0-90.632 55.838-164.098 124.717-164.098 68.879 0 124.717 73.466 124.717 164.098" fill="#b5a396" fill-rule="nonzero"/><ellipse cx="-28.683" rx="37.74" ry="28.683" fill="none" stroke="#000" stroke-width=".06" transform="matrix(0,-4.34812,-4.34812,0,798.913,624.035)"/><path d="M674.197 748.752c0-90.632 55.839-164.098 124.717-164.098 68.879 0 124.717 73.466 124.717 164.098" fill="#565656" fill-rule="nonzero" stroke="#000" stroke-width=".261"/><path d="M913.943 748.753c0 83.592-51.5 151.353-115.03 151.353-63.526 0-115.03-67.76-115.03-151.353s51.504-151.354 115.03-151.354c63.53 0 115.03 67.76 115.03 151.354" fill="#070707" fill-rule="nonzero"/><ellipse cx="-26.455" rx="34.809" ry="26.455" fill="none" stroke="#000" stroke-width=".06" transform="matrix(0,-4.34812,-4.34812,0,798.913,633.723)"/><path d="M850.977 748.75c0 37.838-23.31 68.514-52.068 68.514-28.75 0-52.06-30.676-52.06-68.514 0-37.837 23.31-68.509 52.06-68.509 28.758 0 52.068 30.672 52.068 68.51" fill="#c62828" fill-rule="nonzero"/><ellipse cx="-11.974" rx="15.756" ry="11.974" fill="none" stroke="#000" stroke-width=".06" transform="matrix(0,-4.34812,-4.34812,0,798.913,696.686)"/><path d="M829.186 748.755c0 21.997-13.553 39.828-30.272 39.828-16.723 0-30.272-17.831-30.272-39.828 0-22.002 13.55-39.834 30.272-39.834 16.719 0 30.272 17.832 30.272 39.834" fill="#8e1a1a" fill-rule="nonzero"/><ellipse cx="-6.962" rx="9.16" ry="6.962" fill="none" stroke="#000" stroke-width=".06" transform="matrix(0,-4.34812,-4.34812,0,798.914,718.483)"/></svg>