<svg viewBox="0 0 2000 2000" xmlns="http://www.w3.org/2000/svg" fill-rule="evenodd" clip-rule="evenodd" stroke-miterlimit="10"><path d="M927.27 814.227c0 56.015-30.271 82.606-72.26 82.606-41.988 0-72.259-26.59-72.259-82.606 0-56.015 34.04-101.424 76.028-101.424 41.988 0 68.49 45.409 68.49 101.424" fill="#fff" fill-rule="nonzero"/><path d="M-42.904-32.886c-29.819 0-43.974 15.875-43.974 37.895 0 22.02 14.155 37.895 43.974 37.895 29.819 0 53.992-17.851 53.992-39.871 0-22.02-24.173-35.919-53.992-35.919z" fill="none" stroke="#080606" stroke-width=".53" transform="matrix(1,0,0,1,0,-2) matrix(0.400756,0,0,0.394804,940.301,956.473) matrix(4.4234,0,0,4.4234,-667.704,-1247.35) matrix(0,-1.07566,-1.07566,0,108.223,155.532)"/><path d="M905.957 790.178c0 34.65-22.81 62.737-50.946 62.737-28.137 0-50.947-28.088-50.947-62.737s22.81-62.736 50.947-62.736c28.137 0 50.946 28.087 50.946 62.736" fill="#463a3a" fill-rule="nonzero"/><path d="M894.367 773.268c0 19.153-11.964 34.677-26.72 34.677-14.756 0-26.717-15.524-26.717-34.677 0-19.152 11.961-34.676 26.716-34.676 14.757 0 26.72 15.524 26.72 34.676" fill="#44bed2" fill-rule="nonzero"/><path d="M838.61 842.958c0 10.68-7.03 19.338-15.703 19.338-8.674 0-15.707-8.658-15.707-19.338 0-10.68 7.033-19.337 15.707-19.337 8.672 0 15.703 8.656 15.703 19.337" fill="#f3f3f3" fill-rule="nonzero"/><path d="M906.692 751.162c0 10.68-7.03 19.337-15.702 19.337-8.675 0-15.707-8.658-15.707-19.337 0-10.681 7.032-19.337 15.707-19.337 8.672 0 15.702 8.656 15.702 19.337m196.731 61.298c-1.399 55.999 28.424 83.32 70.714 84.346 42.288 1.025 73.44-24.818 74.84-80.816 1.399-55.999-31.75-102.225-74.038-103.25-42.29-1.026-70.117 43.722-71.516 99.72" fill="#fff" fill-rule="nonzero"/><path d="M43.187-33.169c29.819 0 43.974 15.993 43.974 38.178 0 22.184-14.155 38.178-43.974 38.178-29.819 0-53.992-17.984-53.992-40.168 0-22.185 24.173-36.188 53.992-36.188z" fill="none" stroke="#080606" stroke-width=".53" transform="matrix(1,0,0,1,0,-2) matrix(0.400756,0,0,0.394804,940.301,956.473) matrix(4.42206,0.108832,-0.108832,4.42206,-702.153,-1279.39) matrix(0,1.07566,1.07566,0,291.473,155.227)"/><path d="M1125.486 788.94c-.865 34.638 21.408 63.274 49.746 63.96 28.338.688 52.014-26.834 52.88-61.473.865-34.638-21.408-63.274-49.746-63.961-28.339-.687-52.014 26.835-52.88 61.473" fill="#463a3a" fill-rule="nonzero"/><path d="M1137.583 772.32c-.479 19.145 11.183 34.959 26.046 35.319 14.863.36 27.3-14.869 27.779-34.014.478-19.148-11.184-34.96-26.047-35.32-14.863-.36-27.3 14.867-27.778 34.015" fill="#44bed2" fill-rule="nonzero"/><path d="M1192 843.349c-.267 10.674 6.6 19.501 15.332 19.713 8.739.212 16.037-8.272 16.303-18.946.267-10.68-6.598-19.503-15.337-19.715-8.732-.212-16.032 8.268-16.299 18.948" fill="#f3f3f3" fill-rule="nonzero"/><path d="M1125.721 749.918c-.266 10.674 6.601 19.5 15.334 19.713 8.738.211 16.036-8.272 16.302-18.946.267-10.68-6.598-19.504-15.337-19.715-8.732-.212-16.032 8.268-16.299 18.948" fill="#fff" fill-rule="nonzero"/></svg>