<svg viewBox="0 0 2000 2000" xmlns="http://www.w3.org/2000/svg" fill-rule="evenodd" clip-rule="evenodd" stroke-linejoin="round" stroke-miterlimit="2"><path d="M1036.175 434.058c-228.247 0-255.221 35.734-255.221 35.734s-110.932 26.483-95.468 375.442c14.524 327.772 290.518 460.86 342.404 460.86l7.259.306c51.873 0 327.882-133.11 342.404-460.86 15.464-348.957-95.468-375.443-95.468-375.443s-26.367-34.759-245.89-35.734v-.305h-.02z" fill="#f8edd9" fill-rule="nonzero"/><path d="M1110.597 608.084s64.558-49.863 116.644-47.056c52.085 2.81 87.875 50.042 95.292 78.397 7.416 28.355-19.729-96.656-211.936-31.34z" fill="#969696" fill-rule="nonzero"/><path d="M1083.901 658.295s61.212-61.58 132.279-71.512c71.068-9.932 106.343 52.642 106.343 52.642s-30.088-41.22-106.861-21.851c-76.774 19.368-108.936 50.655-108.936 50.655s-19.193 11.919-22.825-9.932v-.002zm27.487 96.829s33.2-31.287 76.773-32.28c43.574-.994 72.105 20.361 77.812 30.792 5.707 10.428-41.499 19.864-81.443 18.872-39.942-.994-56.024-6.954-73.144-17.382l.002-.002zm-28.508 201.135c0-4.47 2.593-10.924 13.489-13.905 10.892-2.979 22.303-.995 12.967 6.953-9.338 7.946-18.156 9.434-26.456 6.952z" fill-rule="nonzero"/><path d="M873.242 1038.623s10.997 19.322 48.413 36.88c37.415 17.558 108.948 16.492 108.948 16.492s73.369 1.371 110.782-16.187c37.415-17.557 48.412-36.88 48.412-36.88l-14.675 3.514s-17.146 21.02-77.684 32.68c-35.542 6.844-66.437 4.581-66.437 4.581s-29.858 1.957-65.4-4.887c-60.536-11.66-77.684-32.68-77.684-32.68l-14.675-3.513z" fill="#fff" fill-opacity=".85" fill-rule="nonzero"/><path d="M771.153 938.08l62.77 90.403s12.431 13.896 30.067 14.89c17.638.992 120.352 0 120.352 0l40.994-51.615h6.7l5.742.23 40.914 51.69s102.716.993 120.352 0c17.638-.994 30.147-14.89 30.147-14.89l62.769-90.402-30.147 2.519s-13.95 15.376-25.361 28.785c-11.414 13.409-15.1 38.712-42.591 39.704-27.493.992-74.841-2.732-83.585-11.911-11.388-11.953-33.1-35.277-33.1-35.277-15.563 10.428-45.62 9.162-45.62 9.162s-30.14.96-45.7-9.468c0 0-21.636 23.324-33.021 35.277-8.746 9.18-56.172 12.903-83.664 11.911-27.492-.994-31.099-26.295-42.51-39.704-11.413-13.409-25.443-28.785-25.443-28.785l-30.067-2.519h.002zm178.425 109.413s-7.659 3.027-5.663 4.351c13.754 9.133 90.205 8.4 90.205 8.4s71.347.96 85.101-8.17c1.999-1.327-5.742-4.276-5.742-4.276l-80.395-.305h-83.506zm86.52 61.01v.075h-47.695s23.45 15.427 23.45 32.985-10.825 24.734-10.291 72.308c.732 65.061 30.12 92.207 30.348 92.404 0 0 28.817-26.783 29.55-92.098.535-47.575-10.288-54.75-10.288-72.308 0-17.558 23.45-33.061 23.45-33.061l-38.524-.305z" fill-rule="nonzero"/><path d="M1340.22 901.65s-16.873 77.256-52.086 125.714c-35.213 48.459-119.579 140.463-119.579 140.463s48.418-63.91 62.359-87.79c13.937-23.878 21.275-37.22 21.275-37.22s-24.21 24.579-53.553 37.22c-29.346 12.643-52.086 12.643-52.086 12.643s77.028-15.452 108.574-62.506c31.545-47.056 52.085-96.218 52.085-96.218s-41.083 16.856-100.506-2.81c-59.423-19.664-52.82-29.498-52.82-29.498s5.867-11.237 9.535-9.13c3.67 2.108 37.415 28.794 79.23 34.413 41.816 5.62 75.561 5.62 97.572-25.283v.002zm-17.687-262.218s-36.601-61.54-127.57-27.128c-90.968 34.412-105.641 67.421-111.509 127.82 0 0 92.278-143.797 239.079-100.694v.002zm-331.966 77.893s6.646 74.456-27.835 123.618c-34.48 49.162-45.437 56.153-45.46 68.873-.023 13.077 16.11 37.185 16.11 37.185s-11.71-27.172-7.338-36.499c7.662-16.333 33.756-39.384 40.358-43.598 6.6-4.215 9.538-10.519 11.006-.687 1.467 9.832-3.234 37.899-3.668 51.31-1.388 42.643 58.62 41.996 58.62 41.996s58.335.877 56.947-41.766c-.437-13.412-5.138-41.403-3.67-51.235 1.467-9.831 4.405-3.528 11.007.687 6.603 4.215 32.694 27.263 40.356 43.599 4.372 9.324-7.338 36.498-7.338 36.498s16.133-24.184 16.11-37.26c-.023-12.72-10.982-19.633-45.46-68.795-34.48-49.162-27.835-123.618-27.835-123.618-6.602 22.474-8.103 110.263-5.9 141.865 2.2 31.604 10.303 58.322 5.9 73.07-4.402 14.748-40.039 15.12-40.039 15.12s-37.471-.677-41.871-15.425c-4.403-14.748 3.7-41.466 5.903-73.07 2.2-31.605.7-119.391-5.903-141.865v-.003z" fill="#969696" fill-rule="nonzero"/><path d="M1196.25 705.206c-61.991 1.242-94.97 38.036-95.229 51.692.779 7.45 14.308 18.586 29.35 26.036 15.043 7.447 57.29 12.673 82.708 12.673 25.417 0 59.91-15.65 71.063-19.622 11.154-3.973 19.453.782 32.94 4.505 13.488 3.724 40.755 28.023 40.755 28.023s-13.812-16.336-23.926-23.287c-10.115-6.954-25.882-13.725-24.326-14.966 1.557-1.241 9.326.8 18.662 4.276 9.339 3.477 22.013 14.125 22.013 14.125s-10.602-11.89-17.866-17.103c-7.26-5.215-13.478-7.255-13.478-7.255s7.274-5.417 13.241-12.368c5.965-6.954 11.883-27.563 11.883-27.563s-8.251 13.854-12.922 21.303c-4.668 7.448-12.495 14.201-22.092 15.193-9.596.994-16.821-6.5-29.27-21.15-12.45-14.65-21.516-35.753-83.507-34.512zm4.545 8.476c64.604-1.231 75.849 47.645 75.849 47.645s-19.703 17.827-85.1 19.623c-27.407.752-80.472-4.748-76.807-26.266 0 0 9.387-36.056 79.677-40.774 2.198-.147 4.298-.189 6.38-.23v.002z" fill="#646464" fill-rule="nonzero"/><path d="M952.462 607.79s-64.558-49.863-116.643-47.055c-52.086 2.81-87.875 50.042-95.292 78.397-7.417 28.354 19.728-96.656 211.935-31.341z" fill="#969696" fill-rule="nonzero"/><path d="M979.133 658.001s-61.212-61.579-132.279-71.511c-71.068-9.932-106.343 52.642-106.343 52.642s30.088-41.22 106.862-21.851c76.773 19.368 108.935 50.655 108.935 50.655s19.193 11.918 22.825-9.932V658zm-27.487 96.854s-33.2-31.287-76.773-32.279c-43.574-.994-72.105 20.36-77.812 30.791-5.707 10.428 41.499 19.864 81.443 18.872 39.942-.994 56.024-6.953 73.144-17.382l-.002-.002zm28.534 201.11c0-4.468-2.594-10.924-13.49-13.905-10.892-2.978-22.303-.994-12.967 6.954 9.339 7.946 18.157 9.434 26.456 6.951z" fill-rule="nonzero"/><path d="M722.84 901.357s16.873 77.256 52.085 125.714c35.213 48.459 119.58 140.462 119.58 140.462s-48.419-63.91-62.359-87.788c-13.938-23.88-21.275-37.222-21.275-37.222s24.21 24.58 53.553 37.222c29.345 12.641 52.085 12.641 52.085 12.641s-77.028-15.451-108.573-62.505c-31.546-47.056-52.086-96.218-52.086-96.218s41.083 16.856 100.506-2.81c59.423-19.664 52.82-29.498 52.82-29.498s-5.867-11.237-9.537-9.131c-3.667 2.108-37.415 28.794-79.23 34.414-41.816 5.62-75.561 5.62-97.572-25.283l.003.002zm17.687-262.218s36.601-61.54 127.57-27.128c90.968 34.411 105.64 67.42 111.508 127.82 0 0-92.278-143.797-239.078-100.695v.003z" fill="#969696" fill-rule="nonzero"/><path d="M866.785 704.913c61.99 1.241 94.97 38.036 95.228 51.691-.779 7.45-14.308 18.587-29.35 26.037-15.043 7.447-57.29 12.673-82.708 12.673-25.417 0-59.91-15.65-71.063-19.622-11.154-3.973-19.453.782-32.94 4.505-13.488 3.724-40.755 28.023-40.755 28.023s13.812-16.336 23.927-23.288c10.114-6.953 25.881-13.724 24.325-14.965-1.557-1.241-9.326.799-18.662 4.276-9.339 3.477-22.013 14.125-22.013 14.125s10.602-11.89 17.866-17.104c7.26-5.214 13.478-7.254 13.478-7.254s-7.274-5.417-13.241-12.368c-5.965-6.954-11.883-27.563-11.883-27.563s8.251 13.853 12.922 21.303c4.668 7.447 12.495 14.2 22.092 15.193 9.596.994 16.821-6.5 29.27-21.15 12.45-14.65 21.516-35.753 83.507-34.512zm-4.546 8.476c-64.604-1.231-75.849 47.645-75.849 47.645s19.703 17.827 85.1 19.623c27.407.752 80.472-4.748 76.807-26.266 0 0-9.387-36.057-79.677-40.775-2.198-.146-4.298-.188-6.38-.23v.003z" fill="#646464" fill-rule="nonzero"/></svg>