<svg viewBox="0 0 2000 2000" xmlns="http://www.w3.org/2000/svg" fill-rule="evenodd" clip-rule="evenodd" stroke-miterlimit="10"><path d="M1011.514 1166.398c.215.092 2.099 67.756 2.312 67.847l-4.266 37.749c411.417-205.247 499.083-177.502 499.083-177.502 0-592.018-460.511-552.827-497.13-548.775-36.617-4.052-497.128-43.243-497.128 548.775 0 0 72.539-4.411 495.175 177.502" fill="#080606" fill-rule="nonzero"/><path d="M1008.788 1061.214l-379.989-22.178c-3.63-.21-7.272.177-10.704 1.187-15.781 4.654-33.19 18.917-29.333 21.154l410.315 301.459c2.26 1.313 38.968 1.313 41.23 0l382.796-295.393c17.51-14.126-26.297-29.322-50.61-28.515-30.428 1.008 10.206 41.988 5.9 41.5l-367.771-19.214a8.09 8.09 0 00-1.834 0" fill="#080606" fill-rule="nonzero" opacity=".78"/><path d="M1247.248 1030.64a23.322 23.322 0 01-1.778 2.121l-80.51 95.93 66.61-102.955c.424-.761.915-1.522 1.472-2.276 4.345-5.876 11.05-9.03 14.972-7.046 3.923 1.982 3.581 8.351-.766 14.226m-60.143-36.78a20.416 20.416 0 011.186-3.069c3.838-7.982 12.167-12.736 18.605-10.622 6.437 2.116 8.545 10.3 4.705 18.282a21.582 21.582 0 01-1.687 2.904l-76.387 131.357 53.578-138.852zm-63.122-29.886c.16-1.582.455-3.197.9-4.826 3.478-12.705 14.6-21.448 24.848-19.531 10.245 1.917 15.73 13.766 12.255 26.47a31.096 31.096 0 01-1.704 4.677l-77.007 211.634 40.708-218.424zM1050.6 1185.8l-5.366-250.082a35.978 35.978 0 01-.351-8.058c.033-.459.101-.904.15-1.356l-.012-.606.079.004c1.894-15.294 13.006-26.936 25.579-26.334 12.573.602 21.985 13.228 21.728 28.6l.081.003-.1.6c-.012.456-.004.903-.037 1.362a36.57 36.57 0 01-1.476 7.971L1050.6 1185.8zm-65.283-250.082l-5.293 250.082-39.725-247.896a36.933 36.933 0 01-1.455-7.97c-.033-.46-.025-.907-.042-1.362l-.095-.6.079-.004c-.255-15.372 9.031-27.998 21.432-28.6 12.404-.602 23.366 11.04 25.231 26.334l.079-.004-.01.606c.047.452.116.897.147 1.356.192 2.782.05 5.48-.348 8.058m-113.48 35.046a31.248 31.248 0 01-1.68-4.678c-3.43-12.703 1.984-24.552 12.087-26.47 10.106-1.916 21.079 6.827 24.509 19.532.44 1.63.728 3.244.888 4.826l40.155 218.424-75.96-211.634zm-48.956 30.591a21.46 21.46 0 01-1.664-2.904c-3.788-7.982-1.71-16.166 4.639-18.282 6.35-2.114 14.566 2.64 18.352 10.622a20.525 20.525 0 011.17 3.069l52.848 138.852-75.345-131.357zm-35.071 31.406a23.118 23.118 0 01-1.756-2.12c-4.287-5.876-4.624-12.245-.755-14.227 3.87-1.983 10.48 1.17 14.767 7.046.55.754 1.033 1.515 1.453 2.276l65.703 102.955-79.412-95.93zm696.221-100.39c-205.201 87.716-319.201-52.63-319.201-52.63-61.43-61.445-127.8-65.454-151.003-64.736-23.203-.718-89.573 3.29-151.001 64.736 0 0-114.002 140.346-319.204 52.63 0 0-76 76.02 68.4 146.194 22.553 9.465-84.15-50.693-65.357-45.084 4.486 13.258 141.374 93.15 156.892 102.716l261.853 161.427c28.725 17.707 68.11 17.707 96.833 0l261.855-161.427c15.517-9.566 68.982-48.167 91.533-57.632 144.4-70.174 68.4-146.194 68.4-146.194" fill="#2f2e2e" fill-rule="nonzero"/><path d="M1486.459 898.343s-24.556 173.965-64.462 201.476c68.925-41.265 164.04-126.948 164.04-126.948l-99.578-74.528z" fill="#080606" fill-rule="nonzero" opacity=".6"/><path d="M1579.889 983.501l-99.58-74.528" fill="none" opacity=".6"/><path d="M558.018 926.357s15.308 157.822 56.13 184.125c-71.437-52.608-153.08-109.598-153.08-109.598l96.95-74.527z" fill="#080606" fill-rule="nonzero" opacity=".6"/><path d="M1426.969 624.352l31.243-229.98a1.73 1.73 0 01-.242-.598c-32.233-189.598-275.744-200.12-290.811-200.955a2.29 2.29 0 01-1.53-.683c-.685-.696-17.372-12.206-32.912-17.024 0 0-43.764-12.951-109.487-12.951-65.725 0-109.487 12.951-109.487 12.951-15.54 4.818-32.225 16.328-32.912 17.024-.393.4-.918.65-1.53.683-15.067.835-258.578 11.357-290.811 200.955a1.78 1.78 0 01-.24.597l31.244 229.981c-4.178 40.478-163.84 105.096-225.343 370.55-.108.468 26.822 22.865 27.101 23.279 5.775 8.546 93.76 117.75 134.96 124.62 1.284.213-21.61-16.49-21.442-17.588 4.873-31.577 25.2-427.652 253.873-456.839 4.648-.437 84.46-17.872 148.066 53.42 0 0 31.71 32.95 67.743 34.044h37.558c36.03-1.095 67.74-34.045 67.74-34.045 63.608-71.291 143.419-53.856 148.067-53.419 228.674 29.187 249 425.262 253.871 456.84.17 1.098 1.377 1.888 2.659 1.676 41.202-6.87 105.086-100.163 110.86-108.71.28-.413 27.212-22.81 27.102-23.278-61.503-265.454-221.167-330.072-225.34-370.55" fill="#2f2e2e" fill-rule="nonzero"/><path d="M1182.848 202.005s234.73 15.937 262.898 191.252l-32.86 235.08s-113.243-168.2-245.578-167.59c-133.22 1.22 442.752-155.148 15.54-258.742" fill="#080606" fill-rule="nonzero" opacity=".59"/><path d="M1182.847 202.01s234.73 15.936 262.897 191.25l-32.86 235.081s47.83-215.768-84.503-215.158c-133.22 1.22 281.678-107.58-145.534-211.174" fill="#080606" fill-rule="nonzero"/><path d="M1112.43 700.98s-87.006 90.972-165.49 9.237a160.004 160.004 0 01-5.403-5.923 176.535 176.535 0 01-2.81-3.314s84.733 45.478 173.703 0" fill="#080606" fill-rule="nonzero" opacity=".59"/><path d="M0-4.979c0-88.004-8.026-159.345-17.927-159.345-9.9 0-17.926 71.341-17.926 159.345v37.844c0 88.004 9.022 126.48 18.922 126.48C-7.03 159.345 0 120.869 0 32.865V-4.979z" fill="#080606" fill-rule="nonzero" stroke="#201f1d" stroke-width="2.14" transform="matrix(0.496795,0,0,0.470958,-481.996,-535.544) matrix(4.2299,0,0,3.78694,3092.41,2089.06)"/><path d="M1041.262 444.432c0-156.954-12.073-284.19-26.967-284.19-14.893 0-26.967 127.236-26.967 284.19v67.495c0 156.954 13.572 225.576 28.465 225.576 14.895 0 25.469-68.622 25.469-225.576v-67.495z" fill="#2f2e2e" fill-rule="nonzero"/><path d="M1028.51 167.192s76.015-4.846 130.427 27.125c0 0-100.453-21.313-96.267 10.658 0 0-29.3 117.23-12.558 223.8v78.152c0-39.076-21.602-339.735-21.602-339.735m-407.42 458.74c-5.059 4.199 125.932-140.653 359.96 21.315 0 0-171.61-177.62-359.96-21.315m788.84 0c5 4.199-124.466-140.653-355.775 21.315 0 0 169.614-177.62 355.774-21.315" fill="#080606" fill-rule="nonzero" opacity=".59"/><path d="M1020.813 411.013s12.557-6.59 16.742-117.229c4.186-110.639 0 337.476 0 337.476l-8.371 99.466-8.37-319.713z" fill="#080606" fill-rule="nonzero" opacity=".2"/><path d="M1158.937 581.527s-113.742-2.019-109.19-88.042c4.917 58.855-8.007 166.195-8.007 166.195s63.208-61.112 117.197-78.153m-284.619 0s113.742-2.019 109.19-88.042c-4.915 58.855 8.007 166.195 8.007 166.195s-63.208-61.112-117.197-78.153" fill="#080606" fill-rule="nonzero" opacity=".59"/><path d="M0 24.897h-19.342a2.778 2.778 0 01-2.778-2.778V2.777A2.777 2.777 0 01-19.342 0H0a2.777 2.777 0 012.777 2.777v19.342A2.777 2.777 0 010 24.897z" fill="#201f1d" fill-rule="nonzero" stroke="#080606" stroke-width="1.07" transform="matrix(0.496795,0,0,0.470958,-481.996,-535.544) matrix(4.2299,0,0,3.78694,3061.7,2741.52)"/><path d="M0 24.897h-19.342a2.778 2.778 0 01-2.778-2.778V2.778A2.778 2.778 0 01-19.342 0H0a2.777 2.777 0 012.777 2.778v19.341A2.777 2.777 0 010 24.897z" fill="#201f1d" fill-rule="nonzero" stroke="#080606" stroke-width=".88" transform="matrix(0.496795,0,0,0.470958,-481.996,-535.544) matrix(4.2299,0,0,5.52807,3061.7,2835.8)"/><path d="M1011.446 771.49s-8.247 0-8.247 31.27c0 0 0 15.634 32.983 3.907 0 0-32.984 15.635-45.352 3.91-4.123-3.911-16.493-42.997 20.616-39.087m.001-50.812s-8.247 0-8.245 31.269c0 0-.002 15.635 32.982 3.908 0 0-32.984 19.542-45.35 3.908-4.126-3.91-16.494-42.994 20.613-39.085" fill="#080606" fill-rule="nonzero" opacity=".74"/></svg>