<svg viewBox="0 0 2000 2000" xmlns="http://www.w3.org/2000/svg" fill-rule="evenodd" clip-rule="evenodd" stroke-linejoin="round" stroke-miterlimit="2"><path d="M787.339 676.083c50.35-47.257 114.657-39.595 152.878-7.06 38.221 32.536 38.221 97.612 0 162.689-26.752 48.808-95.55 97.612-152.878 130.147-57.329-32.535-126.121-81.339-152.873-130.147-38.221-65.077-38.221-130.153 0-162.689 38.215-32.535 102.528-40.197 152.873 7.06z" fill="#ee3093"/><path fill="#e1bbd8" d="M686.44 639.394l-28.432 23.301 220.474 236.98 28.432-23.3zm-51.49 40.608l-17.89 14.661 222.183 238.82 17.89-14.662z"/><path d="M869.068 631.99c41.44.475 83.05 21.741 100.526 57.193 23.527 47.722 5.325 105.157-19.37 147.542-3.525 6.347-4.343 7.47-6.635 10.91-34.642 52.094-91.566 89.648-147.646 121.775-1.538.879-7.491 5.589-19.959-1.582-57.377-33.34-115.252-71.717-148.022-125.084-38.172-62.16-55.725-145.5 9.281-189.508 43.503-29.448 106.931-26.38 149.725 8 0 0 40.021-29.484 82.1-29.246zm-1.342 21.286c-27.118.157-53.09 12.341-72.388 30.353 0 0-9.843 5.144-20.401-3.957-38.527-32.814-103.882-38.216-140.237 4.629-31.138 36.705-16.717 96.945 9.767 142.397 3.225 5.807 3.863 6.651 5.866 9.668 31.919 48 84.042 82.244 137.006 113.02 55.992-32.535 113.964-70.59 142.871-122.688 29.633-50.85 45.33-117.336-1.724-153.101-16.996-12.912-38.559-20.326-60.76-20.32z" fill="#253258"/><path d="M1266.105 676.083c50.35-47.257 114.658-39.595 152.879-7.06 38.22 32.536 38.22 97.612 0 162.689-26.752 48.808-95.55 97.612-152.879 130.147-57.329-32.535-126.12-81.339-152.873-130.147-38.22-65.077-38.22-130.153 0-162.689 38.216-32.535 102.528-40.197 152.873 7.06z" fill="#ee3093"/><path fill="#e1bbd8" d="M1165.207 639.394l-28.432 23.301 220.473 236.98 28.432-23.3zM1113.716 680l-17.89 14.662 219.322 235.743 17.89-14.661z"/><path d="M1347.834 631.99c41.44.475 83.05 21.741 100.526 57.193 23.527 47.722 5.325 105.157-19.37 147.542-3.524 6.347-4.343 7.47-6.635 10.91-34.641 52.094-91.566 89.648-147.645 121.775-1.539.879-7.492 5.589-19.96-1.582-57.377-33.34-115.251-71.717-148.022-125.084-38.172-62.16-55.724-145.5 9.281-189.508 43.503-29.448 106.932-26.38 149.725 8 0 0 40.022-29.484 82.1-29.246zm-1.342 21.286c-27.118.157-53.09 12.341-72.388 30.353 0 0-9.843 5.144-20.4-3.957-38.527-32.814-103.882-38.216-140.237 4.629-31.139 36.705-16.718 96.945 9.766 142.397 3.225 5.807 3.863 6.651 5.866 9.668 31.919 48 84.042 82.244 137.006 113.02 55.992-32.535 113.965-70.59 142.872-122.688 29.633-50.85 45.33-117.336-1.724-153.101-16.997-12.912-38.56-20.326-60.761-20.32z" fill="#253258"/><path d="M1028.138 685.265c22.626.272 44.667 5.89 65.104 15.425 11.08 5.169 7.662 27.144-11.908 18.228-34.87-15.63-76.005-15.447-111.252 1.261 0 0-5.71 2.04-10.03.09-8.118-3.668-8.42-15.341 2.883-20.528 19.748-8.915 41.24-14.258 63.083-14.48 1.065 0 1.06 0 2.12.004z" fill="#253258"/></svg>