<svg viewBox="0 0 2000 2000" xmlns="http://www.w3.org/2000/svg" fill-rule="evenodd" clip-rule="evenodd" stroke-linejoin="round" stroke-miterlimit="2"><path d="M981.242 686.881c-31.69-26.626-68.06-40.704-98.323-48.819-29.505-7.913-78.478-6.944-112.284 3.56-20.24 6.29-61.482 33.254-88.243 67.642-43.096 55.377-62.776 33.52-70.057-3.527-1.883-9.575-2.72-36.31-1.394-59.497 10.707-114.786-54.543-146.614 65.856-305.327 116.616-153.724 211.9-113.961 329.723-137.022 120.936 1.124 243.786-.259 357.366 118.01 91.396 95.16 91.435 218.961 94.34 334.154.3 88.695-17.577 122.776-80.346 41.78-17.725-22.871-57.214-40.089-73.563-46.97-27.023-11.37-40.265-15.763-88.385-15.74-44.689.021-70.559 7.705-90.355 16.032-29.527 12.42-52.986 26.01-82.383 51.101-12.518 10.684-21.286 24.44-22.11 24.309-.825-.13-24.078-26.436-39.848-39.686h.006z" fill-opacity=".98"/><path d="M644.622 623.205c0 30.306-24.036 55.244-53.26 55.244-29.205 0-53.242-24.938-53.242-55.244s24.037-55.244 53.243-55.244c29.223 0 53.259 24.938 53.259 55.244z" fill-opacity=".98"/><path d="M638.583 529.256c0 30.306-23.838 55.244-52.819 55.244-28.965 0-52.803-24.938-52.803-55.244s23.838-55.244 52.803-55.244c28.981 0 52.819 24.938 52.819 55.244z" fill-opacity=".98"/><path d="M658.445 434.906c0 30.306-23.837 55.244-52.818 55.244-28.965 0-52.803-24.938-52.803-55.244s23.838-55.244 52.803-55.244c28.981 0 52.818 24.938 52.818 55.244z" fill-opacity=".98"/><path d="M709.156 342.333c0 30.306-23.838 55.244-52.819 55.244-28.965 0-52.802-24.938-52.802-55.244s23.837-55.244 52.802-55.244c28.981 0 52.819 24.938 52.819 55.244z" fill-opacity=".98"/><path d="M779.73 265.915c0 30.306-23.838 55.244-52.82 55.244-28.965 0-52.802-24.938-52.802-55.244s23.837-55.244 52.802-55.244c28.982 0 52.82 24.938 52.82 55.244z" fill-opacity=".98"/><path d="M884.41 224.982c0 39.34-26.775 71.713-59.327 71.713-32.533 0-59.307-32.373-59.307-71.713 0-39.341 26.774-71.714 59.307-71.714 32.552 0 59.326 32.373 59.326 71.714z" fill-opacity=".98"/><path d="M987.485 193.431c0 39.34-26.774 71.714-59.326 71.714-32.533 0-59.307-32.373-59.307-71.714 0-39.34 26.774-71.713 59.307-71.713 32.552 0 59.326 32.373 59.326 71.713z" fill-opacity=".98"/><path d="M1098.928 181.985c0 39.606-26.558 71.713-59.326 71.713-32.75 0-59.308-32.107-59.308-71.713 0-39.606 26.558-71.713 59.308-71.713 32.768 0 59.326 32.107 59.326 71.713z" fill-opacity=".98"/><path d="M1212.296 196.298c0 39.34-26.774 71.713-59.325 71.713-32.534 0-59.308-32.372-59.308-71.713 0-39.34 26.774-71.713 59.308-71.713 32.551 0 59.325 32.373 59.325 71.713z" fill-opacity=".98"/><path d="M1322.144 235.89c0 39.34-26.774 71.714-59.326 71.714-32.534 0-59.308-32.373-59.308-71.714 0-39.34 26.774-71.713 59.308-71.713 32.552 0 59.326 32.373 59.326 71.713z" fill-opacity=".98"/><path d="M1409.17 281.827c0 30.305-23.837 55.244-52.818 55.244-28.965 0-52.803-24.939-52.803-55.244 0-30.306 23.838-55.244 52.803-55.244 28.98 0 52.818 24.938 52.818 55.244z" fill-opacity=".98"/><path d="M1473.574 360.237c0 30.306-23.838 55.244-52.819 55.244-28.965 0-52.802-24.938-52.802-55.244s23.837-55.244 52.802-55.244c28.981 0 52.819 24.938 52.819 55.244z" fill-opacity=".98"/><path d="M1504.271 451.032c0 30.306-23.837 55.244-52.819 55.244-28.965 0-52.802-24.938-52.802-55.244s23.837-55.244 52.802-55.244c28.982 0 52.82 24.938 52.82 55.244z" fill-opacity=".98"/><path d="M1523.231 538.1c0 30.306-23.837 55.245-52.819 55.245-28.965 0-52.802-24.939-52.802-55.244 0-30.306 23.837-55.244 52.802-55.244 28.982 0 52.82 24.938 52.82 55.244z" fill-opacity=".98"/><path d="M1519.339 625.416c0 30.305-24.036 55.244-53.26 55.244-29.205 0-53.242-24.939-53.242-55.244 0-30.306 24.037-55.245 53.243-55.245 29.223 0 53.259 24.939 53.259 55.245zM682.391 688.41c0 30.306-24.036 55.244-53.259 55.244-29.206 0-53.242-24.938-53.242-55.244 0-30.305 24.036-55.244 53.242-55.244 29.223 0 53.26 24.939 53.26 55.244z" fill-opacity=".98"/><path d="M1503.087 696.866c0 30.306-24.036 55.244-53.258 55.244-29.207 0-53.243-24.938-53.243-55.244 0-30.305 24.036-55.244 53.243-55.244 29.222 0 53.258 24.939 53.258 55.244z" fill-opacity=".98"/></svg>