<svg viewBox="0 0 2000 2000" xmlns="http://www.w3.org/2000/svg" fill-rule="evenodd" clip-rule="evenodd"><path d="M237.95 151.28c16.902-24.655 103.5-91.938 34.286-67.857 0 0-11.378 3.428-17.143 2.857-14.762-1.463-24.987-13.331-31.429-25.714-8.113-15.596-13.621-31.224-26.429-43.571-22.477-21.67-69.936-22.3-95.286 0C88.573 28.761 83.634 44.971 75.52 60.566 69.078 72.949 58.853 84.817 44.091 86.28c-5.765.571-17.143-2.857-17.143-2.857-69.219-24.081 17.384 43.202 34.286 67.857 58.905-15.778 117.81-14.69 176.71 0h.006z" fill-rule="nonzero" stroke="#000" transform="matrix(4.19305,0,0,4.16616,394.825,-55.4698) matrix(1.04298,0,0,0.870761,-5.771,19.5513)"/><g fill="#fff" fill-rule="nonzero"><path d="M1096.634 271.126c0 40.945-33.407 74.135-74.613 74.135-41.209 0-74.613-33.193-74.613-74.135 0-40.945 33.407-74.135 74.613-74.135 41.209 0 74.613 33.193 74.613 74.135z"/><path d="M1076.286 344.3c0 29.778-24.295 53.917-54.265 53.917s-54.265-24.14-54.265-53.917c0-29.778 24.295-53.917 54.265-53.917s54.265 24.139 54.265 53.917z"/></g><path d="M1016.586 271.126c0 14.889-12.149 26.96-27.13 26.96-14.986 0-27.135-12.071-27.135-26.96 0-14.89 12.15-26.96 27.134-26.96 14.982 0 27.131 12.07 27.131 26.96zm65.138 0c0 14.889-12.15 26.96-27.134 26.96-14.982 0-27.131-12.071-27.131-26.96 0-14.89 12.149-26.96 27.13-26.96 14.986 0 27.135 12.07 27.135 26.96z" fill-rule="nonzero"/><path d="M933.247 220.433c4.264 15.81.398 30.575-8.632 32.98-9.032 2.406-19.807-8.462-24.071-24.273-4.265-15.807-.398-30.574 8.631-32.98 9.032-2.402 19.808 8.463 24.072 24.273z" fill="#fff" fill-rule="nonzero"/><path d="M908.491 263.007c-15.912 4.237-30.771.396-33.192-8.576-2.422-8.974 8.517-19.68 24.429-23.917 15.91-4.237 30.771-.395 33.193 8.576 2.418 8.974-8.52 19.68-24.43 23.917z" fill="#fff" fill-rule="nonzero"/><path fill="#fff" d="M906.661 251.405l15.39-26.486 47.39 27.185-15.39 26.486z"/><path d="M919.882 326.388c15.912 4.237 26.847 14.943 24.43 23.917-2.422 8.972-17.281 12.813-33.194 8.576-15.912-4.236-26.85-14.943-24.429-23.917 2.421-8.971 17.28-12.813 33.193-8.576z" fill="#fff" fill-rule="nonzero"/><path d="M944.609 368.96c-4.265 15.81-15.04 26.675-24.072 24.272-9.03-2.406-12.896-17.17-8.632-32.98 4.265-15.81 15.04-26.678 24.072-24.273 9.03 2.403 12.896 17.17 8.632 32.98z" fill="#fff" fill-rule="nonzero"/><path fill="#fff" d="M933.603 364.747l-15.39-26.486 47.39-27.185 15.39 26.486z"/><path d="M1135.642 263.133c-15.912-4.237-26.847-14.943-24.429-23.918 2.421-8.971 17.28-12.813 33.193-8.576 15.912 4.237 26.85 14.943 24.43 23.917-2.42 8.972-17.281 12.814-33.194 8.577z" fill="#fff" fill-rule="nonzero"/><path d="M1110.887 220.559c4.264-15.81 15.04-26.676 24.071-24.273 9.03 2.405 12.896 17.17 8.632 32.98-4.264 15.81-15.042 26.678-24.072 24.272-9.029-2.402-12.896-17.17-8.631-32.98z" fill="#fff" fill-rule="nonzero"/><path fill="#fff" d="M1121.903 224.79l15.39 26.485-47.39 27.185-15.39-26.486z"/><path d="M1099.468 369.101c-4.265-15.81-.398-30.574 8.631-32.98 9.032-2.402 19.808 8.463 24.072 24.273 4.264 15.808.398 30.574-8.632 32.98-9.032 2.403-19.807-8.465-24.071-24.273z" fill="#fff" fill-rule="nonzero"/><path d="M1124.223 326.516c15.913-4.237 30.772-.395 33.193 8.576 2.418 8.972-8.517 19.68-24.43 23.917-15.909 4.237-30.77.396-33.192-8.576-2.418-8.974 8.517-19.68 24.43-23.917z" fill="#fff" fill-rule="nonzero"/><path fill="#fff" d="M1126.027 338.128l-15.39 26.486-47.39-27.185 15.39-26.486z"/><path d="M144.49 87.707l5.253-8.485 5.253 8.485H144.49z" fill-rule="nonzero" stroke="#000" stroke-width=".98" transform="matrix(4.19305,0,0,4.16616,394.825,-55.4698) matrix(0.682541,0,0,0.682541,47.3769,30.4201)"/></svg>