<svg viewBox="0 0 2000 2000" xmlns="http://www.w3.org/2000/svg" fill-rule="evenodd" clip-rule="evenodd" stroke-linejoin="round" stroke-miterlimit="2"><g fill-rule="nonzero"><path d="M737.461 502.533c-22.776 6.655-46.075 2.52-65.605-11.65-42.098-30.545-91.57-75.8-68.254-227.761l-1.465-46.889s16.291 29.926 120.23 62.501c66.282 20.772 87.568 73.202 89.74 107.952 4.547 72.684-50.471 104.815-60.192 109.904-2.445 1.367-7.52 3.916-14.454 5.943z" fill="#900e0e"/><path d="M707.09 481.8c-8.524 0-16.662-2.77-24.192-8.232-31.02-22.505-73.133-53.051-56.425-181.582 19.332 9.52 44.323 19.63 76.622 29.752 57.726 18.094 64.985 63.857 65.833 77.45 3.2 51.184-34.352 73.509-41.913 77.464l-.826.447c-.722.401-3.384 1.808-7.364 2.97-3.927 1.15-7.876 1.732-11.736 1.732z" fill="#c62828"/><path d="M1292.54 499.033c22.776 6.657 46.075 2.52 65.605-11.65 42.098-30.543 91.57-75.8 68.254-227.761l1.465-46.887s-16.291 29.924-120.231 62.499c-66.28 20.774-87.567 73.202-89.74 107.953-4.546 72.683 50.472 104.816 60.19 109.905 2.448 1.365 7.522 3.914 14.457 5.941z" fill="#900e0e"/><path d="M1322.912 478.303c8.523 0 16.66-2.77 24.19-8.233 31.02-22.505 73.134-53.051 56.426-181.584-19.332 9.522-44.324 19.632-76.622 29.754-57.726 18.094-64.985 63.855-65.833 77.45-3.2 51.181 34.352 73.507 41.913 77.462l.824.449c.724.401 3.386 1.806 7.364 2.968 3.929 1.153 7.876 1.734 11.738 1.734z" fill="#c62828"/></g></svg>