<svg viewBox="0 0 2000 2000" xmlns="http://www.w3.org/2000/svg" fill-rule="evenodd" clip-rule="evenodd" stroke-linejoin="round" stroke-miterlimit="2"><path d="M1023.722 164.417s21.783-12.673 19.798-62.286c-1.979-49.607-6.919-45.713-6.919-45.713s-54.466-11.676-67.339 8.754c-12.867 20.43 23.761 31.127 25.746 52.523 1.979 21.408-5.942 46.722-5.942 46.722h34.656z" fill="#770e0e" fill-rule="nonzero"/><path d="M995.081 53.542s45.203 81.505 28.643 110.874l-34.654.002s10.397-20.29 5.937-46.721c-4.564-27.106-67.503-53.448.074-64.155" fill="#5b0707" fill-rule="nonzero"/><path d="M650.332 556.181c-23.629-17.408-8.124-14.747-37.656-24.903-29.532-10.156-75.304-37.72-97.454-68.18-22.15-30.473-35.442-39.177-26.577-75.438 8.853-36.274 52.85-39.451 100.055-61.327 47.205-21.875 90.84-73.5 190.596-107.63 99.75-34.131 160.228-55.184 223.554-54.255 59.672.872 113.999 16.623 159.422 35.002 45.43 18.374 39.666 25.377 124.044 44.63 84.373 19.251 178.777 37.164 204.612 69.768 0 0 65.018 64.99 62.342 120.116-2.67 55.128-106.878 95.382-114.893 111.133 0 0-17.725 47.283-16.577 52.934 0 0-182.347-79.245-402.196-82.46-219.85-3.215-369.272 40.61-369.272 40.61" fill="#770e0e" fill-rule="nonzero"/><path d="M885.624 287.108s-58.954 17.236-61.458-14.771c-2.51-31.998 107.544-103.117 137.682-105.477 0 0-42.478 32.94-52.505 62.441-10.02 29.504-8.6 45.494-23.719 57.807m536.082 38.156s-27.563 3.119-87.693-33.521c-60.133-36.635-83.613-55.386-101.402-61.774 0 0 140.306 31.279 177.382 43.822 37.084 12.54 86.872 37.933 11.713 51.473m-699.014-40.617s-38.53 39.814-97.561 19.907c0 0 76.978-59.905 154.163-85.848l77.189-25.948s-94.955 61.123-133.79 91.889m815.935 183.726s-66.705-67.987-168.288-87.152c-101.583-19.158-232.596-58.08-355.771-55.893-123.163 2.187-255.546 12.243-343.24 35.626-87.69 23.389-172.189 80.759-172.189 80.759s26.33 43.127 65.748 65.488c24.269 13.77 35.17 20.224 65.576 31.29 3.767 1.37 9.183 11.494 19.868 17.688 0 0 226.94-52.76 369.272-40.61 142.339 12.149 367.11 62.354 402.197 82.46 0 0 6.937-36.586 16.57-52.934 9.639-16.343 85.609-42.318 100.257-76.722" fill="#5b0707" fill-rule="nonzero"/><path d="M1429.441 566.892c-27.826-19.682-58.823-34.772-90.67-47.04-31.903-12.373-65.176-20.728-98.9-26.747-67.39-12.51-135.42-21.975-203.786-26.56-34.174-2.143-68.456-3.184-102.573-1.458-34.142 1.452-68.208 5.333-101.975 10.629-33.82 5.022-67.365 11.994-100.156 21.495-32.671 9.551-65.171 21.452-93.01 41.283l-.4-.492c13.426-10.63 28.455-19.09 43.909-26.61 15.726-6.904 31.738-13.29 48.194-18.324 32.792-10.467 66.509-17.807 100.448-23.508 34.009-5.308 68.259-9.196 102.711-10.635 34.479-1.346 68.931.1 103.213 2.648 68.588 5.227 136.657 15.333 204.034 28.473 33.724 6.436 67.15 15.27 98.99 28.068 31.827 12.71 62.684 28.193 90.364 48.286l-.393.492z" fill="#321012" fill-rule="nonzero"/><path d="M666.333 481.397c7.882 2.66 16.177 4.069 24.42 5.022 8.245 1.016 16.558 1.365 24.84 1.29 8.3-.225 16.513-1.16 24.77-1.577 4.147-.062 8.269-.56 12.467-.548 4.172-.174 8.351-.467 12.657-.299l.127.61c-7.914 3.21-16.215 5.247-24.643 6.437-8.44 1.258-17.02.816-25.492.361-16.932-1.09-33.927-3.906-49.406-10.729l.26-.567zm642.836-19.844c-15.72 11.975-34.675 19.408-54.155 23.713-9.773 1.956-19.754 3.912-29.818 3.402-10.032-.218-20-1.87-29.532-4.798l.096-.617c5.016-.374 9.911-.155 14.794-.286 4.902-.343 9.74-.063 14.573-.53 9.664-.305 19.315-.829 28.948-2.068 9.6-1.427 19.062-3.807 28.264-6.978 9.2-3.122 18.25-7.035 26.437-12.33l.393.492z" fill="#321012" fill-rule="nonzero"/></svg>