<svg viewBox="0 0 2000 2000" xmlns="http://www.w3.org/2000/svg" fill-rule="evenodd" clip-rule="evenodd" stroke-linejoin="round" stroke-miterlimit="2"><path d="M648.093 516.198s-31.626 21.155-10.896 68.626c3.493-.972 330.992 70.688 772.221-20.561 4.768-.303 8.075-36.803-18.491-56.506-1.815-4.421-443.962 60.389-742.834 8.44" fill="#990e0e" fill-rule="nonzero"/><path d="M648.092 507.424s-31.623 29.928-10.895 77.4c3.494-.973 334.227 53.847 772.223-20.564 4.764-.301 8.075-45.575-18.494-65.275-1.813-4.418-443.96 60.386-742.834 8.44" fill="#d800ce" fill-rule="nonzero"/><path d="M639.764 520.614s-18.552 22.771-5.755 57.339c3.486-.72 337.415 37.62 775.412-17.506 4.767-.226 8.076-28.055-7.737-48.36-1.809-3.273-463.048 47.01-761.92 8.527" fill="#b615ba" fill-rule="nonzero"/><path d="M1403.3 513.936c-433.159 73.935-762.98 8.818-766.456 10.07 4.997-18.046 12.676-16.093 12.676-16.093 297.77 66.95 736.689-21.54 738.492-15.848 0 0 9.755 4.517 15.287 21.871" fill="#939" fill-rule="nonzero"/></svg>