<svg viewBox="0 0 2000 2000" xmlns="http://www.w3.org/2000/svg" fill-rule="evenodd" clip-rule="evenodd" stroke-linejoin="round" stroke-miterlimit="2"><path d="M760.61 513.037l431.041.317c49.666.036 100.128.727 149.472-2.865 15.82-1.152 30.895-2.964 46.513-5.04 9.228-1.229 18.459-2.452 27.69-3.68 7.35-.973 15.672 15.26 18.056 19.265 12.955 21.796 15.068 45.73 11.933 68.835-2.593 19.08-4.097 47.785-29.889 60.516-27.423 13.543-69.116 9.633-101.028 6.573L1195 645.513c-55.704-5.34-114.474-11.06-170.894-9.942-60.455 1.197-119.762 4.373-179.671 9.762-43.954 3.953-87.908 7.908-131.862 11.866-33.375 2.997-82.664 6.792-101.317-14.842-18.057-20.95-21.157-50.085-20.73-73.999.262-14.79 3.371-29.663 10.86-43.66 3.157-5.902 11.005-24.086 22.252-22.728 23.375 2.819 46.92 6.6 70.507 8.505 21.885 1.767 44.443 1.715 66.465 2.562" fill="#141a16"/><path d="M611.258 642.87c7.375 16.398 51.365 16.239 71.149 16.52 10.73.153 21.575-1.421 32.178-2.375 44.08-3.965 88.157-7.932 132.238-11.896 59.446-5.349 118.316-8.38 178.29-9.57 56.774-1.123 115.88 4.785 171.929 10.162 39.462 3.779 78.922 7.562 118.384 11.346 32.472 3.112 75.909 7.028 102.714-8.105 7.991-4.51 13.438-10.548 16.251-17.186-10.504 18.386-29.67 37.514-62.614 38.406-14.32.39-30.291.422-44.462-.842-32.552-2.896-65.094-5.797-97.646-8.693-65.55-5.839-130.217-12.098-196.378-13.506-60.038-1.276-120.42 3.454-179.783 9.059-37.89 3.577-75.782 7.154-113.667 10.734-33.29 3.143-73.328 7.946-103.842-3.802-11.863-4.566-20.776-11.573-24.741-20.252" fill="#333"/><path d="M1416.144 501.42c0-20.925-2.75-41.1-8.055-61.728-5.197-20.216-2.642-40.447-4.306-60.887-3.599-44.063-25.106-90.26-71.963-122.954-46.814-32.672-106.897-55.78-170.367-71.724-17.417-4.376-35.133-8.234-53.039-11.657a1144.988 1144.988 0 00-28.283-5.02 1274.71 1274.71 0 00-14.58-2.308c-7.794-1.183-9.193-1.958-14.825-5.227-12.854-7.464-48.96-5.936-63.282-1.125-1.932.653-5.843 4.874-6.576 4.925-4.602.299-9.193.6-13.795.9-6.288.414-12.493.807-18.637 1.816-16.674 2.728-32.902 5.435-49.111 9.151-31.137 7.143-60.581 16.713-90.056 26.323-47.645 15.53-92.393 37.93-116.344 69.986-13.574 18.16-27.421 36.33-35.479 55.957-4.388 10.684-11.745 22.232-13.623 33.225-1.97 11.547-3.946 23.09-5.92 34.632-3.703 21.634-8.686 43.061-13.695 64.59-1.466 6.305-1.584 12.52-1.899 18.91-.322 6.428 3.394 20.211-3.232 25.631 29.205 3.523 58.57 8.418 88.244 9.562 22.52.868 44.977 2.05 67.534 2.066 78.184.056 156.373.116 234.562.173 69.957.049 139.903.103 209.855.154 56.48.043 112.939-.563 168.363-7.925 10.112-1.345 20.221-2.687 30.33-4.03-.559-1.052-.839-2.523-1.821-3.417" fill-rule="nonzero"/><path d="M990.885 424.558l119.824-21.835c-13.236 37.459-48.955 64.307-90.944 64.307-53.247 0-96.409-43.166-96.409-96.414 0-2.37.089-4.725.254-7.058 0-.14 0-.284.034-.423h.127l108.447-19.659-58.43 58.43a15.769 15.769 0 00-1.228 2.163 14.925 14.925 0 003.057 16.86 15.068 15.068 0 007.782 4.09h.03c.777.147 1.567.221 2.358.22a14.292 14.292 0 002.587-.24l2.51-.441z" fill="#fff" fill-rule="nonzero"/><path d="M1116.192 370.616a98.2 98.2 0 01-.267 7.253l-103.942 18.943 56.313-55.77.572-.572a15.101 15.101 0 003.997-13.172 15.216 15.216 0 00-12.241-12.156 12.166 12.166 0 00-4.234.02l-3.658.661-123.867 22.602c13.248-37.416 48.95-64.218 90.9-64.218 53.24 0 96.427 43.187 96.427 96.41z" fill="#fff" fill-rule="nonzero"/></svg>