<svg viewBox="0 0 2000 2000" xmlns="http://www.w3.org/2000/svg" fill-rule="evenodd" clip-rule="evenodd" stroke-linejoin="round" stroke-miterlimit="2"><path d="M1012.498 861.067c23.657.87 67.806 5.644 110.553 42.664 56.946 49.324 98.303 83.17 132.696 92.295 48.128 12.779 65.083 46.15 33.132 87.227-25.405 32.668-143.22 114.9-268.05 110.838-131.055-4.264-218.024-66.21-260.623-111.85-42.599-45.644-15.598-74.664 31.187-93.312 30.538-12.171 86.56-73.046 129.826-96.353 34.135-18.39 57.116-32.77 91.28-31.509" fill="#f8b133" fill-rule="nonzero"/><path d="M949.406 965.97c-2.074 9.193-4.781 16.403-6.052 16.117-1.27-.287-.618-7.961 1.456-17.153 2.075-9.192 4.782-16.403 6.052-16.116 1.27.287.619 7.961-1.456 17.153m137.998-1.146c2.511 9.083 3.529 16.717 2.274 17.064-1.256.347-4.304-6.726-6.815-15.808-2.51-9.083-3.529-16.717-2.273-17.064 1.255-.347 4.303 6.726 6.814 15.808m-335.96 83.025c40.34 30.31 83.506 56.98 128.828 78.883 22.654 10.944 45.97 20.566 69.982 27.774 23.951 7.273 48.74 12.043 73.537 12.254 24.862.005 49.65-4.291 73.685-10.855 5.975-1.79 11.992-3.45 17.935-5.34l17.672-6.178 17.452-6.813 17.13-7.608c22.778-10.336 44.61-22.774 65.414-36.743 5.276-3.395 10.235-7.231 15.377-10.828 5.11-3.653 9.853-7.756 14.826-11.601 4.935-3.896 9.53-8.183 14.328-12.268 4.605-4.278 9.025-8.763 13.625-13.105l.69.607c-4.108 4.807-8.128 9.734-12.447 14.384-4.471 4.494-8.772 9.2-13.423 13.537-4.756 4.2-9.36 8.62-14.305 12.618-4.986 3.942-9.807 8.132-14.95 11.881-20.363 15.318-42.36 28.413-65.184 39.825l-17.424 7.94-17.788 7.139c-6.007 2.157-12.106 4.084-18.16 6.14-6.113 1.854-12.309 3.473-18.454 5.221-24.803 6.16-50.364 9.996-76.086 9.402-25.778-.69-51.026-6.076-75.23-13.896-24.255-7.773-47.623-17.925-70.24-29.365-45.11-23.174-87.682-50.939-127.365-82.287l.575-.717z" fill="#42382d" fill-rule="nonzero"/></svg>