<svg viewBox="0 0 2000 2000" xmlns="http://www.w3.org/2000/svg" fill-rule="evenodd" clip-rule="evenodd" stroke-linejoin="round" stroke-miterlimit="2"><path d="M1542.39 1396.446c-1.697-83.003-12.256-151.579 49.442-301.384-115.63-126-330.928-175.536-586.638-175.536-311.14 0-482.162 97.136-552.834 173.472 29.02 102.996 34.556 132.45 37.8 267.501 3.513 146.625-37.85 211.38-58.867 287.24 52.354 75.34 226.145 198.002 552.189 205.491 383.69 8.81 533.689-109.875 606.353-184.201-42.435-115.989-45.748-189.555-47.445-272.583" fill="#fff" fill-rule="nonzero"/><path d="M735.72 482.36c0 6.44-.237 12.817-.71 19.13A253.24 253.24 0 01721.28 567C686.4 665.83 592.2 736.62 481.47 736.62c-140.42 0-254.25-113.84-254.25-254.26 0-6.247.223-12.45.67-18.61 0-.37.05-.75.09-1.12a252.818 252.818 0 0112.86-62.57c.3-.87.6-1.74.91-2.6 34.94-98.67 129.08-169.35 239.72-169.35 140.42 0 254.25 113.89 254.25 254.25z" fill="url(#wear-6_svg__wear-6_svg___Linear1)" fill-rule="nonzero" transform="matrix(2.0801,0,0,2.02098,545.456,629.993) matrix(0.229052,0,0,0.235752,122.303,363.637)"/><path d="M1150.05 1603.831a120.673 120.673 0 01-6.537 31.212l-150.558 27.434-3.193.582a18.227 18.227 0 01-3.254.3c-.994.003-1.987-.09-2.963-.277h-.038a18.917 18.917 0 01-9.744-5.126c-5.603-5.533-7.145-14.035-3.84-21.183.44-.947.956-1.857 1.544-2.72l73.42-73.426-136.264 24.699-.158.028a120.455 120.455 0 016.128-29.811c.143-.415.286-.83.433-1.239l155.704-28.41 4.598-.834a15.304 15.304 0 015.298-.024c7.788 1.393 13.934 7.497 15.38 15.275a18.97 18.97 0 01-5.022 16.547l-.72.715-70.762 70.057 130.548-23.799z" fill="#fff" fill-rule="nonzero"/><path d="M495.173 1061.719s141.377 87.633 227.084 120.921c99.161 38.514 212.161 68.74 250.604 58.287 0 0-2.61-30.984-20.185-54.637-17.6-23.683-180.635-72.815-252.934-129.083-70.599-54.94-95.377-87.579-95.377-87.579s-12.474 4.3-28.048 12.667c-15.581 8.367-16.324 19.815-27.557 29.577-6.138 5.342-26.365 13.103-32.623 18.936-16.629 15.491-20.964 30.91-20.964 30.91m630.637 165.272s90.707 7.415 141.401-16.178c50.7-23.586 212.042-140.718 278.341-146.041 0 0-7.886-28.971-25.796-34.834-11.826-3.875-13.97 4.11-31.892-31.948-21.473-43.195-37.976-38.078-37.976-38.078s-155.503 177.777-272.886 190.74c-64.192 7.089-69.276 15.147-69.24 24.927.09 23.926 18.048 51.411 18.048 51.411" fill="#770e0e" fill-rule="nonzero"/><path d="M1286.17 1573.322s-171.096-150.219-227.706-250.246c0 0 62.7-56.074 67.347-96.086 0 0 117.868 119.587 160.359 346.332m-266.02-294.772s6.647 77.108-26.725 113.027c-33.37 35.907-111.55 34.58-144.85 83.795-33.3 49.217-70.389 158.29-135.952 150.31 0 0 53.012-34.578 61.288-89.118 8.27-54.534 16.545-172.296 66.185-227.152 49.64-54.849 126.036-112.814 153.33-91.144 27.299 21.665 26.724 60.282 26.724 60.282" fill="#770e0e" fill-rule="nonzero"/><path d="M1519.75 1029.94s-39.874 8.864-80.73 31.462c-40.857 22.604-68.97 40.346-71.372 35.95-2.407-4.384 53.258-36.144 68.174-46.633 14.922-10.496 52.874-41.261 52.042-52.727 6.072 8.18 6.227 23.332 31.886 31.948m-989.058-7.878s60.94 49.635 101.79 72.239c40.85 22.604 60.066 29.437 62.473 25.041 2.402-4.39-43.413-22.452-58.335-32.948-7.455-5.245-29.33-17.153-41.293-40.097-11.413-21.888-30.898-49.173-30.485-54.903-7.144 6.76-9.683 18.062-21.33 23.695-4.49 2.165-7.185 4.19-12.82 6.973m475.468 265.108s-14.748 41.238-55.599 63.836c-13.15 7.282-56.3 26.157-66.09 33.39-21.335 15.765-46.604 39.376-46.604 39.376s16.353-31.602 39.155-50.635c18.725-15.644 42.455-30.293 49.18-35.028 14.922-10.49 54.742-74.507 53.904-85.96 6.084 8.173 9.42 24.156 26.054 35.022m27.79-58.028s6.036 43.432 41.401 74.082c11.383 9.871 49.767 37.357 57.868 46.476 17.665 19.882 37.581 48.264 37.581 48.264s-9.569-34.33-27.994-57.729c-15.137-19.215-35.377-38.508-40.994-44.541-12.46-13.382-38.383-84.342-35.233-95.377-7.611 6.73-14.132 21.67-32.629 28.825m-61.261.77c-9.33 2.122-18.988 1.62-28.347.11-9.395-1.595-18.366-5.051-26.94-9.035-8.54-4.087-16.923-8.525-24.575-14.06-7.773-5.36-14.833-11.618-21.659-18.045l.395-.455c7.336 5.802 14.815 11.356 22.875 15.94 7.832 4.936 16.293 8.72 24.79 12.14 8.599 3.267 17.515 5.293 26.323 7.572 8.839 2.25 17.803 4.02 27.084 5.227l.054.606zm42.821-2.37c-9.323 2.122-18.988 1.62-28.341.11-9.396-1.595-18.366-5.051-26.946-9.035-8.533-4.087-16.917-8.525-24.575-14.06-7.767-5.36-14.827-11.618-21.653-18.045l.395-.455c7.33 5.802 14.815 11.356 22.869 15.94 7.838 4.936 16.293 8.72 24.79 12.14 8.605 3.273 17.515 5.293 26.323 7.572 8.845 2.25 17.809 4.02 27.084 5.227l.054.606zm193.52-49.514c-5.832 7.876-13.353 14.473-21.97 19.336-8.677 4.675-18.569 7.615-28.635 7.482-2.49-.145-5.042-.024-7.52-.412l-7.348-1.146c-4.443-.843-8.85-1.092-13.317-.637-4.485.388-9.078 1.613-14.03 2.28-4.904.752-10.162.637-14.845-.952l.09-.594c4.868-.17 9.383-1.043 13.839-2.577 4.43-1.516 9.071-3.244 14.155-4.172 5.102-.794 10.455-.545 15.401.795l6.85 1.643c2.252.54 4.558.588 6.857.921 9.245.716 18.605-1.406 27.156-5.341 8.569-3.923 16.485-9.744 22.832-16.99l.485.364z" fill="#5b0707" fill-rule="nonzero"/><path d="M1038.26 1148.981s90.431 10.89 91.479 51.678c1.06 40.795-.964 52.824-21.772 84.111-20.82 31.28-43.893 50.72-61.497 44.511-17.593-6.209-29.815-14.146-50.366-45.117-18.024-27.17-43.43-38.92-43.43-72.833 0-19.476 44.179-57.378 85.586-62.35" fill="#770e0e" fill-rule="nonzero"/><defs><linearGradient id="wear-6_svg__wear-6_svg___Linear1" x1="0" y1="0" x2="1" y2="0" gradientUnits="userSpaceOnUse" gradientTransform="matrix(508.5,0,0,508.5,227.22,482.36)"><stop offset="0" stop-color="#ee2238"/><stop offset="1" stop-color="#bf1d67"/></linearGradient></defs></svg>