<svg viewBox="0 0 2000 2000" xmlns="http://www.w3.org/2000/svg" fill-rule="evenodd" clip-rule="evenodd" stroke-linejoin="round" stroke-miterlimit="2"><path d="M1504.258 1036.581c-9.655-5.868-35.32-21.65-44.787-27.085 2.182 6.333-182.51 226.838-440.855 226.838-258.349 0-432.618-228.791-429.34-237.343-53.53 29.278-115.84 74.27-138.556 100.277-76.89 88.037-122.765 159.424-119.527 297.78 3.521 150.209 61.931 216.351 118.585 279.083 47.91 53.044 276.629 162.383 534.113 172.455 311.13 12.16 523.705-98.735 597.77-164.183 57.65-50.95 125.143-144.309 125.143-294.554 0-138.391-55.685-264.023-202.546-353.268" fill-rule="nonzero"/><path d="M1305.042 1689.51H739.098c-16.454 0-29.79-13.34-29.79-29.791v-283.944c0-16.454 13.336-29.791 29.79-29.791h565.944c16.452 0 29.789 13.337 29.789 29.79v283.945c0 16.451-13.337 29.79-29.789 29.79" fill="#080606" fill-rule="nonzero" opacity=".6"/><path d="M1294.788 1669h-555.69c-16.453 0-29.79-13.34-29.79-29.791v-263.436c0-16.454 13.337-29.79 29.79-29.79h555.69c16.454 0 29.79 13.336 29.79 29.79v263.436c0 16.451-13.336 29.79-29.79 29.79" fill="#201f1d" fill-rule="nonzero"/><path fill="#c6c2be" d="M890.182 1474.164H822.11v169.2h68.072z"/><path fill="#969ab5" d="M890.182 1556.2H822.11v87.165h68.072z"/><path fill="#c6c2be" d="M996.54 1474.164h-68.072v169.2h68.072zm119.125 0h-68.074v169.2h68.074z"/><path fill="#d0314a" d="M1222.037 1474.164h-68.07v169.2h68.07z"/><path fill="#969ab5" d="M996.54 1556.2h-68.072v87.165h68.072zm119.125 0h-68.074v87.165h68.074z"/><path fill="#921922" d="M1222.038 1556.2h-68.071v87.165h68.071z" opacity=".26"/><path fill="#d0314a" d="M1047.594 1371.62h174.44v82.035h-174.44zm-225.489 61.527H996.54v20.509H822.105zm0-30.764H996.54v20.509H822.105z"/><path fill="#3eaee3" d="M822.105 1371.62H996.54v20.51H822.105z"/><path fill="#aca535" d="M801.597 1622.854h-46.144v20.51h46.144zm492.216 0h-46.145v20.51h46.145z"/><path fill="#c6c2be" d="M786.217 1402.384h-15.381v220.47h15.38zm492.213 0h-15.381v220.47h15.38z"/></svg>