<svg viewBox="0 0 2000 2000" xmlns="http://www.w3.org/2000/svg" fill-rule="evenodd" clip-rule="evenodd" stroke-linejoin="round" stroke-miterlimit="2"><path d="M1500.924 1040.324c-9.583-5.74-17.24-15.924-26.64-21.239 2.17 6.193 3.06 8.819 4.602 15.152 3.588 14.744 5.448 29.849 5.448 45.23 0 162.547-207.9 294.321-464.362 294.321-256.458 0-464.359-131.774-464.359-294.322 0-15.38 1.86-30.485 5.449-45.23 2.1-8.627 7.286-15.613 10.539-23.974-53.137 28.628-88.993 64.628-111.543 90.057-76.332 86.094-126.037 148.89-122.82 284.184 3.493 146.887 61.48 211.57 117.72 272.913 47.562 51.872 274.603 158.798 530.213 168.643 308.857 11.894 519.88-96.55 593.4-160.558 57.231-49.82 124.23-141.11 124.23-288.04 0-135.332-56.084-249.864-201.877-337.137" fill="#e5dfe2" fill-rule="nonzero"/><path d="M1505.901 1037.574c-9.617-5.888-22.31-13.026-31.743-18.483 2.177 6.358 6.037 14.78 7.584 21.278 3.602 15.128 6.7 30.125 6.7 45.906 0 119.658-107.403 223.06-263.147 271.94-61.331 19.25-130.16 290.98-202.879 290.98-78.16 0-151.83-273.41-216.527-295.45-148.335-50.524-249.494-151.341-249.494-267.47 0-15.78 1.867-31.279 5.468-46.407 2.108-8.852 6.437-21.034 9.701-29.612-55.057 28.724-96.9 63.924-119.53 90.016-76.606 88.33-118.024 160.159-114.795 298.98 3.505 150.71 61.7 217.076 118.142 280.017 47.731 53.227 275.585 162.936 532.11 173.033 309.963 12.203 521.74-99.064 595.524-164.734 57.437-51.12 124.675-144.787 124.675-295.541 0-138.856-55.474-264.907-201.789-354.453" fill="#55b2ce" fill-rule="nonzero"/><path d="M1190.606 1381.716s75.777-26.876 126.513 21.26c9.36 8.877 17.764 20.351 24.54 35.079 37.005 80.44 204.452-265.979 132.752-418.94 0 0-222.374 257.249-283.805 362.6" fill="#336972" fill-rule="nonzero"/><path d="M1190.606 1381.699s.117-.051.345-.144c6.884-2.842 115.847-46.12 157.968 45.437 37.01 80.44 190.525-260.884 125.387-407.877 0 0-222.269 257.232-283.7 362.584" fill="#3c8899" fill-rule="nonzero"/><path d="M843.321 1383.005s-78.842-28.165-129.578 19.97c-9.36 8.878-17.764 20.352-24.54 35.08-37.005 80.44-189.35-274.831-117.65-427.797 0 0 210.337 267.395 271.768 372.747" fill="#336972" fill-rule="nonzero"/><path d="M843.321 1383.005s-117.873-50.578-161.378 43.987c-37.01 80.44-175.48-269.74-110.342-416.734 0 0 210.289 267.395 271.72 372.747" fill="#3c8899" fill-rule="nonzero"/><path d="M856.913 1589.66c-4.673 39.869-49.013 63.674-93.636 54.3-39.592-8.318-65.509-40.417-61.747-72.513 3.762-32.092 36.4-57.334 76.846-56.268 45.574 1.2 83.21 34.61 78.537 74.482" fill="#fff" fill-rule="nonzero"/><path d="M735.72 482.36c0 6.44-.237 12.817-.71 19.13A253.24 253.24 0 01721.28 567C686.4 665.83 592.2 736.62 481.47 736.62c-140.42 0-254.25-113.84-254.25-254.26 0-6.247.223-12.45.67-18.61 0-.37.05-.75.09-1.12a252.818 252.818 0 0112.86-62.57c.3-.87.6-1.74.91-2.6 34.94-98.67 129.08-169.35 239.72-169.35 140.42 0 254.25 113.89 254.25 254.25z" fill="url(#wear-1_svg__wear-1_svg__wear-1_svg__wear-1_svg__wear-1_svg__wear-1_svg___Linear1)" fill-rule="nonzero" transform="matrix(4.36583,0,0,4.24174,-533.954,-374.144) matrix(0.333022,0,0,0.333022,221.801,301.915) matrix(0.229052,0,0,0.235752,122.303,363.637)"/><path d="M856.982 1587.179a84.346 84.346 0 01-4.57 21.816l-105.235 19.176-2.23.406a12.74 12.74 0 01-2.275.21 10.863 10.863 0 01-2.072-.194h-.026a13.222 13.222 0 01-6.81-3.583 13.113 13.113 0 01-1.606-16.708l51.319-51.321-95.245 17.263-.11.02a84.203 84.203 0 014.283-20.837c.1-.29.2-.58.303-.866l108.832-19.858 3.214-.583a10.697 10.697 0 013.703-.016 13.346 13.346 0 0110.75 10.676 13.26 13.26 0 01-3.51 11.566l-.503.5-49.46 48.967 91.248-16.634z" fill="#fff" fill-rule="nonzero"/><defs><linearGradient id="wear-1_svg__wear-1_svg__wear-1_svg__wear-1_svg__wear-1_svg__wear-1_svg___Linear1" x1="0" y1="0" x2="1" y2="0" gradientUnits="userSpaceOnUse" gradientTransform="matrix(508.5,0,0,508.5,227.22,482.36)"><stop offset="0" stop-color="#ee2238"/><stop offset="1" stop-color="#bf1d67"/></linearGradient></defs></svg>