<svg viewBox="0 0 2000 2000" xmlns="http://www.w3.org/2000/svg" fill-rule="evenodd" clip-rule="evenodd" stroke-linejoin="round" stroke-miterlimit="2"><path d="M1506.544 1037.046c-9.682-5.943-37.356-22.03-46.85-27.534 2.188 6.413-873.466-.854-870.177-9.515-55.82 27.215-116.741 74.193-139.522 100.53-77.11 89.153-123.116 161.445-119.868 301.555 3.531 152.113 62.108 219.093 118.924 282.62 48.046 53.717 277.419 164.442 535.64 174.642 312.018 12.314 525.2-99.987 599.477-166.264 57.815-51.597 125.5-146.139 125.5-298.288 0-140.146-55.843-267.37-203.124-357.746" fill="#cdcdcd" fill-rule="nonzero"/><path d="M1501.73 1039.708c-9.585-5.872-36.978-21.77-46.376-27.21 2.166 6.338-864.614-.843-861.359-9.401-55.255 26.893-115.558 73.317-138.107 99.344-76.33 88.1-121.869 159.54-118.654 297.997 3.495 150.318 61.479 216.509 117.719 279.287 47.56 53.082 274.607 162.501 530.211 172.58 308.857 12.17 519.88-98.807 593.402-164.302 57.23-50.988 124.23-144.414 124.23-294.77 0-138.492-55.278-264.215-201.067-353.525" fill="#fff" fill-rule="nonzero"/><path d="M1065.142 1254.41s200.457 100.94 250.822 148.723c9.292 8.814 17.635 20.204 24.361 34.823 36.734 79.853 187.187-273.61 116.01-425.458l-391.193 241.912z" fill="#cdcdcd" fill-rule="nonzero"/><path d="M1171.798 1357.057s-106.882-109.576-106.66-109.665c6.772-2.733 238.18 78.089 279.576 166.001 36.373 77.238 171.071-259.762 107.05-400.903 0 0-326.25 133.745-386.625 234.902" fill="#fff" fill-rule="nonzero"/><path d="M982.797 1242.01s-200.458 100.941-250.822 148.725c-9.292 8.813-17.635 20.203-24.361 34.823-36.735 79.852-187.187-273.61-116.011-425.46l391.194 241.913z" fill="#cdcdcd" fill-rule="nonzero"/><path d="M876.139 1344.669s106.882-109.576 106.659-109.666c-6.771-2.733-238.178 78.089-279.575 166.001-36.373 77.238-171.072-259.762-107.05-400.903 0 0 326.25 133.745 386.625 234.902" fill="#fff" fill-rule="nonzero"/><path d="M735.72 482.36c0 6.44-.237 12.817-.71 19.13A253.24 253.24 0 01721.28 567C686.4 665.83 592.2 736.62 481.47 736.62c-140.42 0-254.25-113.84-254.25-254.26 0-6.247.223-12.45.67-18.61 0-.37.05-.75.09-1.12a252.818 252.818 0 0112.86-62.57c.3-.87.6-1.74.91-2.6 34.94-98.67 129.08-169.35 239.72-169.35 140.42 0 254.25 113.89 254.25 254.25z" fill="url(#wear-5_svg__wear-5_svg___Linear1)" fill-rule="nonzero" transform="matrix(0.992695,0,0,0.992695,8.46764,10.4021) matrix(1.46461,0,0,1.42299,988.655,901.387) matrix(0.229052,0,0,0.235752,122.303,363.637)"/><path d="M1412.489 1585.884a84.347 84.347 0 01-4.57 21.816l-105.234 19.175-2.231.407a12.74 12.74 0 01-2.275.21 10.863 10.863 0 01-2.071-.194h-.027a13.222 13.222 0 01-6.81-3.583 13.113 13.113 0 01-1.605-16.708l51.318-51.322-95.244 17.264-.11.02a84.194 84.194 0 014.283-20.837c.1-.29.2-.58.303-.866l108.831-19.858 3.214-.583a10.697 10.697 0 013.703-.017 13.346 13.346 0 0110.75 10.677 13.26 13.26 0 01-3.51 11.566l-.503.5-49.46 48.967 91.248-16.634z" fill="#fff" fill-rule="nonzero"/><g fill-rule="nonzero"><path d="M1047.839 1342.387s-26.664-17.509-52.638-17.897c-47.024-.702-38.952 8.422-38.952 8.422-24.42 0-43.865-12.983-36.145-55.095l24.564-42.811c11.931-32.987 26.815-32.285 51.235-32.285h46.321c16.919 2.307 31.168 2.955 40.005 15.44 7.02 32.285 18.249 61 18.249 76.5 0 0-11.23 49.13-52.639 47.726" fill="#b22625"/><path d="M955.2 1328.707s-55.797 107.382-76.852 172.654c-6.909 21.418-43.163 228.448-43.163 228.448l105.467 98.762 18.759 9.322 129.49-102.82-41.058-392.68s-18.95-31.583-45.269-31.583c-26.32 0-47.374 17.897-47.374 17.897" fill="#a91f23"/><path d="M955.647 1332.403s-52.152 100.368-71.832 161.376c-6.458 20.019-45.12 220.588-45.12 220.588l106.679 103.873 122.121-96.855-25.256-376.19s-17.711-29.52-42.311-29.52-44.28 16.728-44.28 16.728" fill="#c62127"/><path d="M980.346 1603.144c23.421-9.56 47.053-18.568 70.76-27.378-.266-6.364-.575-12.724-.869-19.088-.89-9.346-2.27-18.652-4.413-27.895a19.627 19.627 0 01-.457-3.216c-25.748 6.997-51.436 14.195-76.65 22.968-27.302 9.5-54.217 20.872-80.3 33.354-10.063 4.815-20.03 9.913-29.472 15.749a13429.17 13429.17 0 00-13.109 72.136c9.709-6.311 19.54-12.435 29.67-18.044 33.664-18.639 69.244-34.058 104.84-48.586m72.36 112.18c-13.343 4.956-26.607 10.121-39.753 15.588-33.783 14.049-66.959 29.793-99.002 47.464-1.295.714-6.375 2.304-7.704 3.012 13.842 12.098 25.335 26.3 40.532 36.847l107.374-85.952c-.751-5.618-1.186-11.286-1.447-16.958M952.041 1517.63c31.105-11.037 62.948-19.663 94.78-28.314a9855.1 9855.1 0 01-2.331-47.204c-57.987 17.57-114.741 38.322-168.225 67.305-2.212 9.55-5.398 25.323-9.035 44.208.256-.124.512-.252.768-.374 27.325-13.076 55.495-25.49 84.043-35.621m100.178 161.061c-.196-11.415-.531-22.81-.75-34.252-.204-10.635-.055-21.302.083-31.971-20.766 7.78-41.452 15.76-61.965 24.193-35.129 14.439-70.61 29.694-103.385 48.995-14.93 8.792-29.374 18.326-43.71 28.04 13.206 14.273 26.638 28.323 40.535 41.86 4.547-2.393 9.052-4.778 13.381-7.195 33.44-18.67 68.402-34.788 103.747-49.487 17.2-7.153 34.571-13.843 52.064-20.183m-10.825-317.845c-26.66 6.874-53.149 14.337-79.18 23.346-14.835 5.133-28.826 11.012-42.736 17.415-8.994 19.3-18.396 40.335-26.536 60.36 48.266-22.89 98.717-40.357 150.002-55.62a3738.519 3738.519 0 01-1.55-45.5m-6.196-34.133c-8.034-7.936-19.396-15.912-32.623-15.912-26.32 0-47.374 17.897-47.374 17.897s-5.04 9.7-12.648 25.014c13.449-4.641 27.123-8.695 40.39-12.659 17.315-5.173 34.76-9.853 52.255-14.34" opacity=".1"/><path d="M1052.055 1720.333l-109.487 77.905-87.38-65.272 90.187 85.274 122.12-96.854-25.255-376.19 9.815 375.137z" fill="#fff" opacity=".2"/><path d="M1051.82 1301.368c4.67.647 9.405-1.402 12.947-4.515 8.073-7.093 10.387-19.21 7.806-29.64-2.583-10.43-9.335-19.368-16.989-26.911-4.648-4.58-9.744-8.808-15.602-11.681-8.15-3.998-17.348-5.193-26.367-6.214-7.282-.824-14.719-1.564-21.882-.02-11.124 2.397-20.467 10.116-27.45 19.099-5.401 6.949-9.735 14.99-10.872 23.717-1.139 8.728 1.294 18.2 7.697 24.237 9.708 9.156 24.966 8.19 38.067 5.654 13.1-2.535 27.292-5.926 39.265-.034 4.452 2.19 8.465 5.627 13.38 6.308" fill="#c62127"/></g><defs><linearGradient id="wear-5_svg__wear-5_svg___Linear1" x1="0" y1="0" x2="1" y2="0" gradientUnits="userSpaceOnUse" gradientTransform="matrix(508.5,0,0,508.5,227.22,482.36)"><stop offset="0" stop-color="#ee2238"/><stop offset="1" stop-color="#bf1d67"/></linearGradient></defs></svg>