<svg viewBox="0 0 1501 939" xmlns="http://www.w3.org/2000/svg" fill-rule="evenodd" clip-rule="evenodd" stroke-linejoin="round" stroke-miterlimit="2"><path d="M.054 470.603c0-103.812 42.56-198.048 154.828-264.992 102.92-61.374 187.004-91.285 382.578-91.285 237.958 0 374.552 84.163 422.743 138.305 58.78 66.043 93.845 119.59 91.367 223.371-2.688 112.676-47.34 162.286-90.646 209.345-36.625 39.788-211.455 121.804-408.277 129.36-237.827 9.12-400.321-74.062-456.935-123.157C51.646 653.335.054 583.304.054 470.603" fill="#c62828" fill-rule="nonzero"/><path d="M1500.08 464.52c0-103.807-42.56-198.043-154.824-264.987-102.925-61.379-187.008-91.29-382.578-91.29-237.963 0-374.556 84.164-422.748 138.31-58.774 66.039-93.844 119.585-91.366 223.371 2.693 112.672 47.34 162.282 90.646 209.34 36.625 39.788 211.455 121.809 408.277 129.36 237.83 9.12 400.321-74.057 456.939-123.157 44.066-38.214 95.654-108.241 95.654-220.947" fill="#c62828" fill-rule="nonzero"/><path d="M1459.62 467.216c0-130.282-57.437-248.555-208.918-332.571-138.886-77.026-252.342-114.57-516.246-114.57-321.099 0-505.413 105.633-570.445 173.588C84.703 276.54 37.383 343.748 40.723 473.996c3.635 141.406 63.88 203.677 122.322 262.734 49.416 49.94 285.328 152.873 550.917 162.352 320.916 11.45 540.183-92.95 616.576-154.571 59.466-47.963 129.081-135.846 129.081-277.295" fill="#900e0e" fill-rule="nonzero"/><path d="M1407.668 484.577c0-136.58-53.65-260.57-195.143-348.646C1082.796 55.18 976.82 15.823 730.315 15.823c-299.928 0-472.09 110.739-532.835 181.979C123.4 284.685 79.2 355.142 82.32 491.685c3.396 148.241 59.668 213.522 114.258 275.434 46.158 52.353 266.516 160.263 514.595 170.2 299.757 12.003 504.568-97.442 575.924-162.043 55.546-50.282 120.571-142.413 120.571-290.699" fill="#900e0e" fill-rule="nonzero"/><path d="M1430.799 466.28c0-135.652-55.276-258.796-201.069-346.276C1096.07 39.803 986.877.712 732.895.712c-309.031 0-486.42 109.985-548.999 180.739-76.332 86.298-121.877 156.273-118.659 291.888 3.497 147.238 61.48 212.07 117.72 273.558C230.52 798.892 457.564 906.075 713.17 915.94c308.856 11.926 519.878-96.779 593.399-160.938 57.232-49.937 124.23-141.443 124.23-288.72" fill="#c62828" fill-rule="nonzero"/></svg>