<svg viewBox="0 0 268 269" xmlns="http://www.w3.org/2000/svg" fill-rule="evenodd" clip-rule="evenodd" stroke-linejoin="round" stroke-miterlimit="2"><g fill="#fff" fill-rule="nonzero"><path d="M134.069.871C60.195.871.215 60.851.215 134.726c0 73.874 59.98 133.854 133.854 133.854 73.874 0 133.854-59.98 133.854-133.854C267.923 60.852 207.943.87 134.07.87zm80.313 176.214c-.17.508-.17 1.186-.509 1.355-1.186.678-2.372 1.186-3.727 1.695-2.88 1.355-5.592 2.372-8.98 1.016-1.525-.678-3.22-.339-5.253-.508.508 3.558 1.186 6.777 1.525 10.166a373.177 373.177 0 012.033 19.316c.17 2.033-.17 4.236-.847 6.1-2.033 6.438-7.625 9.149-14.233 6.777-2.372-.847-4.574-2.203-6.608-3.728-4.235-3.05-8.471-6.438-12.538-9.658-.508-.338-.847-1.016-1.355-1.355l-.509-.508c-1.016-.678-2.202-1.186-3.219-1.864-14.571-9.658-28.804-19.655-44.223-27.957-9.827-5.253-19.824-9.658-30.329-13.047-1.355-.508-2.88-.847-4.405-.847-2.033-.17-3.22.847-3.389 2.88-.508 6.778-.17 13.386 1.017 20.163 1.525 8.642 5.422 16.436 9.827 23.891.508.847 1.356 1.355 1.694 2.033.509 1.017 1.017 2.542.678 3.389-.339.847-1.864 1.525-2.71 1.525-10.675-.339-18.3-5.083-20.164-16.944-1.863-11.69-3.219-23.382-2.033-35.242.17-2.203.508-4.236.847-6.439 1.017-5.422 4.236-8.81 9.489-10.674 11.69-4.067 23.382-8.303 34.904-12.708 21.518-8.133 42.867-16.435 64.385-24.568.509-.17 1.186-.509 1.695-.678v-.508c-3.897-.509-7.964-1.187-11.86-1.356-19.994-.678-39.988-.339-59.981.847a513.24 513.24 0 00-22.705 2.033c-3.558.34-7.116 1.356-10.674 2.034-1.864.339-3.558.677-4.744-1.017s-.509-3.389.338-4.914c2.88-4.574 6.947-6.946 12.37-6.946h30.159c7.963 0 15.757-.17 23.721 0 2.71 0 5.591.338 8.302.508l.17-.508c-6.439-4.067-13.047-8.133-19.485-12.37.17-.338.338-.508.508-.846 1.694.847 3.389 1.524 5.252 2.372-5.252-5.422-41.172-22.535-52.016-24.738 1.016.678 1.694 1.017 2.372 1.525v.339c-.847 0-1.525 0-2.203-.17-5.083-1.355-10.166-2.71-15.25-4.236-1.016-.338-2.371-1.524-2.371-2.372 0-1.016 1.186-2.541 2.033-2.88 8.472-2.88 16.944-4.575 25.754-1.017 12.03 4.745 23.043 11.522 33.887 18.469 3.559 2.372 7.117 4.744 10.844 7.116.509.339 1.695.508 2.203.339 15.08-7.963 30.329-15.25 44.562-24.568 3.219-2.033 6.438-4.236 9.488-6.608 1.017-.847 2.033-2.033 2.711-3.22 1.017-1.524 2.542-2.372 4.236-1.863 4.575 1.186 7.794 4.236 9.827 8.302 1.017 1.864-.508 5.083-2.71 6.439-6.948 4.066-13.895 8.133-20.841 12.03-11.691 6.608-23.383 13.216-35.243 19.993 3.389 2.372 6.947 4.914 10.505 7.455.508.34 1.186.17 1.694.34 10.336.507 20.672 1.355 30.499 4.235 1.355.339 2.541 1.017 3.727 1.525 3.728 2.033 4.067 5.591.509 8.133-2.203 1.525-4.575 3.05-7.117 4.066-7.794 3.39-15.757 6.778-23.72 9.997-19.994 8.133-39.988 16.096-59.981 24.06-1.017.339-1.864.847-2.711 1.186 27.788 3.728 55.575 7.455 83.532 11.183 0-1.525.17-3.22 0-4.914-.17-3.05-.678-6.1-.847-9.15-.17-1.524.339-2.71 1.864-3.05 1.525-.508 3.219-.508 3.897 1.017 1.355 2.88 2.202 5.93 3.219 8.98-.17 0-.339.17-.508.17-.848-2.372-1.525-4.744-2.373-7.286-.169 0-.169 0-.338.17 1.016 4.236 2.202 8.471 3.219 12.707l.508 2.034c.509 1.863 1.695 2.71 3.558 2.541 1.525-.17 3.05-.17 4.575.17 3.22.677 6.27 1.524 9.489 2.71 1.863.678 3.388 1.695 5.083 2.88 1.694.679 1.186 1.865 0 3.05z"/><path d="M184.222 179.118c-.17-1.356.508-3.22-1.694-3.728-3.22-.847-6.27-2.033-9.489-2.71-5.083-1.187-10.166-2.034-15.08-3.22-1.355-.339-2.71-.847-4.066-1.186-1.186-.339-2.372-.847-3.558-1.017-1.864-.338-3.897-.169-5.761-.338-8.81-1.186-17.621-2.542-26.432-3.897-2.033-.34-3.897-.509-5.93-.678 0 .17 0 .17-.17.339 4.236 2.541 8.472 4.913 12.877 7.624-1.016.509-1.355.678-1.863 1.017 2.541 1.694 4.913 3.05 7.624 4.914.17-2.203 1.356-1.525 2.203-.848 9.827 6.439 19.824 12.708 29.651 19.316 2.542 1.694 4.914 3.897 7.286 5.76 3.22 2.712 6.608 5.592 9.827 8.303 1.017.847 1.864 1.017 2.033-.508.848-4.744 1.864-9.488 2.373-14.402.338-2.88-.34-5.93-.34-8.81.17-2.034.678-4.067.509-5.931z"/></g></svg>