<svg viewBox="0 0 295 300" xmlns="http://www.w3.org/2000/svg" fill-rule="evenodd" clip-rule="evenodd" stroke-linejoin="round" stroke-miterlimit="2"><path fill="none" d="M0 .002h294.138v299.1H0z"/><path d="M108.89 222.807l166.208-30.288c-18.359 51.96-67.904 89.201-126.148 89.201-73.86 0-133.73-59.876-133.73-133.737 0-3.289.122-6.554.351-9.79 0-.194 0-.394.047-.587h.177l150.428-27.27-81.05 81.05a21.873 21.873 0 00-1.702 3c-3.652 7.892-1.95 17.281 4.24 23.388a20.9 20.9 0 0010.795 5.673h.04c1.08.204 2.174.306 3.272.305a19.824 19.824 0 003.589-.334l3.482-.611z" fill="#fff" fill-rule="nonzero"/><path d="M282.704 147.983c0 3.39-.123 6.744-.37 10.061L138.155 184.32l78.113-77.36.792-.793a20.947 20.947 0 005.545-18.272c-1.606-8.582-8.387-15.316-16.98-16.861a16.876 16.876 0 00-5.873.03l-5.074.915L22.86 103.33c18.377-51.9 67.9-89.078 126.09-89.078 73.848 0 133.754 59.906 133.754 133.731z" fill="#fff" fill-rule="nonzero"/></svg>