<svg viewBox="0 0 469 263" xmlns="http://www.w3.org/2000/svg" fill-rule="evenodd" clip-rule="evenodd" stroke-linejoin="round" stroke-miterlimit="2"><path d="M140.061 127.203c0 70.036-31.314 126.825-69.94 126.825S.176 197.239.176 127.203C.176 57.158 31.495.377 70.121.377c38.626 0 69.94 56.78 69.94 126.826m328.876 8.86c0 70.041-31.314 126.821-69.94 126.821-38.627 0-69.941-56.78-69.941-126.82 0-70.042 31.314-126.822 69.94-126.822 38.627 0 69.941 56.78 69.941 126.821" fill="#fff" fill-rule="nonzero"/><path d="M440.834 181c0 45.223-18.733 81.884-41.84 81.884-23.106 0-41.835-36.661-41.835-81.884 0-45.227 18.729-81.888 41.835-81.888 23.107 0 41.84 36.661 41.84 81.888m-328.874-8.865c0 45.227-18.733 81.888-41.84 81.888-23.106 0-41.839-36.66-41.839-81.888 0-45.223 18.733-81.883 41.84-81.883 23.106 0 41.84 36.66 41.84 81.883" fill="#1d1d1b" fill-rule="nonzero"/><path d="M103.084 102.755c0 6.907-5.404 12.507-12.066 12.507-6.667 0-12.067-5.6-12.067-12.507 0-6.908 5.4-12.503 12.067-12.503 6.662 0 12.066 5.595 12.066 12.503m328.877 8.863c0 6.907-5.4 12.503-12.066 12.503-6.667 0-12.067-5.596-12.067-12.503 0-6.904 5.4-12.503 12.067-12.503 6.666 0 12.066 5.6 12.066 12.503" fill="#fff" fill-rule="nonzero"/></svg>