<svg viewBox="0 0 894 866" xmlns="http://www.w3.org/2000/svg" fill-rule="evenodd" clip-rule="evenodd" stroke-linejoin="round" stroke-miterlimit="2"><path d="M443.778.147c227.194-.41 311.916 80.199 355.35 186.82 43.432 106.622 81.917 256.89 89 307.417 7.667 54.65 15.334 129.19-43.432 184.177-58.763 54.99-237.612 190.63-399.852 186.963-162.233-3.663-344.91-138.083-380.68-178.407-35.77-40.327-84.312-100.202-53.652-210.182 0 0 74.988-260.063 108.201-304.055C151.926 128.89 216.583.552 443.778.147" fill="#fff" fill-rule="nonzero"/><path d="M815.1 461.661c9.407-49.396-.31-62.694-10.935-121.424-98.07 244.56-4.76-96.153-72.011-170.235.372 42.934-12.473 69.31-30.834 124.432C689.55 187.42 640.928 63.975 595.273 39.562c21.907 60.638 45.981 150.258 25.993 199.606-24.326-43.575-22.442-49.363-78.175-120.481C561 222.652 539.389 263.2 507.354 299.455c-18.612-31.931-34.104-49.33-53.616-82.8v356.881c21.856 2.527 52.434 10.265 82.271 35.118a2546.847 2546.847 0 0023.958 19.735c4.043-3.227 7.872-5.84 11.368-7.644 45.845-23.668 167.861.742 146.784 100.425-5.655 16.541-16.799 31.35-25.128 46.407 76.504-38.215 92.748-156.076 85.515-246.88 30.299 3.149 59.097 55.24 79.567 92.131 13.283-59.415-4.233-135.442-42.973-151.167M437.34 572.374V216.656c-19.511 33.47-35.004 50.869-53.616 82.8-32.039-36.255-53.651-76.803-35.737-180.769-55.732 71.119-53.849 76.907-78.174 120.481-19.993-49.348 4.081-138.971 25.988-199.605-45.655 24.413-94.271 147.857-106.039 254.872-18.364-55.121-31.213-81.499-30.837-124.432-67.256 74.081 26.058 414.794-72.012 170.235-10.624 58.73-20.341 72.028-10.934 121.424-38.745 15.725-56.256 91.752-42.973 151.167 20.469-36.892 49.267-88.986 79.566-92.132-7.233 90.805 9.008 208.666 85.512 246.88-8.322-15.057-19.47-29.865-25.124-46.406-21.082-99.684 100.934-124.093 146.78-100.425a48.84 48.84 0 012.933 1.662c12.035-9.21 23.938-17.555 34.911-23.243 29.86-15.464 50.082-27.573 79.756-26.79" fill="#1e1c1a" fill-rule="nonzero"/></svg>