<svg viewBox="0 0 921 345" xmlns="http://www.w3.org/2000/svg" fill-rule="evenodd" clip-rule="evenodd" stroke-linejoin="round" stroke-miterlimit="2"><path d="M425.149 85.556c24.967-17.596 52.981-19.014 84.654-.973 13.549 7.454 27.659 10.172 38.922-.486 50.717-47.99 103.31-75.526 173.204-71.033 48.259 3.101 90.077 15.729 126.009 39.407 15.852 10.446 32.237 18.636 48.51 25.409 10.239 4.26 18.009 12.934 20.88 23.647 2.347 8.759 3.386 18.193 3.497 28.106.094 8.103-5.067 15.435-12.859 17.657l-.186.053c-11.734 1.724-19.767 22.086-26.272 53.516-10.58 51.12-33.66 92.913-74.925 117.495-48.841 29.099-101.962 34.236-153.014 12.407-73.951-31.624-114.091-98.764-126.009-128.687-14.673-36.833-17.43-62.612-59.356-63.249-30.706-.466-44.931 4.095-52.058 31.625-17.43 67.31-47.759 117.955-111.414 147.173-76.633 35.175-139.497 24.15-202.394-21.407-35.002-25.353-57.815-69.628-69.085-132.823-3.009-16.865-11.777-27.78-24.268-34.696-5.11-2.828-8.2-8.313-8.192-14.154.035-26.976 3.001-49.168 19.567-49.186 14.195-2.12 28.894-7.785 44.029-16.542 78.131-52.464 157.15-59.41 242.045-32.598 26.293 8.305 57.982 31.436 91.466 64.708 8.787 8.668 17.862 10.449 27.249 4.622v.01zM219.895 26.807c-84.74 0-153.438 64.122-153.438 143.22s68.697 143.22 153.438 143.22c84.74 0 153.437-64.122 153.437-143.22s-68.697-143.22-153.437-143.22zm495.274 5.838c-84.74 0-153.438 64.123-153.438 143.22 0 79.098 68.697 143.22 153.438 143.22 84.74 0 153.437-64.122 153.437-143.22 0-79.097-68.697-143.22-153.437-143.22z" fill-rule="nonzero"/></svg>