<svg viewBox="0 0 1113 569" xmlns="http://www.w3.org/2000/svg" fill-rule="evenodd" clip-rule="evenodd" stroke-linejoin="round" stroke-miterlimit="2"><path d="M755.992 37.205s-78.52-44.78-204.554 18.724c-126.03 63.504-177.774 122.429-264.01 85.764-86.23-36.666-82.582-82.823-94.189-71.364-11.607 11.455 5.307 157.782 235.485 174.799 0 0-155.883 22.909-245.43 134.862-89.555 111.954-70.979 188.55-51.08 188.55 19.904 0 31.177-83.797 127.362-116.532 96.181-32.731 211.607-5.238 284.569-32.731 0 0 122.055 55.645 312.42-41.244 0 0-16.575 44.52-72.952 83.142-56.388 38.628-70.98 54.996-59.708 54.996 11.278 0 236.139-59.58 340.307-180.037 104.119-120.462 14.558-263.843-44.46-297.227-59.02-33.395-169.335-64.95-263.76-1.702z" fill="#15aa8f" fill-rule="nonzero"/><path d="M1019.751 38.902C979.127 15.919 914.206-6.188 846.925 2.88c42.788 5.395 81.298 20.509 108.742 36.02 59.018 33.386 148.58 176.762 44.46 297.228-66.297 76.68-181.526 128.69-259.426 156.365-20.287 16.358-24.315 23.672-16.79 23.672 11.277 0 236.133-59.58 340.3-180.037 104.12-120.462 14.608-263.838-44.46-297.227zM199.17 361.773c90.89-96.245 229.554-116.645 229.554-116.645-70.616-5.224-121.156-22.614-156.965-44.555-.01 0-113.434 1.8-202.33 104.316C-19.47 407.404-6.368 455.42 22.645 426.797c29.013-28.634 81.672-77.408 176.525-65.024z" fill="#377b6d" fill-rule="nonzero"/><path d="M646.31 435.123C759.824 387.373 775 271.647 775 271.647c-116.974 123.752-230.855 147.63-230.855 147.63s37.063 16.88 102.166 15.846zm239.862-269.464s-1.328-108.063-54.05-160.27c-25.664 5.233-51.44 15.28-76.13 31.816 0 0 96.933 26.426 130.18 128.454z" fill="#377b6d" fill-rule="nonzero"/><path d="M609.218 63.242s28.319-29.785 75.19-18.552c46.87 11.224 123.766 55.906 136.696 84.953 12.935 29.047-39.537 56.146-72.735 13.668-33.198-42.48-64.449-55.655-99.112-57.612-34.664-1.948-45.41-9.448-40.04-22.457zm319.418 13.879s-18.541-14.651-10.279-22.944c8.312-8.301 58.134 7.319 84.003 45.405 25.87 38.082 42.002 64.93 28.33 71.28-13.673 6.345-18.592 12.694-41.51-21.478-22.969-34.181-60.544-72.263-60.544-72.263z" fill="#fff" fill-opacity=".39" fill-rule="nonzero"/><ellipse cx="1013.18" cy="118.398" rx="4.864" ry="3.872" fill="#fff" fill-opacity=".39" transform="matrix(1,0,0,1,-301,-161) matrix(1,0,0,1,0,20) matrix(4.91822,0,0,4.91822,-3796.46,-408.342)"/><ellipse cx="947.012" cy="131.999" rx="5.709" ry="5.262" fill="#fff" fill-opacity=".39" transform="matrix(1,0,0,1,-301,-161) matrix(1,0,0,1,0,20) matrix(4.91822,0,0,4.91822,-3796.46,-408.342)"/><ellipse cx="874.567" cy="195.881" rx="4.12" ry="3.127" fill="#fff" fill-opacity=".39" transform="matrix(1,0,0,1,-301,-161) matrix(1,0,0,1,0,20) matrix(3.44816,-3.50718,3.50718,3.44816,-3197.73,2946.74)"/><path d="M243.533 375.711s-20.268-4.146-2.931-21.478c17.327-17.327 107.896-66.887 154.771-72.253 46.871-5.38 56.147-1.953 59.078 12.689 2.926 14.651 6.344 39.552-38.569 43.944-44.923 4.397-107.414 9.28-126.944 15.133-19.53 5.858-36.62 21.965-45.405 21.965z" fill="#fff" fill-opacity=".39" fill-rule="nonzero"/></svg>