<svg viewBox="0 0 295 552" xmlns="http://www.w3.org/2000/svg" fill-rule="evenodd" clip-rule="evenodd" stroke-linejoin="round" stroke-miterlimit="2"><path d="M294.03 249.232l-39.104 34.287 23.716-75-25.854 15 11.938-81.43-22.654 23.572 8.57-72.859-30.658 21.43 9.23-66.905-36.43 47.621L179.926.186l-32.859 64.212L114.201.186l-12.854 94.762-36.43-47.62 9.234 66.904-30.663-21.43 8.571 72.859-22.654-23.571 11.937 81.43-25.854-15 23.713 75L.1 249.231l15.387 93.983 130.446 204.838v3.558l1.133-1.78 1.13 1.78v-3.558l130.445-204.838 15.388-93.983z" fill="#1e1c1a" fill-rule="nonzero"/></svg>