<svg viewBox="0 0 1113 569" xmlns="http://www.w3.org/2000/svg" fill-rule="evenodd" clip-rule="evenodd" stroke-linejoin="round" stroke-miterlimit="2"><path d="M755.992 37.205s-78.52-44.78-204.554 18.724c-126.03 63.504-177.774 122.429-264.01 85.764-86.23-36.666-82.582-82.823-94.189-71.364-11.607 11.455 5.307 157.782 235.485 174.799 0 0-155.883 22.909-245.43 134.862-89.555 111.954-70.979 188.55-51.08 188.55 19.904 0 31.177-83.797 127.362-116.532 96.181-32.731 211.607-5.238 284.569-32.731 0 0 122.055 55.645 312.42-41.244 0 0-16.575 44.52-72.952 83.142-56.388 38.628-70.98 54.996-59.708 54.996 11.278 0 236.139-59.58 340.307-180.037 104.119-120.462 14.558-263.843-44.46-297.227-59.02-33.395-169.335-64.95-263.76-1.702z" fill="#c9173d" fill-rule="nonzero"/><path d="M115.423 531.157c.005-33.194 15.586-86.335 67.616-151.373 82.73-103.406 221.9-130.899 242.94-134.538-195.745-15.439-235.77-125.007-235.77-162.897.02-6.211 1.043-10.49 2.794-12.246 1.254-1.25 2.38-1.884 3.532-1.884 4.736.177 7.928 10.25 19.982 24.4 11.99 14.154 32.53 32.396 71.03 48.773 18.374 7.806 35.165 11.268 51.444 11.268 59.948.025 113.129-47.048 212.29-97.027 52.335-26.366 96.5-34.093 130.264-34.093 45.41 0 72.017 13.968 74.417 15.271 39.676-26.524 82.16-36.35 122.44-36.35 55.723 0 107.217 18.763 141.497 38.15 39.493 22.354 92.462 93.604 92.511 174.455 0 40.354-13.23 83.098-47.952 123.275C960.142 456.926 735.37 516.456 723.9 516.49c-2.337 0-3.861-.758-3.871-2.44.143-5.966 18.547-22.368 63.386-53.151 28.157-19.29 46.394-40.05 57.558-55.98 9.394-13.44 13.82-23.41 14.951-26.214-88.287 44.79-161.878 56.796-215.354 56.796-59.49 0-94.1-14.843-96.441-15.88-73.14 27.453-188.442 0-284.46 32.69-48.012 16.339-74.806 45.4-92.118 70.41-17.362 24.99-24.946 45.985-35.343 46.133-8.725-.064-16.766-13.747-16.786-37.698zm78.048-460.592c-1.5 1.446-2.607 5.651-2.597 11.784.014 37.679 40.049 147.817 237.874 162.454l.025.65c-.025.009-9.728 1.43-25.727 5.326-16.004 3.89-38.264 10.254-63.332 20.11-50.137 19.708-111.442 53.392-156.164 109.308-51.956 64.96-67.468 117.973-67.468 150.964 0 11.922 2.027 21.218 5.066 27.518 3.045 6.305 7.077 9.546 11.066 9.536 9.507.148 17.514-20.764 34.801-45.847 17.347-25.073 44.284-54.278 92.453-70.665 96.304-32.756 211.759-5.268 284.554-32.726l.127-.054.123.059c.025 0 8.686 3.959 25.083 7.928 16.388 3.974 40.472 7.943 71.216 7.943 53.545 0 127.289-12.045 215.846-57.115l.738-.384-.295.792c0 .044-16.624 44.618-73.075 83.305-44.805 30.625-63.229 47.5-63.091 52.61 0 1.156.915 1.75 3.207 1.78 11.09.035 236.045-59.58 340.065-179.918 34.624-40.064 47.756-82.636 47.756-122.852.05-80.546-52.871-151.698-92.118-173.88C985.373 19.85 933.977 1.13 878.402 1.13c-40.232 0-82.627 9.821-122.233 36.35l-.172.113-.172-.103c-.025 0-6.674-3.811-19.314-7.638-12.64-3.821-31.216-7.653-54.956-7.653-33.67 0-77.723 7.693-129.97 34.015-99.101 49.92-152.257 97.076-212.59 97.1-16.372 0-33.261-3.487-51.7-11.321-38.593-16.408-59.225-34.733-71.27-48.952-11.975-14.243-15.689-24.345-19.49-24.168h-.015c-.87 0-1.854.502-3.05 1.692zm562.521-33.36z" fill="#c62828" fill-rule="nonzero"/><path d="M1019.751 38.902C979.127 15.919 914.206-6.188 846.925 2.88c42.788 5.395 81.298 20.509 108.742 36.02 59.018 33.386 148.58 176.762 44.46 297.228-66.297 76.68-181.526 128.69-259.426 156.365-20.287 16.358-24.315 23.672-16.79 23.672 11.277 0 236.133-59.58 340.3-180.037 104.12-120.462 14.608-263.838-44.46-297.227zM199.17 361.773c90.89-96.245 229.554-116.645 229.554-116.645-70.616-5.224-121.156-22.614-156.965-44.555-.01 0-113.434 1.8-202.33 104.316C-19.47 407.404-6.368 455.42 22.645 426.797c29.013-28.634 81.672-77.408 176.525-65.024z" fill="#aa153c" fill-rule="nonzero"/><path d="M.548 423.521c.025-18.846 17.44-59.795 68.634-118.849C158.177 202.064 271.69 200.254 271.754 200.25h.093l.084.054c35.755 21.9 86.24 39.287 156.817 44.505l.025.65c-.025.009-8.651 1.278-23.062 4.691-14.405 3.403-34.56 8.966-57.562 17.524-45.996 17.115-103.342 46.26-148.737 94.331l-.113.118-.168-.02c-10.343-1.352-20.179-1.972-29.533-1.972-76.36 0-120.88 41.407-146.716 66.908C17.27 432.56 12.25 435.295 8.3 435.3c-4.83-.02-7.737-4.19-7.752-11.779zm252.138-220.74c-12.005 1.766-28.949 5.194-48.656 11.824-39.43 13.245-89.95 39.292-134.351 90.495-51.15 58.965-68.486 99.919-68.462 118.416.025 7.486 2.74 11.116 7.073 11.125 3.634.005 8.582-2.601 14.125-8.08 25.85-25.516 70.557-67.104 147.173-67.1 9.34 0 19.146.615 29.45 1.953 83.54-88.346 207.195-112.76 226.932-116.178-69.18-5.455-118.908-22.673-154.3-44.338-.836.03-7.731.231-18.984 1.884zM199.17 361.774zm344.906 57.178c.02-.005 7.097-1.49 19.584-5.65 12.492-4.171 30.37-11.013 51.897-21.725 43.069-21.423 100.745-58.31 159.203-120.157l.477.443C658.203 395.689 544.253 419.587 544.213 419.597l-.137-.645z" fill-rule="nonzero"/><path d="M646.31 435.123C759.824 387.373 775 271.647 775 271.647c-116.974 123.752-230.855 147.63-230.855 147.63s37.063 16.88 102.166 15.846z" fill="#aa153c" fill-rule="nonzero"/><path d="M428.675 245.452l.098-.649c.005 0 2.484.344 7.348.344 8.08 0 22.668-.969 43.098-6.148l.158.635c-20.47 5.198-35.126 6.172-43.256 6.172-4.894 0-7.427-.354-7.446-.354zm427.791 132.276c0-.025 13.87-6.217 34.034-18.616 20.116-12.399 46.527-30.965 71.56-55.65l.443.473c-49.92 49.266-105.348 74.196-105.79 74.398l-.247-.605zM771.524 43.23c-9.586-4.068-15.606-5.71-15.625-5.71l.172-.635c.039.015 97.1 26.465 130.396 128.67l-.639.202c-24.886-76.39-85.523-110.33-114.304-122.527z" fill-rule="nonzero"/><path d="M886.172 165.659s-1.328-108.063-54.05-160.27c-25.664 5.233-51.44 15.28-76.13 31.816 0 0 96.933 26.426 130.18 128.454z" fill="#aa153c" fill-rule="nonzero"/><path d="M609.218 63.242s28.319-29.785 75.19-18.552c46.87 11.224 123.766 55.906 136.696 84.953 12.935 29.047-39.537 56.146-72.735 13.668-33.198-42.48-64.449-55.655-99.112-57.612-34.664-1.948-45.41-9.448-40.04-22.457zm319.418 13.879s-18.541-14.651-10.279-22.944c8.312-8.301 58.134 7.319 84.003 45.405 25.87 38.082 42.002 64.93 28.33 71.28-13.673 6.345-18.592 12.694-41.51-21.478-22.969-34.181-60.544-72.263-60.544-72.263z" fill="#fff" fill-opacity=".39" fill-rule="nonzero"/><ellipse cx="1013.18" cy="118.398" rx="4.864" ry="3.872" fill="#fff" fill-opacity=".39" transform="matrix(1,0,0,1,-301,-161) matrix(1,0,0,1,0,20) matrix(4.91822,0,0,4.91822,-3796.46,-408.342)"/><ellipse cx="947.012" cy="131.999" rx="5.709" ry="5.262" fill="#fff" fill-opacity=".39" transform="matrix(1,0,0,1,-301,-161) matrix(1,0,0,1,0,20) matrix(4.91822,0,0,4.91822,-3796.46,-408.342)"/><ellipse cx="874.567" cy="195.881" rx="4.12" ry="3.127" fill="#fff" fill-opacity=".39" transform="matrix(1,0,0,1,-301,-161) matrix(1,0,0,1,0,20) matrix(3.44816,-3.50718,3.50718,3.44816,-3197.73,2946.74)"/><path d="M243.533 375.711s-20.268-4.146-2.931-21.478c17.327-17.327 107.896-66.887 154.771-72.253 46.871-5.38 56.147-1.953 59.078 12.689 2.926 14.651 6.344 39.552-38.569 43.944-44.923 4.397-107.414 9.28-126.944 15.133-19.53 5.858-36.62 21.965-45.405 21.965z" fill="#fff" fill-opacity=".39" fill-rule="nonzero"/></svg>