<svg viewBox="0 0 224 493" xmlns="http://www.w3.org/2000/svg" fill-rule="evenodd" clip-rule="evenodd" stroke-linejoin="round" stroke-miterlimit="2"><path d="M139.73 72.276c-6.266-46.592-14.712-73.47-17.711-71.58-4.266 4.697-13.553 35.25-25.79 88.04 16.181 13.095 36.807.919 43.5-16.46z" fill="#f27272" fill-rule="nonzero"/><path d="M88.22 124.147c23.08 18.803 50.484-4.772 56.732-22.4 6.225-13.086 4.022-27.171-4.997-32.252-2.971 3.45-17.046 35.38-44.09 18.593-9.86 12.604-13.24 28.41-7.644 36.06z" fill="#f27272" fill-rule="nonzero"/><path d="M76.47 169.938c29.427 26.388 65.997-2.914 74.77-25.783 8.579-16.87 6.204-35.628-5.377-42.945-3.996 4.358-23.479 45.597-58.148 21.604-13.305 15.988-18.271 36.642-11.246 47.124z" fill="#f7ae1a" fill-rule="nonzero"/><path d="M151.49 197.798c11.596-10.8 15.017-51.749 1.226-57.868-8.695 17.705-40.557 62.2-78.717 25.288-16.254 15.45-17.817 31.255-9.997 43.908 29.95 29.298 73.552 5.703 87.488-11.328z" fill="#f7ae1a" fill-rule="nonzero"/><path d="M169.263 230.371c8.209-17.636 2.336-40.805-8.545-50.931-17.534 29.904-54.506 58.475-98.994 23.802-12.85 19.21-15.217 47.288-4.17 62.089 50.432 42.828 102.506-10.87 111.71-34.96z" fill="#6fc26c" fill-rule="nonzero"/><path d="M173.134 298.135c16.93-23.374 7.264-48.622-9.383-61.144-9.089 14.991-63.1 60.257-104.938 24.725-13.353 6.604-24.38 51.666-8.128 59.673 65.01 32.6 116.57-15.947 122.449-23.254z" fill="#6fc26c" fill-rule="nonzero"/><path d="M189.069 364.348c22.659-29.431 11.366-62.493-9.402-79.426-12.268 18.958-83.311 74.993-135.332 27.182-17.368 7.928-33.4 65.65-12.943 76.735 81.797 45.071 149.844-15.315 157.677-24.49z" fill="#3e8ae6" fill-rule="nonzero"/><path d="M207.083 446.922c28.99-35.492 16.176-77.944-8.892-100.74-15.8 23.024-105.451 88.636-168.058 24.735-21.72 8.768-43.493 80.373-18.61 95.778 99.472 62.543 185.573-8.762 195.56-19.773z" fill="#3e8ae6" fill-rule="nonzero"/></svg>