<svg viewBox="0 0 783 282" xmlns="http://www.w3.org/2000/svg" fill-rule="evenodd" clip-rule="evenodd" stroke-linejoin="round" stroke-miterlimit="2"><g transform="matrix(1,0,0,1,-630,-427) matrix(1.76282,0,0,1.76282,419.057,-147.263)"><path d="M269.596 463.147c11.757-10.197-5.701-45-5.701-45 15.055 11.555 24.388 28.025 41.736 20.955 7.849-5.002 2.571-10.977 5.96-19.563 2.886-7.313 5.193-13.025 3.218-17.976h.001a10.26 10.26 0 00-.755-1.513c-8.202-13.584-32.598-2.759-42.495 2.252 4.793-8.117 25.738-24.291 20.499-37.807-2.548-6.572-12.25-4.624-20.218-7.198-8.012-2.588-14.634-7.606-20.514-3.648-11.491 7.735-1.664 39.482-1.664 39.482s-17.273-22.892-29.429-19.286c-7.198 2.134-6.527 9.619-9.626 18.125-3.279 9.003-8.605 13.389-4.094 19.93 8.26 11.976 41.66 3.036 41.66 3.036s-25.292 26.177-19.337 40.006c2.957 6.867 11.992 4.786 20.761 6.829 8.397 1.956 14.59 6.066 19.998 1.376zm-19.013-53.175a9.006 9.006 0 015.129-11.66 9.007 9.007 0 116.53 16.789 9.007 9.007 0 01-11.659-5.129z" fill="#4e61e9" fill-rule="nonzero"/><circle cx="258.02" cy="406.706" r="9.966" fill="#ffd400"/></g><g transform="matrix(1,0,0,1,-630,-427) matrix(1.76282,0,0,1.76282,419.057,-147.263)"><path d="M434.147 460.243c11.57-10.035-5.61-44.284-5.61-44.284 14.815 11.371 24 27.579 41.072 20.622 7.724-4.923 2.53-10.803 5.865-19.253 2.841-7.196 5.111-12.817 3.168-17.689v-.001c-.201-.504-.447-1-.743-1.489-8.071-13.368-32.08-2.715-41.819 2.217 4.716-7.988 25.328-23.906 20.173-37.206-2.507-6.468-12.055-4.551-19.897-7.084-7.885-2.547-14.401-7.485-20.187-3.59-11.309 7.612-1.638 38.854-1.638 38.854s-16.998-22.527-28.961-18.979c-7.083 2.1-6.424 9.466-9.473 17.837-3.227 8.86-8.468 13.176-4.029 19.613 8.128 11.786 40.998 2.988 40.998 2.988s-24.89 25.76-19.03 39.37c2.91 6.757 11.802 4.709 20.431 6.72 8.264 1.925 14.358 5.97 19.68 1.354zm-18.711-52.33a8.863 8.863 0 015.048-11.474 8.863 8.863 0 0111.474 5.048 8.863 8.863 0 01-5.048 11.474 8.863 8.863 0 01-11.474-5.048z" fill="#4e61e9" fill-rule="nonzero"/><circle cx="423.697" cy="405.278" r="9.445" fill="#ffd400"/></g><g transform="matrix(1,0,0,1,-630,-427) matrix(1.76282,0,0,1.76282,419.057,-147.263) matrix(0.765372,0.643588,-0.643588,0.765372,109.944,-204.961)"><path d="M434.147 460.243c11.57-10.035-5.61-44.284-5.61-44.284 14.815 11.371 24 27.579 41.072 20.622 7.724-4.923 2.53-10.803 5.865-19.253 2.841-7.196 5.111-12.817 3.168-17.689v-.001c-.201-.504-.447-1-.743-1.489-8.071-13.368-32.08-2.715-41.819 2.217 4.716-7.988 25.328-23.906 20.173-37.206-2.507-6.468-12.055-4.551-19.897-7.084-7.885-2.547-14.401-7.485-20.187-3.59-11.309 7.612-1.638 38.854-1.638 38.854s-16.998-22.527-28.961-18.979c-7.083 2.1-6.424 9.466-9.473 17.837-3.227 8.86-8.468 13.176-4.029 19.613 8.128 11.786 40.998 2.988 40.998 2.988s-24.89 25.76-19.03 39.37c2.91 6.757 11.802 4.709 20.431 6.72 8.264 1.925 14.358 5.97 19.68 1.354zm-18.711-52.33a8.863 8.863 0 015.048-11.474 8.863 8.863 0 0111.474 5.048 8.863 8.863 0 01-5.048 11.474 8.863 8.863 0 01-11.474-5.048z" fill="#4e61e9" fill-rule="nonzero"/><circle cx="423.697" cy="405.278" r="9.445" fill="#ffd400"/></g><g transform="matrix(1,0,0,1,-630,-427) matrix(1.76282,0,0,1.76282,419.057,-147.263) matrix(0.237722,0.971333,-0.971333,0.237722,804.383,-129.61)"><path d="M434.147 460.243c11.57-10.035-5.61-44.284-5.61-44.284 14.815 11.371 24 27.579 41.072 20.622 7.724-4.923 2.53-10.803 5.865-19.253 2.841-7.196 5.111-12.817 3.168-17.689v-.001c-.201-.504-.447-1-.743-1.489-8.071-13.368-32.08-2.715-41.819 2.217 4.716-7.988 25.328-23.906 20.173-37.206-2.507-6.468-12.055-4.551-19.897-7.084-7.885-2.547-14.401-7.485-20.187-3.59-11.309 7.612-1.638 38.854-1.638 38.854s-16.998-22.527-28.961-18.979c-7.083 2.1-6.424 9.466-9.473 17.837-3.227 8.86-8.468 13.176-4.029 19.613 8.128 11.786 40.998 2.988 40.998 2.988s-24.89 25.76-19.03 39.37c2.91 6.757 11.802 4.709 20.431 6.72 8.264 1.925 14.358 5.97 19.68 1.354zm-18.711-52.33a8.863 8.863 0 015.048-11.474 8.863 8.863 0 0111.474 5.048 8.863 8.863 0 01-5.048 11.474 8.863 8.863 0 01-11.474-5.048z" fill="#4e61e9" fill-rule="nonzero"/><circle cx="423.697" cy="405.278" r="9.445" fill="#ffd400"/></g><g transform="matrix(1,0,0,1,-630,-427) matrix(1.76282,0,0,1.76282,419.057,-147.263)"><path d="M315.868 482.185c17.545-.999 25.964-44.152 25.964-44.152 5.479 20.718 2.453 41.879 22.837 47.535 10.467.947 9.874-8.036 18.829-13.371 7.627-4.543 13.631-8.056 15.283-13.843.172-.599.296-1.223.371-1.874 2.045-17.801-27.23-24.965-39.533-27.316 9.885-3.947 39.768-3.946 44.415-19.641 2.259-7.632-7.757-12.588-13.102-20.388-5.374-7.843-7.828-16.898-15.815-17.419-15.609-1.018-28.738 34.137-28.738 34.137s.362-32.38-12.99-37.548c-7.906-3.061-12.473 4.091-21.113 9.555-9.145 5.783-16.931 6.026-17.414 14.985-.885 16.405 35.136 31.468 35.136 31.468s-40.671 5.938-44.894 22.408c-2.097 8.177 7.414 12.554 13.842 20.432 6.154 7.544 8.852 15.492 16.922 15.032zm19.709-60.647c1.588-5.388 7.244-8.468 12.632-6.88 5.388 1.589 8.468 7.244 6.88 12.632s-7.244 8.469-12.632 6.88c-5.388-1.588-8.468-7.244-6.88-12.632z" fill="#4bd15d" fill-rule="nonzero"/><circle cx="344.584" cy="424.414" r="12.346" fill="#ffd400"/></g></svg>