<svg viewBox="0 0 785 120" xmlns="http://www.w3.org/2000/svg" fill-rule="evenodd" clip-rule="evenodd" stroke-linejoin="round" stroke-miterlimit="2"><path d="M19.093 25.198S-12.533 46.353 8.197 93.824c3.493-.972 330.992 70.688 772.221-20.561 4.768-.303 8.075-36.803-18.491-56.506-1.815-4.421-443.962 60.389-742.834 8.44" fill="#990e0e" fill-rule="nonzero"/><path d="M19.092 16.424s-31.623 29.928-10.895 77.4c3.494-.973 334.227 53.847 772.223-20.564 4.764-.301 8.075-45.575-18.494-65.275-1.813-4.418-443.96 60.386-742.834 8.44" fill="#d800ce" fill-rule="nonzero"/><path d="M10.764 29.614S-7.788 52.385 5.009 86.953c3.486-.72 337.415 37.62 775.412-17.506 4.767-.226 8.076-28.055-7.737-48.36-1.809-3.273-463.048 47.01-761.92 8.527" fill="#b615ba" fill-rule="nonzero"/><path d="M774.3 22.936C341.14 96.871 11.32 31.754 7.843 33.006 12.841 14.96 20.52 16.912 20.52 16.912c297.77 66.95 736.689-21.54 738.492-15.848 0 0 9.755 4.517 15.287 21.871" fill="#939" fill-rule="nonzero"/></svg>