<svg viewBox="0 0 938 536" xmlns="http://www.w3.org/2000/svg" fill-rule="evenodd" clip-rule="evenodd" stroke-linejoin="round" stroke-miterlimit="2"><path d="M479.848 535.683c-50.314-.376-100.494-2.832-150.475-7.949-32.098-3.286-64.185-6.7-96.188-10.58-17.33-2.1-33.69-7.808-50.479-11.915-23.125-5.656-46.414-10.77-68.557-19.162-38.236-14.487-69.383-37.038-95.95-64.406-21.255-21.897-23.337-49.1-7.49-74.228 3.472-5.504 7.655-10.588 11.878-15.67 13.01-15.655 31.988-21.78 52.704-24.816 25.132-3.683 50.115-2.404 74.714 3.325 3.942.918 4.907.137 5.65-3.069 5.047-21.755 7.025-43.786 8.196-65.896 1.296-24.498 1.315-49.05 3.757-73.496 3.576-35.792 15.077-69.028 42.907-96.704 22.076-21.953 50.151-35.983 81.237-45.865 34.86-11.082 71.007-17.229 107.791-20.908C431.29 1.17 463.133.2 495.042 1.23c51.863 1.675 102.823 7.91 151.681 23.97 24.106 7.923 46.748 18.19 65.698 33.684 23.395 19.126 37.007 43.116 44.953 69.818 6.593 22.158 9.26 44.804 10.983 67.554 2.57 33.912 3.425 67.908 6.558 101.792.814 8.8.706 8.708 10.919 8.236 9.377-.433 18.42-2.813 27.718-3.497 47.154-3.467 84.506 10.993 111.923 45.165 15.917 19.837 15.107 40.18 5.167 61.004-11.837 24.797-32.725 43.172-57.983 58.008-28.353 16.653-59.789 27.373-92.352 35.81-39.129 10.135-79.181 16.49-119.514 21.623-30.78 3.918-61.621 7.341-92.692 9.11a1366.16 1366.16 0 01-88.25 2.177h-.003z" fill-rule="nonzero"/></svg>