<svg viewBox="0 0 872 536" xmlns="http://www.w3.org/2000/svg" fill-rule="evenodd" clip-rule="evenodd" stroke-linejoin="round" stroke-miterlimit="2"><path fill="none" d="M0 0h871.696v535.076H0z"/><path d="M178.695 367.527l431.04.317c49.666.036 100.129.727 149.472-2.865 15.821-1.152 30.895-2.964 46.514-5.04 9.228-1.229 18.458-2.452 27.689-3.68 7.35-.973 15.673 15.26 18.056 19.265 12.956 21.796 15.069 45.73 11.933 68.835-2.592 19.08-4.096 47.785-29.888 60.516-27.423 13.543-69.116 9.633-101.029 6.573l-119.397-11.444c-55.704-5.34-114.473-11.062-170.894-9.943-60.455 1.197-119.762 4.373-179.671 9.762-43.954 3.953-87.908 7.908-131.862 11.866-33.375 2.998-82.664 6.792-101.318-14.842-18.056-20.95-21.156-50.085-20.729-73.999.261-14.79 3.371-29.663 10.86-43.66 3.156-5.902 11.005-24.086 22.252-22.728 23.375 2.819 46.92 6.6 70.507 8.505 21.885 1.767 44.443 1.715 66.465 2.562" fill="#141a16"/><path d="M29.341 497.36c7.376 16.398 51.366 16.239 71.15 16.52 10.73.153 21.575-1.421 32.178-2.375 44.08-3.965 88.157-7.932 132.238-11.896 59.446-5.349 118.316-8.38 178.29-9.57 56.774-1.123 115.88 4.785 171.93 10.162 39.462 3.779 78.921 7.562 118.384 11.346 32.472 3.112 75.908 7.028 102.713-8.105 7.992-4.51 13.438-10.548 16.252-17.186-10.505 18.386-29.67 37.514-62.615 38.406-14.319.39-30.29.422-44.462-.842-32.551-2.896-65.094-5.797-97.646-8.693-65.55-5.839-130.216-12.098-196.378-13.506-60.038-1.275-120.42 3.454-179.783 9.059-37.89 3.577-75.782 7.154-113.667 10.734-33.29 3.143-73.328 7.946-103.842-3.802-11.863-4.566-20.776-11.573-24.742-20.252" fill="#333"/><path d="M834.228 355.91c0-20.925-2.75-41.1-8.055-61.728-5.197-20.216-2.642-40.447-4.306-60.887-3.598-44.063-25.105-90.26-71.962-122.954-46.815-32.672-106.898-55.78-170.368-71.724-17.417-4.376-35.132-8.234-53.038-11.657a1144.99 1144.99 0 00-28.284-5.02c-4.851-.796-9.712-1.567-14.58-2.308-7.794-1.184-9.193-1.958-14.824-5.228-12.855-7.464-48.96-5.935-63.282-1.124-1.932.653-5.844 4.874-6.577 4.925-4.602.299-9.193.6-13.795.9-6.288.414-12.493.807-18.637 1.816-16.674 2.728-32.902 5.435-49.11 9.15-31.138 7.144-60.582 16.714-90.057 26.324-47.645 15.529-92.393 37.93-116.344 69.986-13.575 18.16-27.421 36.33-35.479 55.957-4.388 10.684-11.745 22.232-13.623 33.225-1.97 11.547-3.947 23.09-5.92 34.632-3.703 21.634-8.686 43.061-13.695 64.59-1.467 6.305-1.584 12.52-1.899 18.91-.322 6.428 3.394 20.211-3.232 25.631 29.205 3.523 58.57 8.418 88.244 9.562 22.52.868 44.977 2.05 67.534 2.066 78.184.056 156.373.116 234.562.173 69.957.049 139.903.103 209.856.154 56.48.043 112.938-.563 168.362-7.925 10.112-1.345 20.222-2.687 30.331-4.03-.56-1.052-.84-2.523-1.822-3.417" fill-rule="nonzero"/><path d="M408.97 279.048l119.823-21.835c-13.236 37.459-48.954 64.307-90.943 64.307-53.248 0-96.41-43.166-96.41-96.414 0-2.37.09-4.725.254-7.058 0-.14 0-.284.034-.423h.127l108.447-19.659-58.43 58.43a15.769 15.769 0 00-1.228 2.163 14.925 14.925 0 003.057 16.86 15.068 15.068 0 007.782 4.09h.03c.777.147 1.567.221 2.358.22a14.292 14.292 0 002.587-.24l2.511-.441z" fill="#fff" fill-rule="nonzero"/><path d="M534.276 225.106c0 2.445-.089 4.862-.267 7.253l-103.942 18.943 56.313-55.77.572-.572a15.101 15.101 0 003.997-13.172 15.216 15.216 0 00-12.24-12.156 12.166 12.166 0 00-4.235.02l-3.658.661-123.867 22.602c13.248-37.417 48.95-64.218 90.9-64.218 53.24 0 96.427 43.187 96.427 96.41z" fill="#fff" fill-rule="nonzero"/></svg>