<svg viewBox="0 0 938 938" xmlns="http://www.w3.org/2000/svg" fill-rule="evenodd" clip-rule="evenodd" stroke-linejoin="round" stroke-miterlimit="2"><path d="M462.452 66.93c218.577-.415 300.078 80.704 341.866 188.001 41.783 107.298 78.808 258.514 85.628 309.362 7.371 54.996 14.747 130.006-41.788 185.343-56.53 55.338-228.593 191.834-384.68 188.144-156.078-3.686-331.825-138.956-366.24-179.534-34.408-40.582-81.113-100.84-51.618-211.51 0 0 72.146-261.708 104.103-305.98C181.673 196.49 243.88 67.34 462.452 66.93" fill="#990e0e" fill-rule="nonzero"/><path d="M465.613.338c238.643-.43 327.634 84.24 373.256 196.235 45.621 111.994 86.045 269.835 93.486 322.907 8.053 57.404 16.106 135.701-45.621 193.458C825.01 770.7 637.149 913.175 466.733 909.323c-170.408-3.848-362.29-145.042-399.861-187.397-37.573-42.36-88.562-105.252-56.357-220.774 0 0 78.768-273.168 113.654-319.376C159.055 135.568 226.97.764 465.613.338" fill="#c62828" fill-rule="nonzero"/></svg>