<svg viewBox="0 0 945 524" xmlns="http://www.w3.org/2000/svg" fill-rule="evenodd" clip-rule="evenodd" stroke-linejoin="round" stroke-miterlimit="2"><path d="M762.556 174.63c52.397-38.95 114.826-191.483 157.116-139.424 1.573 6.643 1.636 4.04 4.783 18.94-40.78-70.28-97.419 84.657-158.337 132.031 7.048 34.359 33.732 131.71 4.531 207.194 144.492-99.432 153.554-151.491 173.189-220.73.088 3.77.944 19.752.918 24.593-13.09 49.977-28.608 113.364-182.666 216.44C608.032 516.751 511.872 524.56 470.59 523.52c-41.283-1.041-142.478-16.139-273.88-108.283C65.31 323.092 16.727 238.496 1.25 193.205c-.885-16.524-.765-30.975 1.46-43.47 15.447 103.421 114.122 188.11 186.952 246.76-18.456-41.304-21.477-122.515 7.804-212.14C139.99 127.173 68.159-46.005 33.612 32.093c1.057-3.113 5.004-17.669 6.021-20.824 43.548-53.63 112.954 111.427 163.622 161.373 10.069 9.37 31.717 48.414 105.725 30.194 74.008-18.22 63.435-78.089 160.602-77.568 97.167.52 107.236 69.759 168.154 85.897 60.918 16.139 104.72-20.303 124.82-36.535z" fill="#6ce8e7" fill-rule="nonzero"/><path d="M204.765 192.768s-42.29 139.518 2.014 214.482c85.587 52.06 158.76 98.912 262.47 104.118 103.712 5.206 195.341-49.976 282.596-100.64 44.304-74.965 4.707-218.648 4.707-218.648s-54.374 51.018-122.844 29.153c-68.47-21.864-66.123-82.95-161.78-83.991-95.656-1.042-88.94 58.65-164.458 78.432-75.519 19.782-102.705-22.906-102.705-22.906z" fill="#6dd7dd" fill-rule="nonzero"/><path d="M360.504 289.951c-83.242-11.453-144.33-15.274-173.108 3.072.503-14.441 1.933-28.758 6.293-52.705 78.035 44.25 190.81 56.224 276.9 56.224 86.09 0 205.158.78 295.277-58.827 6.432 34.411 6.62 48.134 6.709 63.366-64.354-27.445-150.033-7.944-216.49-5.861-66.828.551-112.703 4.727-195.581-5.269zm11.408 89.365c-88.105-17.18-154.48-49.446-183.258-31.09-1.742-11.078-2.376-26.03-1.832-39.471 78.035 44.25 196.921 82.274 283.012 82.274 86.09 0 212.206-17.18 302.326-76.787-.504 10.412-1.007 22.385-2.77 33.838-10.32-12.494-123.599 27.591-191.062 35.4-67.463 7.81-118.312 13.015-206.416-4.164z" fill="#4cc8d7" fill-rule="nonzero"/><path d="M390.399 463.797c-73.958-22.719-170.621-78.755-188.212-64.897-3.212-7.673-7.995-18.668-10.512-31.558 78.036 44.25 196.85 111.406 282.942 111.406 86.09 0 201.885-46.593 292.005-106.2-2.467 11.078-6.319 21.77-11.353 31.902-10.321-12.495-117.896 43.823-183.073 59.909-65.177 16.097-107.83 22.146-181.797-.562z" fill="#4cc8d7" fill-rule="nonzero"/><path d="M471.596 145.571c-40.609-1.385-65.45 15.618-84.58 30.194 35.795 29.434 38.715 98.537 38.937 115.571 34.567 3.821 51.684 2.78 88.265 1.385.121-21.802 4.028-94.393 38.938-117.997-21.146-17.7-40.951-27.768-81.56-29.153zm0 154.355c-40.609-1.385-41.787-.26-71.239-2.603 28.193 22.385 34.527 70.165 34.738 87.198 34.568 3.822 36.42 2.947 73.001 1.562.121-21.802 4.783-66.115 31.466-86.418-23.159-.52-27.357 1.645-67.966.26zm-52.359 89.801c24.417 4.165 78.79 5.727 105.977 2.083-24.418 18.74-23.914 53.36-23.663 82.513-19.886 4.425-38.514 2.863-56.135-.78-.503-20.304-2.517-64.814-26.18-83.816z" fill="#6ce8e7" fill-rule="nonzero"/><path d="M433.786 476.666c26.18 6.247 50.537 6.06 78.177 2.27-16.292 6.632-17.39 24.8-17.208 31.62-8.79.937-30.943 1.697-42.472-1.145-.18-7.57-2.658-23.614-18.497-32.745z" fill="#6ce8e7" fill-rule="nonzero"/></svg>