<svg viewBox="0 0 595 351" xmlns="http://www.w3.org/2000/svg" fill-rule="evenodd" clip-rule="evenodd" stroke-linejoin="round" stroke-miterlimit="2"><path d="M287.038 1.07c24.809.914 71.12 5.921 115.952 44.752 59.732 51.73 103.114 87.235 139.18 96.808 50.481 13.4 68.266 48.403 34.753 91.49-26.645 34.26-150.218 120.512-281.15 116.252-137.456-4.47-228.68-69.45-273.36-117.316-44.677-47.872-16.36-78.315 32.71-97.876 32.033-12.764 90.792-76.615 136.17-101.062C227.1 14.832 251.207-.25 287.039 1.07" fill="#f8b133" fill-rule="nonzero"/><path d="M485.718 295.554c-30.313-12.367-61.388-22.868-92.824-31.758-15.729-4.4-31.567-8.353-47.526-11.654-15.98-3.1-32.044-5.755-48.178-7.044-32.355-2.463-64.91-.366-97.25 2.238-32.369 2.86-64.683 7.109-96.26 15.843l-.366-.933c14.885-7.17 30.8-12.056 46.818-16.054 16.045-4.029 32.37-6.768 48.77-8.835 32.831-3.979 66.114-3.863 99.05-.251 16.506 1.831 32.736 5.032 48.816 8.664 16.039 3.833 31.877 8.308 47.57 13.22 31.256 10.235 61.935 22.02 91.791 35.646l-.411.918zM224.407 105.972c-2.074 9.192-4.781 16.402-6.052 16.116-1.27-.287-.618-7.961 1.456-17.153 2.074-9.192 4.781-16.403 6.052-16.116 1.27.287.618 7.961-1.456 17.153m137.999-1.147c2.51 9.083 3.529 16.717 2.273 17.064-1.255.347-4.303-6.726-6.814-15.808-2.511-9.083-3.529-16.717-2.274-17.064 1.256-.347 4.304 6.726 6.815 15.808" fill="#42382d" fill-rule="nonzero"/></svg>