<svg viewBox="0 0 1395 881" xmlns="http://www.w3.org/2000/svg" fill-rule="evenodd" clip-rule="evenodd" stroke-linejoin="round" stroke-miterlimit="2"><path fill="none" d="M0 0h1394.966v880.877H0z"/><path d="M1186.81 45.59c-9.683-5.943-37.357-22.03-46.85-27.535 2.187 6.413-873.47-.854-870.181-9.514-55.82 27.214-116.742 74.193-139.522 100.53C53.147 198.224 7.14 270.517 10.387 410.626c3.532 152.114 62.11 219.095 118.925 282.622 48.047 53.716 277.42 164.442 535.642 174.642 312.02 12.314 525.203-99.987 599.48-166.265 57.815-51.596 125.5-146.139 125.5-298.289 0-140.146-55.843-267.37-203.125-357.747" fill="#cdcdcd" fill-rule="nonzero"/><path d="M1181.994 48.252c-9.583-5.873-36.977-21.77-46.374-27.21 2.165 6.338-864.618-.844-861.363-9.402C219.002 38.533 158.7 84.958 136.15 110.985c-76.329 88.1-121.868 159.54-118.654 297.997 3.496 150.32 61.48 216.51 117.72 279.288 47.56 53.083 274.608 162.502 530.213 172.581 308.857 12.17 519.88-98.807 593.404-164.302 57.23-50.989 124.23-144.416 124.23-294.77 0-138.494-55.278-264.217-201.068-353.527" fill="#fff" fill-rule="nonzero"/><path d="M745.405 262.954s200.459 100.94 250.824 148.724c9.292 8.813 17.634 20.203 24.36 34.823 36.735 79.853 187.189-273.611 116.012-425.46L745.405 262.954z" fill="#cdcdcd" fill-rule="nonzero"/><path d="M852.062 365.602S745.18 256.026 745.402 255.936c6.772-2.733 238.18 78.089 279.577 166.002 36.372 77.237 171.072-259.763 107.05-400.904 0 0-326.251 133.744-386.626 234.902" fill="#fff" fill-rule="nonzero"/><path d="M663.06 250.555s-200.458 100.94-250.823 148.724c-9.292 8.813-17.635 20.204-24.36 34.823-36.735 79.853-187.189-273.611-116.012-425.46L663.06 250.555z" fill="#cdcdcd" fill-rule="nonzero"/><path d="M556.402 353.213s106.882-109.576 106.66-109.666c-6.772-2.733-238.18 78.09-279.577 166.002-36.372 77.237-171.072-259.763-107.05-400.904 0 0 326.251 133.745 386.626 234.902" fill="#fff" fill-rule="nonzero"/><path d="M735.72 482.36c0 6.44-.237 12.817-.71 19.13A253.24 253.24 0 01721.28 567C686.4 665.83 592.2 736.62 481.47 736.62c-140.42 0-254.25-113.84-254.25-254.26 0-6.247.223-12.45.67-18.61 0-.37.05-.75.09-1.12a252.818 252.818 0 0112.86-62.57c.3-.87.6-1.74.91-2.6 34.94-98.67 129.08-169.35 239.72-169.35 140.42 0 254.25 113.89 254.25 254.25z" fill="url(#wear-5_svg___Linear1)" fill-rule="nonzero" transform="matrix(1.01622,0,0,0.951954,-348.516,-902.03) matrix(0.976854,0,0,1.0428,36.6492,-83.0156) matrix(1.46461,0,0,1.42299,988.655,901.387) matrix(0.229052,0,0,0.235752,122.303,363.637)"/><path d="M1092.754 594.429a84.347 84.347 0 01-4.57 21.816L982.95 635.42l-2.232.407a12.74 12.74 0 01-2.274.21 10.863 10.863 0 01-2.071-.194h-.027a13.222 13.222 0 01-6.81-3.583 13.113 13.113 0 01-1.606-16.708l51.32-51.322-95.245 17.264-.11.02c.54-7.099 1.98-14.1 4.283-20.837.1-.29.2-.58.303-.866l108.831-19.858 3.214-.583a10.697 10.697 0 013.703-.017 13.346 13.346 0 0110.75 10.677 13.26 13.26 0 01-3.51 11.566l-.503.5-49.46 48.967 91.248-16.634z" fill="#fff" fill-rule="nonzero"/><g><path d="M728.103 350.932s-26.664-17.51-52.638-17.898c-47.024-.701-38.953 8.422-38.953 8.422-24.42 0-43.865-12.983-36.145-55.094l24.565-42.812c11.93-32.987 26.814-32.285 51.235-32.285h46.321c16.919 2.307 31.168 2.955 40.005 15.44 7.02 32.285 18.249 61 18.249 76.5 0 0-11.23 49.13-52.64 47.727" fill="#b22625" fill-rule="nonzero"/><path d="M635.463 337.251s-55.797 107.382-76.852 172.654c-6.909 21.419-43.163 228.45-43.163 228.45l105.467 98.761 18.76 9.323 129.49-102.82-41.058-392.681s-18.95-31.584-45.27-31.584c-26.319 0-47.374 17.897-47.374 17.897" fill="#a91f23" fill-rule="nonzero"/><path d="M635.91 340.947s-52.152 100.369-71.832 161.377c-6.457 20.019-45.12 220.588-45.12 220.588l106.68 103.873 122.121-96.854-25.256-376.192s-17.712-29.52-42.312-29.52c-24.6 0-44.28 16.728-44.28 16.728" fill="#c62127" fill-rule="nonzero"/><path d="M660.61 611.69c23.42-9.56 47.053-18.569 70.76-27.38-.266-6.363-.575-12.724-.869-19.087-.89-9.346-2.27-18.652-4.413-27.895a19.627 19.627 0 01-.457-3.216c-25.749 6.997-51.437 14.195-76.65 22.968-27.303 9.5-54.218 20.872-80.3 33.354-10.064 4.815-20.031 9.913-29.473 15.749-4.535 24.519-9.159 50.09-13.109 72.136 9.71-6.311 19.54-12.435 29.67-18.044 33.665-18.639 69.244-34.057 104.84-48.586m72.36 112.181c-13.342 4.956-26.606 10.12-39.753 15.588-33.782 14.048-66.958 29.792-99.002 47.463-1.295.714-6.375 2.305-7.704 3.012 13.842 12.098 25.336 26.3 40.532 36.847l107.375-85.951c-.751-5.618-1.186-11.286-1.447-16.959M632.304 526.176c31.106-11.037 62.948-19.663 94.781-28.314a9855.116 9855.116 0 01-2.332-47.204c-57.986 17.57-114.74 38.322-168.225 67.305-2.212 9.55-5.398 25.323-9.035 44.208.256-.124.512-.252.768-.374 27.325-13.076 55.495-25.491 84.043-35.621m100.178 161.062c-.195-11.415-.53-22.81-.75-34.253-.203-10.635-.055-21.302.083-31.971-20.765 7.78-41.452 15.761-61.965 24.193-35.128 14.439-70.61 29.694-103.384 48.996-14.93 8.79-29.375 18.326-43.712 28.04 13.207 14.272 26.64 28.323 40.536 41.86 4.547-2.393 9.052-4.779 13.382-7.196 33.44-18.67 68.401-34.788 103.746-49.487 17.2-7.153 34.572-13.843 52.064-20.182m-10.824-317.846c-26.66 6.873-53.149 14.336-79.181 23.345-14.834 5.133-28.825 11.012-42.736 17.416-8.994 19.3-18.396 40.334-26.536 60.359 48.266-22.889 98.718-40.356 150.003-55.62a3738.525 3738.525 0 01-1.55-45.5m-6.196-34.133c-8.034-7.936-19.397-15.912-32.623-15.912-26.32 0-47.375 17.897-47.375 17.897s-5.039 9.701-12.648 25.014c13.45-4.64 27.124-8.695 40.391-12.659 17.315-5.173 34.76-9.853 52.255-14.34" fill-rule="nonzero" opacity=".1"/><path d="M732.319 728.878L622.83 806.783l-87.38-65.271 90.187 85.273 122.121-96.853-25.255-376.192 9.815 375.138z" fill="#fff" fill-rule="nonzero" opacity=".2"/><path d="M732.083 309.912c4.671.648 9.406-1.402 12.948-4.514 8.073-7.094 10.387-19.21 7.806-29.641-2.583-10.43-9.336-19.368-16.99-26.911-4.647-4.58-9.744-8.808-15.601-11.681-8.15-3.998-17.348-5.193-26.368-6.214-7.281-.824-14.718-1.564-21.882-.02-11.124 2.397-20.466 10.116-27.45 19.099-5.401 6.949-9.734 14.99-10.872 23.718-1.138 8.727 1.295 18.199 7.698 24.236 9.707 9.156 24.966 8.19 38.067 5.655 13.1-2.536 27.292-5.927 39.265-.035 4.452 2.19 8.465 5.627 13.38 6.308" fill="#c62127" fill-rule="nonzero"/></g><defs><linearGradient id="wear-5_svg___Linear1" x1="0" y1="0" x2="1" y2="0" gradientUnits="userSpaceOnUse" gradientTransform="matrix(508.5,0,0,508.5,227.22,482.36)"><stop offset="0" stop-color="#ee2238"/><stop offset="1" stop-color="#bf1d67"/></linearGradient></defs></svg>