<svg viewBox="0 0 1376 852" xmlns="http://www.w3.org/2000/svg" fill-rule="evenodd" clip-rule="evenodd" stroke-linejoin="round" stroke-miterlimit="2"><path d="M1173.258 38.581c-9.655-5.868-35.32-21.65-44.787-27.085 2.182 6.333-182.51 226.838-440.855 226.838-258.349 0-432.618-228.791-429.34-237.343-53.53 29.278-115.84 74.27-138.556 100.277C42.83 189.305-3.045 260.692.193 399.048 3.714 549.257 62.124 615.399 118.778 678.13c47.91 53.044 276.629 162.383 534.113 172.455 311.13 12.16 523.705-98.735 597.77-164.183 57.65-50.95 125.143-144.309 125.143-294.554 0-138.391-55.685-264.023-202.546-353.268" fill-rule="nonzero"/><path d="M974.042 691.51H408.098c-16.454 0-29.79-13.34-29.79-29.791V377.775c0-16.454 13.336-29.791 29.79-29.791h565.944c16.452 0 29.789 13.337 29.789 29.79V661.72c0 16.451-13.337 29.79-29.789 29.79" fill="#080606" fill-rule="nonzero" opacity=".6"/><path d="M963.788 671h-555.69c-16.453 0-29.79-13.34-29.79-29.791V377.773c0-16.454 13.337-29.79 29.79-29.79h555.69c16.454 0 29.79 13.336 29.79 29.79V641.21c0 16.451-13.336 29.79-29.79 29.79" fill="#201f1d" fill-rule="nonzero"/><path fill="#c6c2be" d="M559.182 476.164H491.11v169.2h68.072z"/><path fill="#969ab5" d="M559.182 558.2H491.11v87.165h68.072z"/><path fill="#c6c2be" d="M665.54 476.164h-68.072v169.2h68.072zm119.125 0H716.59v169.2h68.074z"/><path fill="#d0314a" d="M891.037 476.164h-68.07v169.2h68.07z"/><path fill="#969ab5" d="M665.54 558.2h-68.072v87.165h68.072zm119.125 0H716.59v87.165h68.074z"/><path fill="#921922" d="M891.038 558.2h-68.071v87.165h68.071z" opacity=".26"/><path fill="#d0314a" d="M716.594 373.62h174.44v82.035h-174.44zm-225.489 61.527H665.54v20.509H491.105zm0-30.764H665.54v20.509H491.105z"/><path fill="#3eaee3" d="M491.105 373.62H665.54v20.51H491.105z"/><path fill="#aca535" d="M470.597 624.854h-46.144v20.51h46.144zm492.216 0h-46.145v20.51h46.145z"/><path fill="#c6c2be" d="M455.217 404.384h-15.381v220.47h15.38zm492.213 0h-15.381v220.47h15.38z"/></svg>