<svg viewBox="0 0 1387 865" xmlns="http://www.w3.org/2000/svg" fill-rule="evenodd" clip-rule="evenodd" stroke-linejoin="round" stroke-miterlimit="2"><path fill="none" d="M0 0h1386.434v864.862H0z"/><path d="M1171.04 39.328c-9.583-5.74-17.24-15.924-26.64-21.239 2.17 6.193 3.06 8.819 4.601 15.152 3.59 14.744 5.449 29.849 5.449 45.23 0 162.547-207.901 294.321-464.363 294.321-256.458 0-464.359-131.774-464.359-294.322 0-15.38 1.86-30.485 5.449-45.23 2.1-8.627 7.286-15.613 10.539-23.974-53.137 28.628-88.993 64.628-111.543 90.057C53.841 185.417 4.136 248.213 7.353 383.507c3.493 146.887 61.48 211.57 117.721 272.913 47.561 51.873 274.602 158.798 530.213 168.643 308.856 11.894 519.879-96.55 593.4-160.558 57.231-49.82 124.23-141.11 124.23-288.04 0-135.332-56.084-249.864-201.877-337.137" fill="#e5dfe2" fill-rule="nonzero"/><path d="M1176.017 36.579c-9.617-5.889-22.31-13.026-31.744-18.484 2.178 6.358 6.038 14.78 7.585 21.278 3.601 15.128 6.699 30.125 6.699 45.906 0 119.658-107.403 223.061-263.146 271.94-61.332 19.25-130.16 290.98-202.88 290.98-78.16 0-151.83-273.41-216.527-295.45C327.67 302.225 226.511 201.408 226.511 85.28c0-15.78 1.866-31.279 5.468-46.407 2.107-8.852 6.436-21.034 9.7-29.612-55.057 28.724-96.9 63.925-119.53 90.016C45.543 187.607 4.125 259.435 7.354 398.256c3.505 150.71 61.7 217.076 118.142 280.017C173.228 731.5 401.081 841.21 657.607 851.306c309.962 12.203 521.74-99.064 595.524-164.733 57.436-51.12 124.674-144.788 124.674-295.542 0-138.855-55.473-264.907-201.788-354.452" fill="#55b2ce" fill-rule="nonzero"/><path d="M860.721 380.72s75.778-26.876 126.513 21.26c9.36 8.877 17.765 20.351 24.54 35.079 37.005 80.44 204.452-265.979 132.752-418.94 0 0-222.373 257.249-283.805 362.6" fill="#336972" fill-rule="nonzero"/><path d="M860.721 380.703s.118-.051.345-.144c6.885-2.842 115.847-46.12 157.969 45.437 37.01 80.44 190.525-260.884 125.387-407.877 0 0-222.27 257.232-283.7 362.584" fill="#3c8899" fill-rule="nonzero"/><path d="M513.437 382.01s-78.843-28.166-129.578 19.97c-9.36 8.877-17.765 20.351-24.54 35.079-37.005 80.44-189.351-274.831-117.651-427.797 0 0 210.337 267.395 271.769 372.747" fill="#336972" fill-rule="nonzero"/><path d="M513.437 382.01s-117.873-50.58-161.379 43.986c-37.01 80.44-175.48-269.74-110.342-416.734 0 0 210.289 267.395 271.72 372.747" fill="#3c8899" fill-rule="nonzero"/><path d="M527.028 588.665c-4.673 39.868-49.013 63.673-93.636 54.3-39.592-8.32-65.509-40.417-61.746-72.514 3.762-32.092 36.4-57.334 76.846-56.268 45.573 1.2 83.21 34.61 78.536 74.482" fill="#fff" fill-rule="nonzero"/><path d="M735.72 482.36c0 6.44-.237 12.817-.71 19.13A253.24 253.24 0 01721.28 567C686.4 665.83 592.2 736.62 481.47 736.62c-140.42 0-254.25-113.84-254.25-254.26 0-6.247.223-12.45.67-18.61 0-.37.05-.75.09-1.12a252.818 252.818 0 0112.86-62.57c.3-.87.6-1.74.91-2.6 34.94-98.67 129.08-169.35 239.72-169.35 140.42 0 254.25 113.89 254.25 254.25z" fill="url(#wear-1_svg__wear-1_svg___Linear1)" fill-rule="nonzero" transform="matrix(0.952012,0,0,0.929102,-247.916,-868.919) matrix(4.5859,0,0,4.56542,-646.97,-544.85) matrix(0.333022,0,0,0.333022,221.801,301.915) matrix(0.229052,0,0,0.235752,122.303,363.637)"/><path d="M527.097 586.183a84.346 84.346 0 01-4.57 21.816l-105.234 19.176-2.232.406a12.74 12.74 0 01-2.274.21 10.863 10.863 0 01-2.072-.193h-.026a13.222 13.222 0 01-6.81-3.584 13.113 13.113 0 01-1.606-16.707l51.32-51.322-95.245 17.264-.11.02a84.19 84.19 0 014.282-20.838c.1-.29.2-.58.303-.866l108.832-19.858 3.214-.582a10.697 10.697 0 013.703-.017 13.346 13.346 0 0110.75 10.677 13.26 13.26 0 01-3.51 11.565l-.503.5-49.46 48.968 91.248-16.635z" fill="#fff" fill-rule="nonzero"/><defs><linearGradient id="wear-1_svg__wear-1_svg___Linear1" x1="0" y1="0" x2="1" y2="0" gradientUnits="userSpaceOnUse" gradientTransform="matrix(508.5,0,0,508.5,227.22,482.36)"><stop offset="0" stop-color="#ee2238"/><stop offset="1" stop-color="#bf1d67"/></linearGradient></defs></svg>