<svg viewBox="0 0 1401 853" xmlns="http://www.w3.org/2000/svg" fill-rule="evenodd" clip-rule="evenodd" stroke-linejoin="round" stroke-miterlimit="2"><path fill="none" d="M0-.001h1400.507v852.97H0z"/><path d="M1185.145 30.865a1330.047 1330.047 0 00-28.638-16.928 206.85 206.85 0 015.62 19.215 197.776 197.776 0 015.488 46.25c0 166.222-209.429 300.974-467.773 300.974-258.35 0-467.779-134.752-467.779-300.973 0-15.728 1.876-31.172 5.488-46.251 2.113-8.823 4.834-17.519 8.113-26.07-53.53 29.277-91.342 60.463-114.057 86.47-76.89 88.036-122.765 159.424-119.528 297.78 3.522 150.209 61.932 216.35 118.586 279.083 47.91 53.044 276.628 162.383 534.113 172.455 311.13 12.16 523.705-98.735 597.77-164.183 57.65-50.95 125.143-144.31 125.143-294.554 0-138.392-55.684-264.023-202.546-353.268" fill-rule="nonzero"/><g transform="matrix(0.986544,0,0,1.01581,-296.378,-1035.65) matrix(4.63566,0,0,4.44031,1501.73,1837.84)"><clipPath id="wear-2_svg__a"><path d="M0-177.448a289.966 289.966 0 00-6.262-3.753c.477 1.404.89 2.824 1.229 4.26a44.429 44.429 0 011.2 10.254c0 36.852-45.794 66.727-102.284 66.727-56.491 0-102.285-29.875-102.285-66.727 0-3.487.41-6.911 1.2-10.254a46.667 46.667 0 011.774-5.78c-11.705 6.491-19.973 13.405-24.94 19.171-16.813 19.518-26.844 35.345-26.136 66.019.77 33.302 13.542 47.966 25.93 61.874 10.476 11.76 60.488 36.001 116.79 38.234C-45.752 5.273.73-19.313 16.925-33.823c12.606-11.296 27.364-31.994 27.364-65.304 0-30.682-12.176-58.535-44.289-78.321"/></clipPath><g clip-path="url(#wear-2_svg__a)"><path d="M-72.46-103.938s20.447-2.951 31.54 7.72c2.048 1.969 3.885 4.513 5.367 7.778 8.091 17.834 44.706-58.969 29.028-92.88l-65.935 77.382z" fill="#fff" fill-opacity=".11" fill-rule="nonzero"/><path d="M-162.34-52.421l23.354-4.315c-2.58 7.402-9.541 12.708-17.725 12.708-10.377 0-18.79-8.53-18.79-19.052 0-.469.018-.934.05-1.395 0-.028 0-.056.007-.084h.024l21.136-3.885-11.387 11.547a2.98 2.98 0 00.356 3.76c.415.415.943.697 1.517.807h.006c.151.03.305.044.46.044.168 0 .337-.017.503-.048l.49-.087z" fill="#fff" fill-rule="nonzero"/><path d="M-137.917-63.08c0 .483-.018.96-.052 1.433l-20.258 3.743 10.975-11.02.111-.114c.657-.69.948-1.66.78-2.603a2.986 2.986 0 00-2.386-2.402 2.34 2.34 0 00-.825.004l-.713.131-24.142 4.466c2.582-7.394 9.54-12.69 17.716-12.69 10.377 0 18.794 8.534 18.794 19.052z" fill="#fff" fill-rule="nonzero"/><path d="M-72.438-103.901s-.048.02 0 0c1.507-.631 29.262-7.291 38.472 13.008 8.093 17.834 41.66-57.84 27.418-90.429 0 0-52.457 54.064-65.89 77.42M-141.78-104.11s-19.98-2.779-31.075 7.893c-2.046 1.968-3.884 4.512-5.366 7.777-8.091 17.834-41.403-60.931-25.725-94.844 0 0 48.733 55.818 62.166 79.175" fill="#fff" fill-opacity=".11" fill-rule="nonzero"/><g><path d="M-141.78-104.11s-28.515-7.749-38.028 13.217c-8.093 17.834-38.371-59.803-24.128-92.392 0 0 48.723 55.818 62.156 79.175" fill="#fff" fill-opacity=".11" fill-rule="nonzero"/></g></g></g></svg>