<svg viewBox="0 0 1189 971" xmlns="http://www.w3.org/2000/svg" fill-rule="evenodd" clip-rule="evenodd" stroke-linejoin="round" stroke-miterlimit="2"><path fill="none" d="M0-.005h1188.536v970.453H0z"/><path d="M1119.995 495.93c-1.7-83.01-12.26-151.58 49.44-301.39-115.63-125.997-330.93-175.533-586.64-175.533-311.135 0-482.157 97.134-552.829 173.474 29.02 102.99 34.556 132.45 37.8 267.5C71.28 606.6 29.916 671.36 8.9 747.22c52.354 75.34 226.145 198 552.189 205.49 383.688 8.81 533.687-109.87 606.357-184.2-42.44-115.99-45.75-189.56-47.45-272.58" fill="#fff" fill-rule="nonzero"/><path d="M72.78 161.2s141.376 87.63 227.083 120.92c99.161 38.51 212.161 68.74 250.604 58.29 0 0-2.61-30.99-20.185-54.64-17.6-23.68-180.635-72.81-252.934-129.08-70.599-54.94-95.377-87.581-95.377-87.581s-12.474 4.3-28.048 12.667c-15.58 8.367-16.324 19.815-27.557 29.575-6.138 5.34-26.365 13.1-32.623 18.94C77.114 145.78 72.78 161.2 72.78 161.2m630.637 165.27s90.71 7.41 141.4-16.18c50.7-23.58 212.04-140.72 278.34-146.04 0 0-7.88-28.97-25.79-34.83-11.83-3.88-13.97 4.11-31.9-31.951-21.47-43.195-37.97-38.078-37.97-38.078S871.986 237.17 754.606 250.13c-64.19 7.09-69.27 15.15-69.24 24.93.09 23.92 18.05 51.41 18.05 51.41" fill="#770e0e" fill-rule="nonzero"/><path d="M1097.355 129.42s-39.87 8.86-80.73 31.46c-40.86 22.61-68.97 40.35-71.37 35.95-2.41-4.38 53.26-36.14 68.17-46.63 14.92-10.5 52.88-41.26 52.04-52.727 6.08 8.178 6.23 23.328 31.89 31.948m-989.057-7.88s60.94 49.64 101.79 72.24c40.85 22.6 60.066 29.44 62.473 25.04 2.402-4.39-43.413-22.45-58.335-32.95-7.455-5.24-29.33-17.15-41.293-40.09-11.413-21.89-30.898-49.176-30.485-54.906-7.144 6.76-9.683 18.066-21.33 23.696-4.49 2.16-7.185 4.19-12.82 6.97m475.468 265.11s-14.748 41.24-55.599 63.84c-13.15 7.28-56.3 26.15-66.09 33.39-21.335 15.76-46.604 39.37-46.604 39.37s16.353-31.6 39.155-50.63c18.725-15.65 42.455-30.3 49.18-35.03 14.922-10.49 54.742-74.51 53.904-85.96 6.084 8.17 9.42 24.16 26.054 35.02m27.79-58.03s6.04 43.44 41.4 74.09c11.38 9.87 49.77 37.35 57.87 46.47 17.66 19.88 37.58 48.26 37.58 48.26s-9.57-34.33-27.99-57.72c-15.14-19.22-35.38-38.51-41-44.55-12.46-13.38-38.38-84.34-35.23-95.37-7.61 6.73-14.13 21.67-32.63 28.82m-61.261.77c-9.33 2.13-18.988 1.62-28.347.11-9.395-1.59-18.366-5.05-26.94-9.03-8.54-4.09-16.923-8.53-24.575-14.06-7.773-5.36-14.833-11.62-21.659-18.05l.395-.45c7.336 5.8 14.815 11.35 22.875 15.94 7.832 4.93 16.293 8.72 24.79 12.14 8.599 3.27 17.515 5.29 26.323 7.57 8.839 2.25 17.803 4.02 27.084 5.23l.054.6zm42.82-2.37c-9.32 2.12-18.987 1.62-28.34.11-9.396-1.59-18.366-5.05-26.946-9.03-8.533-4.09-16.917-8.53-24.575-14.06-7.767-5.36-14.827-11.62-21.653-18.05l.395-.45c7.33 5.8 14.815 11.35 22.869 15.94 7.838 4.93 16.293 8.72 24.79 12.14 8.605 3.27 17.515 5.29 26.323 7.57 8.845 2.25 17.808 4.02 27.088 5.23l.05.6zm193.52-49.51c-5.83 7.87-13.35 14.47-21.97 19.34-8.68 4.67-18.57 7.61-28.64 7.48-2.49-.15-5.04-.03-7.52-.42l-7.34-1.14c-4.45-.84-8.85-1.09-13.32-.64-4.48.39-9.08 1.62-14.03 2.28-4.9.75-10.16.64-14.84-.95l.08-.59c4.87-.17 9.39-1.05 13.84-2.58 4.43-1.52 9.08-3.24 14.16-4.17 5.1-.8 10.45-.55 15.4.79l6.85 1.65c2.25.54 4.56.58 6.86.92 9.24.71 18.6-1.41 27.15-5.35 8.57-3.92 16.49-9.74 22.84-16.99l.48.37z" fill="#5b0707" fill-rule="nonzero"/><path d="M615.866 248.46s90.43 10.89 91.48 51.68c1.06 40.79-.96 52.82-21.77 84.11-20.82 31.28-43.9 50.72-61.5 44.51-17.59-6.21-29.82-14.15-50.366-45.12-18.024-27.17-43.43-38.92-43.43-72.83 0-19.47 44.179-57.38 85.586-62.35" fill="#770e0e" fill-rule="nonzero"/><g><path d="M735.72 482.36c0 6.44-.237 12.817-.71 19.13A253.24 253.24 0 01721.28 567C686.4 665.83 592.2 736.62 481.47 736.62c-140.42 0-254.25-113.84-254.25-254.26 0-6.247.223-12.45.67-18.61 0-.37.05-.75.09-1.12a252.818 252.818 0 0112.86-62.57c.3-.87.6-1.74.91-2.6 34.94-98.67 129.08-169.35 239.72-169.35 140.42 0 254.25 113.89 254.25 254.25z" fill="url(#wear-6_svg___Linear1)" fill-rule="nonzero" transform="matrix(0.476451,0,0,0.47645,377.465,464.383)"/></g><g><path d="M727.657 703.317a120.71 120.71 0 01-6.54 31.21l-150.555 27.44-3.193.58c-1.073.2-2.163.3-3.254.3-.994 0-1.987-.09-2.963-.28h-.038a18.926 18.926 0 01-9.744-5.12c-5.603-5.54-7.145-14.04-3.84-21.19.44-.94.956-1.85 1.544-2.72l73.423-73.42-136.267 24.7-.158.02a120.514 120.514 0 016.128-29.81c.143-.41.286-.83.433-1.24l155.704-28.41 4.6-.83c1.75-.32 3.54-.32 5.3-.02 7.78 1.39 13.93 7.49 15.38 15.27 1.08 6-.79 12.16-5.03 16.55l-.72.71-70.76 70.06 130.55-23.8z" fill="#fff" fill-rule="nonzero"/></g><g><path d="M863.777 672.807s-171.1-150.22-227.71-250.24c0 0 62.7-56.08 67.35-96.09 0 0 117.87 119.59 160.36 346.33m-266.02-294.77s6.65 77.11-26.725 113.03c-33.37 35.9-111.55 34.58-144.85 83.79-33.3 49.22-70.389 158.29-135.952 150.31 0 0 53.012-34.58 61.288-89.12 8.27-54.53 16.545-172.29 66.185-227.15 49.64-54.85 126.036-112.81 153.33-91.14 27.304 21.66 26.724 60.28 26.724 60.28" fill="#770e0e" fill-rule="nonzero"/></g><defs><linearGradient id="wear-6_svg___Linear1" x1="0" y1="0" x2="1" y2="0" gradientUnits="userSpaceOnUse" gradientTransform="matrix(508.5,0,0,508.5,227.22,482.36)"><stop offset="0" stop-color="#ee2238"/><stop offset="1" stop-color="#bf1d67"/></linearGradient></defs></svg>